<svg id="bf90cbee-83b9-4b8a-b688-82d424d45a79" data-name="Layer 1" xmlns="http://www.w3.org/2000/svg" viewBox="0 0 37.37 21.19"><defs><style>.b14677bd-a25b-4e8b-9d43-d978fec36d9b{fill:#474546;}</style></defs><path class="b14677bd-a25b-4e8b-9d43-d978fec36d9b" d="M17.14,13.61,4.49,1A2.49,2.49,0,0,0,1,1H1A2.49,2.49,0,0,0,1,4.49L15.37,18.91l1.77,1.77a2.52,2.52,0,0,0,3.54,0l1.76-1.77L36.86,4.49a2.49,2.49,0,0,0,0-3.53h0a2.49,2.49,0,0,0-3.53,0L20.68,13.61A2.52,2.52,0,0,1,17.14,13.61Z" transform="translate(-0.22 -0.22)"/></svg>