<svg id="ad139008-b7bb-4134-82b9-16574300affd" xmlns="http://www.w3.org/2000/svg" viewBox="0 0 52 55"><defs><style>.abf6124e-f632-4de0-876f-17148f34fdf2{fill:#fff;}</style></defs><path class="abf6124e-f632-4de0-876f-17148f34fdf2" d="M50,0H2A2,2,0,0,0,0,2V53a2,2,0,0,0,2,2H50a2,2,0,0,0,2-2V2A2,2,0,0,0,50,0ZM48,51H4V4H48Z"/><path class="abf6124e-f632-4de0-876f-17148f34fdf2" d="M30.57,46.5a6,6,0,1,1,6-6A6,6,0,0,1,30.57,46.5Zm0-9a3,3,0,1,0,3,3A3,3,0,0,0,30.57,37.5Z"/><polygon class="abf6124e-f632-4de0-876f-17148f34fdf2" points="43.14 21.74 41.33 19.93 38.61 22.65 35.88 19.93 34.07 21.74 36.79 24.46 34.07 27.19 35.88 29 38.61 26.28 41.33 29 43.14 27.19 40.42 24.46 43.14 21.74"/><polygon class="abf6124e-f632-4de0-876f-17148f34fdf2" points="19.07 15.81 17.26 14 14.54 16.72 11.74 13.93 9.93 15.74 12.72 18.54 10 21.26 11.81 23.07 14.54 20.35 17.19 23 19 21.19 16.35 18.54 19.07 15.81"/><path class="abf6124e-f632-4de0-876f-17148f34fdf2" d="M30.17,20l-8.1.95,2.23,2.34c-3,1.81-10.73,7.57-10.73,19.71a1.5,1.5,0,0,0,3,0c0-11.71,8.14-16.57,9.86-17.46L28.81,28Z"/></svg>