<svg id="bb23067e-66e4-4807-938d-3a7e132464ee" data-name="Layer 1" xmlns="http://www.w3.org/2000/svg" viewBox="0 0 65.26 64.15"><defs><style>.b488cdcc-9cfc-46d9-9723-ef6f18510bb4{fill:#474546;}</style></defs><title>Full Screen</title><polygon class="b488cdcc-9cfc-46d9-9723-ef6f18510bb4" points="60.26 59.15 37.37 59.15 37.37 64.14 60.26 64.14 65.25 64.14 65.25 59.15 65.25 36.26 60.26 36.26 60.26 59.15"/><polygon class="b488cdcc-9cfc-46d9-9723-ef6f18510bb4" points="5 5 27.89 5 27.89 0 5 0 0 0 0 5 0 27.89 5 27.89 5 5"/><polygon class="b488cdcc-9cfc-46d9-9723-ef6f18510bb4" points="60.26 5 60.26 27.89 65.25 27.89 65.25 5 65.25 0 60.26 0 37.37 0 37.37 5 60.26 5"/><polygon class="b488cdcc-9cfc-46d9-9723-ef6f18510bb4" points="5 59.15 5 36.26 0 36.26 0 59.15 0 64.14 5 64.14 27.89 64.14 27.89 59.15 5 59.15"/></svg>