<svg id="ac21402e-79f0-4eb8-b50a-256d4d49e828" data-name="Layer 1" xmlns="http://www.w3.org/2000/svg" viewBox="0 0 193.16 241.71"><defs><style>.bc5d9cbd-73a4-4ddc-a898-18bafe46222f{fill:#231f20;}</style></defs><title>logo-full</title><path class="bc5d9cbd-73a4-4ddc-a898-18bafe46222f" d="M76.92,117.38H21.68c-7.21,0-14.09,6-14.09,13.46v56.52c0,7.43,6.88,13.46,14.09,13.46H76.92c7.22,0,14.1-6,14.1-13.46V130.84c0-7.43-6.88-13.46-14.1-13.46m0,70H21.68V130.84H76.92Z" transform="translate(-7.34 -5.91)"/><path class="bc5d9cbd-73a4-4ddc-a898-18bafe46222f" d="M171.75,158.71l26.6-41.33H181.42l-19.75,30.71a7.8,7.8,0,0,1-6.5,3.53h-1.25a7.81,7.81,0,0,1-6.5-3.53l-19.68-30.71h-16.9l26.61,41.52-28.39,41.92h17.2l21.79-32.2a7.78,7.78,0,0,1,6.49-3.53h.31a7.82,7.82,0,0,1,6.5,3.53l21.91,32.2h17.23Z" transform="translate(-7.34 -5.91)"/><path class="bc5d9cbd-73a4-4ddc-a898-18bafe46222f" d="M43.56,40.24,35.62,53.69H76.85V76H21.71V19.44H83L91,6H21.71C14.5,6,7.61,12,7.61,19.44V76c0,7.44,6.89,13.46,14.1,13.46H76.85c7.21,0,14.1-6,14.1-13.46V40.24Z" transform="translate(-7.34 -5.91)"/><path class="bc5d9cbd-73a4-4ddc-a898-18bafe46222f" d="M181.47,5.91H120.52V89.49h61c7.23,0,14.13-6,14.13-13.49V60.21c0-7.45-4.47-13.49-11.7-13.49,7.23,0,11.7-6,11.7-13.48V19.4c0-7.45-6.9-13.49-14.13-13.49m0,64.55A5.45,5.45,0,0,1,176.1,76H134.64V53.7H176.1a5.46,5.46,0,0,1,5.37,5.54Zm0-35.78a5.46,5.46,0,0,1-5.37,5.53H134.64V19.4H176.1a5.45,5.45,0,0,1,5.37,5.53Z" transform="translate(-7.34 -5.91)"/><path class="bc5d9cbd-73a4-4ddc-a898-18bafe46222f" d="M9.72,241.82c.74,2.53,2.14,3.63,4.73,3.63,3.09,0,4.7-1.53,4.7-4.5a4,4,0,0,0-1.23-3.16c-.77-.64-.94-.71-3.85-1.54-4.28-1.2-6-3.1-6-6.67,0-4,2.45-6.37,6.59-6.37,3.57,0,5.53,1.47,6.31,4.74l-2.39.6c-.7-2.31-1.79-3.17-4-3.17-2.45,0-3.89,1.5-3.89,4.07s1.23,3.66,4.73,4.67c2.88.83,3.37,1,4.38,1.8,1.34,1,2,2.66,2,4.9,0,4.4-2.56,6.8-7.32,6.8-4.17,0-6.31-1.53-7.15-5.17Z" transform="translate(-7.34 -5.91)"/><path class="bc5d9cbd-73a4-4ddc-a898-18bafe46222f" d="M48.05,225.71H42.23v-2.2H56.56v2.2H50.78v21.61H48.05Z" transform="translate(-7.34 -5.91)"/><path class="bc5d9cbd-73a4-4ddc-a898-18bafe46222f" d="M81.22,223.51v16.18c0,2.06.18,3.1.74,3.93a3.8,3.8,0,0,0,3.64,1.83c2.11,0,3.3-.6,4.07-2.1a7.74,7.74,0,0,0,.56-3.66V223.51H93v16.18c0,3-.28,4.23-1.26,5.5-1.33,1.7-3.12,2.43-6,2.43s-5-.86-6.2-2.8c-.77-1.17-1-2.43-1-5.13V223.51Z" transform="translate(-7.34 -5.91)"/><path class="bc5d9cbd-73a4-4ddc-a898-18bafe46222f" d="M116.57,223.51h6.66c5.26-.1,7.89,2.6,7.78,7.9v8c.11,5.3-2.52,8-7.78,7.9h-6.66ZM123,245.15c3.71.07,5.29-1.76,5.29-6.1v-7.3c0-4.31-1.58-6.14-5.29-6.07h-3.68v19.47Z" transform="translate(-7.34 -5.91)"/><path class="bc5d9cbd-73a4-4ddc-a898-18bafe46222f" d="M154.16,223.51h2.74v23.81h-2.74Z" transform="translate(-7.34 -5.91)"/><path class="bc5d9cbd-73a4-4ddc-a898-18bafe46222f" d="M180,231.41c0-2.9.49-4.63,1.68-6,1.33-1.54,3.16-2.24,5.78-2.24,2.81,0,4.77.83,6.07,2.6,1,1.3,1.36,2.94,1.36,5.6v8c0,2.9-.49,4.63-1.68,6-1.33,1.53-3.15,2.23-5.75,2.23-2.83,0-4.8-.83-6.09-2.6-.95-1.3-1.37-3-1.37-5.6Zm12.16.27c0-4.37-1.44-6.3-4.73-6.3s-4.7,1.93-4.7,6.3v7.47c0,4.37,1.44,6.3,4.7,6.3s4.73-1.93,4.73-6.3Z" transform="translate(-7.34 -5.91)"/></svg>