<svg id="e6f2af9b-f48f-4f3b-8dbd-e961af4ebfb0" data-name="Layer 1" xmlns="http://www.w3.org/2000/svg" viewBox="0 0 129.37 130.72"><defs><style>.bef0758c-2cd2-42ac-962e-064ad7c34940{fill:#fd0;}</style></defs><title>logo</title><path class="bef0758c-2cd2-42ac-962e-064ad7c34940" d="M95.69,98.57h-37c-4.83,0-9.45,4-9.45,9v37.9c0,5,4.62,9,9.45,9H95.69c4.84,0,9.45-4,9.45-9V107.6c0-5-4.61-9-9.45-9m0,46.93h-37V107.6H95.69Z" transform="translate(-49.19 -23.81)"/><path class="bef0758c-2cd2-42ac-962e-064ad7c34940" d="M159.28,126.29l17.84-27.72H165.77l-13.25,20.59a5.22,5.22,0,0,1-4.36,2.37h-.83a5.24,5.24,0,0,1-4.36-2.37l-13.2-20.59H118.43l17.85,27.84-19,28.12h11.53l14.61-21.6a5.25,5.25,0,0,1,4.36-2.37H148a5.26,5.26,0,0,1,4.36,2.37L167,154.53h11.56Z" transform="translate(-49.19 -23.81)"/><path class="bef0758c-2cd2-42ac-962e-064ad7c34940" d="M73.31,46.84l-5.32,9H95.64V70.79h-37V32.89H99.78l5.35-9H58.66c-4.84,0-9.46,4-9.46,9v37.9c0,5,4.62,9,9.46,9h37c4.83,0,9.46-4,9.46-9v-24Z" transform="translate(-49.19 -23.81)"/><path class="bef0758c-2cd2-42ac-962e-064ad7c34940" d="M165.8,23.81H124.92V79.87H165.8c4.85,0,9.47-4.05,9.47-9.05V60.23c0-5-3-9-7.84-9,4.85,0,7.84-4,7.84-9V32.86c0-5-4.62-9-9.47-9m0,43.3a3.65,3.65,0,0,1-3.6,3.71H134.4v-15h27.8a3.66,3.66,0,0,1,3.6,3.72Zm0-24a3.66,3.66,0,0,1-3.6,3.72H134.4v-14h27.8a3.65,3.65,0,0,1,3.6,3.71Z" transform="translate(-49.19 -23.81)"/></svg>