<svg width="318" height="1067" viewBox="0 0 318 1067" fill="none" xmlns="http://www.w3.org/2000/svg">
<g style="mix-blend-mode:overlay" opacity="0.9">
<path d="M-235.154 641.238L-235.22 641.164L-260.102 629.082L-275.024 621.72L-312.306 603.494L-311.765 602.754L-270.256 541.791L-211.552 479.318L-190.823 457.253L-274.042 426.166L-135.502 392.733L-108.647 444.318L-50.3678 363.714L-2.04247 410.821L9.12754 421.747L15.232 465.81L24.1731 530.905L27.9769 558.62" stroke="#FFFAFA" stroke-miterlimit="10" stroke-linecap="round" stroke-linejoin="round"/>
<path d="M230.563 643.765L180.356 632.795L217.582 591.566L149.147 626.002" stroke="#FFFAFA" stroke-miterlimit="10" stroke-linecap="round" stroke-linejoin="round"/>
<path d="M-59.6544 275.668L-50.7159 346.268L-48.4902 364.624L17.3297 346.517L11.6862 407.674L10.2623 422.609L-35.4252 458.012L-81.0383 493.348L-42.7453 445.878L-35.4252 458.012L-10.3315 499.349L-5.87964 555.184L25.6278 532.029L121.571 461.177L122.454 460.531L121.777 461.262L29.5128 559.81" stroke="#FFFAFA" stroke-miterlimit="10" stroke-linecap="round" stroke-linejoin="round"/>
<path d="M119.976 508.044L188.691 510.216L107.121 572.42" stroke="#FFFAFA" stroke-miterlimit="10" stroke-linecap="round" stroke-linejoin="round"/>
<path d="M66.293 628.842L45.1791 719.844L93.4495 726.743" stroke="#FFFAFA" stroke-miterlimit="10" stroke-linecap="round" stroke-linejoin="round"/>
<path d="M61.8521 281.479L-59.5779 274.255L-194.137 371.382L-180.449 216.437L-178.819 197.504L-262.796 223.541L-267.654 117.944L-178.708 196.877L-120.158 211.278L-180.449 216.437L-262.796 223.541L-272.705 424.991L-193.771 372.252L-134.349 391.717L-189.502 456.233L-152.841 486.481L-115.975 516.812L-111.036 520.942L-101.89 528.521L-102.28 529.13L-120.462 552.976L-151.535 593.749L-167.029 614.033L-168.108 615.514L-166.309 614.856L-167.029 614.033L-184.201 592.321L-195.839 577.529L-196.691 576.557L-195.524 576.985L-176.103 584.388L-151.535 593.749L-126.621 603.203L-120.462 552.976L-117.347 527.3L-117.255 526.953L-115.975 516.812L-107.121 444.195L-0.972881 410.016L11.6525 406.046L84.2887 382.583L86.4426 381.877L63.3921 281.58L61.9921 281.489L61.8521 281.479Z" stroke="#FFFAFA" stroke-miterlimit="10" stroke-linecap="round" stroke-linejoin="round"/>
<path d="M93.656 726.925L102.009 627.558L148.62 625.408L179.839 632.143L93.656 726.925Z" fill="url(#paint0_linear_856_36537)"/>
<path d="M-268.51 542.757L-269.538 542.34L-273.264 426.754L-210.79 479.87L-160.304 522.789L-153.418 487.945L-134.681 393.29L-50.8549 346.283L61.9933 282.878L62.1427 282.747L62.1334 282.887L17.3244 346.312L85.7362 382.058L84.2138 383.792L43.0544 433.575L16.0445 466.298L-10.9562 498.881L9.96178 422.251L43.0544 433.575L121.348 460.371L121.554 460.455L123.413 461.066L119.266 505.52" stroke="#FFFAFA" stroke-miterlimit="10" stroke-linecap="round" stroke-linejoin="round"/>
<path d="M106.32 572.768L101.873 627.242L67.0302 628.803L66.8247 628.72L66.9374 629.15L93.8672 726.804" stroke="#FFFAFA" stroke-miterlimit="10" stroke-linecap="round" stroke-linejoin="round"/>
<path d="M45.1028 720.487L-55.6339 541.338L-41.2089 528.103L-6.75233 556.413L28.6749 560.961L119.038 507.455L106.507 571.989L67.1845 627.81L67.0354 627.942L67.0172 628.223L-6.37746 557.143L45.1028 720.487Z" fill="url(#paint1_linear_856_36537)"/>
<path d="M105.43 572.627L28.143 561.085L67.3207 627.961L67.3773 628.176L68.0802 629.28L67.2849 628.522L67.1538 628.373" stroke="#FFFAFA" stroke-miterlimit="10" stroke-linecap="round" stroke-linejoin="round"/>
<path d="M10.098 540.094C8.40448 542.522 12.2365 545.221 13.8644 542.718C15.5579 540.289 11.7915 537.665 10.098 540.094Z" fill="white"/>
<path d="M48.4027 607.968C46.7092 610.397 50.5411 613.096 52.1691 610.593C53.8626 608.164 50.0962 605.54 48.4027 607.968Z" fill="white"/>
<path d="M25.0823 699.136C23.3889 701.565 27.2208 704.264 28.8488 701.76C30.5423 699.331 26.7758 696.707 25.0823 699.136Z" fill="white"/>
<path d="M74.5663 705.909C72.8724 708.338 76.7045 711.036 78.3328 708.533C80.1664 706.113 76.3344 703.415 74.5663 705.909Z" fill="white"/>
<path d="M130.115 604.581C128.421 607.01 132.253 609.708 133.881 607.205C135.574 604.776 131.743 602.077 130.115 604.581Z" fill="white"/>
<path d="M87.9266 552.363C86.2327 554.791 90.0648 557.49 91.6931 554.986C93.4612 552.492 89.6947 549.868 87.9266 552.363Z" fill="white"/>
<path d="M101.102 487.157C99.4085 489.586 103.241 492.284 104.869 489.781C106.637 487.286 102.87 484.663 101.102 487.157Z" fill="white"/>
<path d="M68.2313 362.361C66.5374 364.79 70.3695 367.488 71.9978 364.985C73.7658 362.49 69.9994 359.866 68.2313 362.361Z" fill="white"/>
<path d="M105.457 442.273C103.764 444.702 107.596 447.4 109.224 444.897C110.917 442.468 107.151 439.844 105.457 442.273Z" fill="white"/>
<path d="M169.894 490.184C168.201 492.613 172.033 495.311 173.661 492.808C175.495 490.388 171.662 487.69 169.894 490.184Z" fill="white"/>
<path d="M199.134 570.923C197.44 573.352 201.272 576.05 202.9 573.547C204.668 571.052 200.902 568.429 199.134 570.923Z" fill="white"/>
<path d="M211.731 623.223C210.037 625.651 213.869 628.349 215.498 625.846C217.266 623.352 213.499 620.728 211.731 623.223Z" fill="white"/>
<path d="M45.0111 262.794C43.3176 265.223 47.1496 267.922 48.7775 265.418C50.5366 263.064 46.7046 260.365 45.0111 262.794Z" fill="white"/>
<path d="M-0.784838 325.944C-2.47833 328.373 1.35365 331.071 2.98158 328.568C4.67508 326.139 0.908656 323.515 -0.784838 325.944Z" fill="white"/>
</g>
<defs>
<linearGradient id="paint0_linear_856_36537" x1="113.929" y1="660.135" x2="168.727" y2="598.349" gradientUnits="userSpaceOnUse">
<stop stop-color="#EAF3FF"/>
<stop offset="0.9625" stop-color="#9BCAFF" stop-opacity="0.2"/>
</linearGradient>
<linearGradient id="paint1_linear_856_36537" x1="42.0657" y1="566.011" x2="75.6291" y2="699.996" gradientUnits="userSpaceOnUse">
<stop stop-color="#EAF3FF"/>
<stop offset="0.9625" stop-color="#9BCAFF" stop-opacity="0.2"/>
</linearGradient>
</defs>
</svg>
