<svg width="388" height="388" viewBox="0 0 388 388" fill="none" xmlns="http://www.w3.org/2000/svg">
<rect x="0.144531" y="0.235596" width="387.621" height="387.621" rx="193.81" fill="white"/>
<rect x="0.144531" y="0.235596" width="387.621" height="387.621" rx="193.81" fill="url(#paint0_linear_656_28371)" fill-opacity="0.8"/>
<rect x="0.144531" y="0.235596" width="387.621" height="387.621" rx="193.81" fill="#FF9797" fill-opacity="0.2"/>
<path d="M169.857 174.654C171.349 173.908 172.118 172.649 172.118 171.134C172.118 168.662 170.02 166.867 165.521 166.867H156.801V183.187H165.987C170.486 183.187 172.888 181.531 172.888 178.687C172.888 176.752 171.769 175.353 169.857 174.654ZM164.775 170.714C166.01 170.714 166.57 171.134 166.57 171.926C166.57 172.719 166.01 173.138 164.775 173.138H162.21V170.714H164.775ZM165.521 179.34H162.21V176.775H165.521C166.733 176.775 167.339 177.218 167.339 178.058C167.339 178.897 166.733 179.34 165.521 179.34ZM181.081 170.201C179.099 170.201 176.838 170.714 175.346 171.646L177.024 175.12C177.863 174.491 179.146 174.118 180.288 174.118C181.78 174.118 182.526 174.631 182.689 175.61H180.568C176.605 175.61 174.739 176.985 174.739 179.456C174.739 181.648 176.348 183.42 179.472 183.42C181.267 183.42 182.48 182.79 183.086 181.508V183.187H187.981V176.332C187.981 172.089 185.464 170.201 181.081 170.201ZM181.057 180.249C180.265 180.249 179.798 179.806 179.798 179.223C179.798 178.524 180.288 178.151 181.407 178.151H182.713V179.037C182.433 179.876 181.78 180.249 181.057 180.249ZM199.094 179.083C198.745 179.317 198.325 179.433 197.905 179.433C197.276 179.433 196.81 178.99 196.81 178.197V174.98H199.421V171.134H196.81V167.567H191.541V171.134H189.792V174.98H191.541V178.244C191.541 181.764 193.592 183.42 197.113 183.42C198.348 183.42 199.537 183.21 200.353 182.744L199.094 179.083ZM208.893 183.42C211.994 183.42 214.325 181.998 215.164 179.643L211.085 177.638C210.548 178.827 209.779 179.317 208.87 179.317C207.681 179.317 206.702 178.477 206.702 176.799C206.702 175.143 207.681 174.304 208.87 174.304C209.779 174.304 210.548 174.794 211.085 175.983L215.164 173.978C214.325 171.623 211.994 170.201 208.893 170.201C204.487 170.201 201.363 172.929 201.363 176.799C201.363 180.692 204.487 183.42 208.893 183.42ZM225.941 170.201C224.565 170.201 223.33 170.621 222.35 171.46V165.888H217.082V183.187H222.35V177.195C222.35 175.307 223.26 174.631 224.332 174.631C225.288 174.631 225.894 175.237 225.894 176.822V183.187H231.163V175.913C231.163 171.903 228.878 170.201 225.941 170.201ZM152.282 203.867H144.426V220.187H149.928V216.177H152.282C156.828 216.177 159.719 213.799 159.719 210.022C159.719 206.245 156.828 203.867 152.282 203.867ZM151.933 211.934H149.928V208.11H151.933C153.448 208.11 154.171 208.833 154.171 210.022C154.171 211.211 153.448 211.934 151.933 211.934ZM164.922 206.408C166.857 206.408 168.093 205.243 168.093 203.634C168.093 202.119 166.857 201.046 164.922 201.046C162.987 201.046 161.751 202.212 161.751 203.727C161.751 205.243 162.987 206.408 164.922 206.408ZM162.288 220.187H167.556V207.434H162.288V220.187ZM177.445 220.42C180.546 220.42 182.877 218.998 183.716 216.643L179.637 214.638C179.1 215.827 178.331 216.317 177.422 216.317C176.233 216.317 175.254 215.477 175.254 213.799C175.254 212.143 176.233 211.304 177.422 211.304C178.331 211.304 179.1 211.794 179.637 212.983L183.716 210.978C182.877 208.623 180.546 207.201 177.445 207.201C173.039 207.201 169.915 209.929 169.915 213.799C169.915 217.692 173.039 220.42 177.445 220.42ZM194.842 220.187H201.207L195.518 212.959L200.787 207.434H194.563L190.902 211.141V202.888H185.634V220.187H190.902V217.179L191.742 216.27L194.842 220.187ZM205.587 206.408C207.522 206.408 208.758 205.243 208.758 203.634C208.758 202.119 207.522 201.046 205.587 201.046C203.652 201.046 202.417 202.212 202.417 203.727C202.417 205.243 203.652 206.408 205.587 206.408ZM202.953 220.187H208.222V207.434H202.953V220.187ZM220.116 207.201C218.623 207.201 217.271 207.691 216.269 208.693V207.434H211.256V220.187H216.525V214.195C216.525 212.307 217.434 211.631 218.507 211.631C219.463 211.631 220.069 212.237 220.069 213.822V220.187H225.338V212.913C225.338 208.903 223.053 207.201 220.116 207.201ZM237.785 207.434V208.88C236.992 207.737 235.757 207.201 234.008 207.201C230.768 207.201 227.877 209.556 227.877 213.332C227.877 217.109 230.768 219.487 234.008 219.487C235.57 219.487 236.736 219.044 237.529 218.135V218.368C237.529 220.07 236.666 221.026 234.498 221.026C233.122 221.026 231.42 220.536 230.418 219.767L228.646 223.357C230.231 224.406 232.516 224.942 235.034 224.942C239.907 224.942 242.797 222.588 242.797 217.645V207.434H237.785ZM235.407 215.384C234.171 215.384 233.216 214.568 233.216 213.332C233.216 212.097 234.171 211.304 235.407 211.304C236.643 211.304 237.575 212.097 237.575 213.332C237.575 214.568 236.643 215.384 235.407 215.384Z" fill="white"/>
<defs>
<linearGradient id="paint0_linear_656_28371" x1="409.779" y1="387.857" x2="-85.9935" y2="208.881" gradientUnits="userSpaceOnUse">
<stop stop-color="#3185FF"/>
<stop offset="1" stop-color="#B131FF" stop-opacity="0"/>
</linearGradient>
</defs>
</svg>
