<svg width="211" height="211" viewBox="0 0 211 211" fill="none" xmlns="http://www.w3.org/2000/svg">
<rect x="0.238281" y="0.685791" width="210.137" height="210.137" rx="105.069" fill="white"/>
<rect x="0.238281" y="0.685791" width="210.137" height="210.137" rx="105.069" fill="#FFB892" fill-opacity="0.2"/>
<rect x="0.238281" y="0.685791" width="210.137" height="210.137" rx="105.069" fill="url(#paint0_linear_656_28365)" fill-opacity="0.8"/>
<path d="M51.9657 96.4097H60.0088C65.4642 96.4097 69.2176 93.309 69.2176 88.25C69.2176 83.191 65.4642 80.0903 60.0088 80.0903H51.9657V96.4097ZM57.4677 92.12V84.38H59.7757C62.0837 84.38 63.669 85.7555 63.669 88.25C63.669 90.7445 62.0837 92.12 59.7757 92.12H57.4677ZM74.3972 82.6315C76.3322 82.6315 77.5678 81.4658 77.5678 79.8572C77.5678 78.3418 76.3322 77.2694 74.3972 77.2694C72.4622 77.2694 71.2266 78.4351 71.2266 79.9505C71.2266 81.4658 72.4622 82.6315 74.3972 82.6315ZM71.7628 96.4097H77.0316V83.6573H71.7628V96.4097ZM85.0554 96.6428C89.4849 96.6428 91.653 94.6379 91.653 92.3298C91.653 87.2242 84.3326 88.9494 84.3326 87.6205C84.3326 87.3175 84.7057 87.0144 86.0578 87.0144C87.1302 87.0144 88.4358 87.2242 89.7413 87.9469L91.1868 84.4732C89.8346 83.7738 87.853 83.4241 85.9879 83.4241C81.6982 83.4241 79.4602 85.3825 79.4602 87.7837C79.4602 92.8894 86.8039 91.1409 86.8039 92.4464C86.8039 92.8194 86.4542 93.0525 85.1719 93.0525C83.6566 93.0525 81.9314 92.6329 80.7191 91.9102L79.2737 95.3839C80.5792 96.1299 82.8639 96.6428 85.0554 96.6428ZM100.802 96.6428C103.903 96.6428 106.234 95.2207 107.073 92.866L102.993 90.8611C102.457 92.0501 101.688 92.5397 100.779 92.5397C99.5896 92.5397 98.6104 91.7004 98.6104 90.0218C98.6104 88.3666 99.5896 87.5273 100.779 87.5273C101.688 87.5273 102.457 88.0169 102.993 89.2059L107.073 87.2009C106.234 84.8463 103.903 83.4241 100.802 83.4241C96.3956 83.4241 93.2717 86.1518 93.2717 90.0218C93.2717 93.9151 96.3956 96.6428 100.802 96.6428ZM114.003 85.0328V83.6573H108.99V96.4097H114.259V90.7445C114.259 88.7163 115.378 87.9936 116.963 87.9936C117.336 87.9936 117.663 88.0169 118.129 88.0868V83.4241C116.357 83.4241 114.935 83.9604 114.003 85.0328ZM133.776 90.0218C133.776 85.7089 130.536 83.4241 126.759 83.4241C122.633 83.4241 119.532 86.1518 119.532 90.0218C119.532 93.8219 122.563 96.6428 127.249 96.6428C129.79 96.6428 131.585 95.9434 132.821 94.5912L130.07 91.8169C129.23 92.4464 128.578 92.7495 127.412 92.7495C126.106 92.7495 125.22 92.2366 124.847 91.2574H133.706C133.73 90.8844 133.776 90.3948 133.776 90.0218ZM126.806 87.0144C127.878 87.0144 128.647 87.6439 128.857 88.7163H124.754C124.964 87.6439 125.71 87.0144 126.806 87.0144ZM144.275 92.3065C143.925 92.5397 143.505 92.6562 143.086 92.6562C142.456 92.6562 141.99 92.2133 141.99 91.4206V88.2034H144.601V84.3567H141.99V80.7897H136.721V84.3567H134.973V88.2034H136.721V91.4672C136.721 94.9876 138.773 96.6428 142.293 96.6428C143.529 96.6428 144.718 96.433 145.534 95.9667L144.275 92.3065ZM160.788 90.0218C160.788 85.7089 157.547 83.4241 153.771 83.4241C149.644 83.4241 146.544 86.1518 146.544 90.0218C146.544 93.8219 149.574 96.6428 154.26 96.6428C156.801 96.6428 158.596 95.9434 159.832 94.5912L157.081 91.8169C156.242 92.4464 155.589 92.7495 154.423 92.7495C153.118 92.7495 152.232 92.2366 151.859 91.2574H160.718C160.741 90.8844 160.788 90.3948 160.788 90.0218ZM153.817 87.0144C154.89 87.0144 155.659 87.6439 155.869 88.7163H151.766C151.976 87.6439 152.722 87.0144 153.817 87.0144ZM64.714 117.09H56.8574V133.41H62.3594V129.4H64.714C69.2601 129.4 72.151 127.022 72.151 123.245C72.151 119.468 69.2601 117.09 64.714 117.09ZM64.3643 125.157H62.3594V121.333H64.3643C65.8797 121.333 66.6024 122.056 66.6024 123.245C66.6024 124.434 65.8797 125.157 64.3643 125.157ZM77.3537 119.631C79.2887 119.631 80.5243 118.466 80.5243 116.857C80.5243 115.342 79.2887 114.269 77.3537 114.269C75.4187 114.269 74.1831 115.435 74.1831 116.95C74.1831 118.466 75.4187 119.631 77.3537 119.631ZM74.7193 133.41H79.9881V120.657H74.7193V133.41ZM89.8769 133.643C92.9776 133.643 95.3089 132.221 96.1482 129.866L92.0684 127.861C91.5322 129.05 90.7628 129.54 89.8536 129.54C88.6646 129.54 87.6855 128.7 87.6855 127.022C87.6855 125.367 88.6646 124.527 89.8536 124.527C90.7628 124.527 91.5322 125.017 92.0684 126.206L96.1482 124.201C95.3089 121.846 92.9776 120.424 89.8769 120.424C85.4707 120.424 82.3467 123.152 82.3467 127.022C82.3467 130.915 85.4707 133.643 89.8769 133.643ZM107.274 133.41H113.639L107.95 126.183L113.219 120.657H106.994L103.334 124.364V116.111H98.0654V133.41H103.334V130.402L104.173 129.493L107.274 133.41ZM118.019 119.631C119.954 119.631 121.19 118.466 121.19 116.857C121.19 115.342 119.954 114.269 118.019 114.269C116.084 114.269 114.848 115.435 114.848 116.95C114.848 118.466 116.084 119.631 118.019 119.631ZM115.385 133.41H120.653V120.657H115.385V133.41ZM132.547 120.424C131.055 120.424 129.703 120.914 128.701 121.916V120.657H123.688V133.41H128.957V127.418C128.957 125.53 129.866 124.854 130.939 124.854C131.894 124.854 132.501 125.46 132.501 127.045V133.41H137.769V126.136C137.769 122.126 135.485 120.424 132.547 120.424ZM150.217 120.657V122.103C149.424 120.96 148.188 120.424 146.44 120.424C143.199 120.424 140.309 122.779 140.309 126.556C140.309 130.332 143.199 132.71 146.44 132.71C148.002 132.71 149.168 132.267 149.96 131.358V131.591C149.96 133.293 149.098 134.249 146.93 134.249C145.554 134.249 143.852 133.759 142.85 132.99L141.078 136.58C142.663 137.629 144.948 138.166 147.466 138.166C152.338 138.166 155.229 135.811 155.229 130.869V120.657H150.217ZM147.839 128.607C146.603 128.607 145.647 127.791 145.647 126.556C145.647 125.32 146.603 124.527 147.839 124.527C149.074 124.527 150.007 125.32 150.007 126.556C150.007 127.791 149.074 128.607 147.839 128.607Z" fill="white"/>
<defs>
<linearGradient id="paint0_linear_656_28365" x1="204.5" y1="-23.5076" x2="6.45943" y2="194.924" gradientUnits="userSpaceOnUse">
<stop stop-color="#3185FF"/>
<stop offset="1" stop-color="#B131FF" stop-opacity="0"/>
</linearGradient>
</defs>
</svg>
