<svg width="20" height="20" viewBox="0 0 20 20" fill="none" xmlns="http://www.w3.org/2000/svg">
<g clip-path="url(#clip0_776_29322)">
<rect width="20" height="20" rx="10" fill="white"/>
<path fill-rule="evenodd" clip-rule="evenodd" d="M0 0H8.57143V9.33333H0V0Z" fill="#1A47B8"/>
<path fill-rule="evenodd" clip-rule="evenodd" d="M8.57143 0V1.33333H20V0H8.57143ZM8.57143 2.66667V4H20V2.66667H8.57143ZM8.57143 5.33333V6.66667H20V5.33333H8.57143ZM8.57143 8V9.33333H20V8H8.57143ZM0 10.6667V12H20V10.6667H0ZM0 13.3333V14.6667H20V13.3333H0ZM0 16V17.3333H20V16H0ZM0 18.6667V20H20V18.6667H0Z" fill="#F93939"/>
<path fill-rule="evenodd" clip-rule="evenodd" d="M0.953125 1.33325V2.66659H1.90551V1.33325H0.953125ZM2.85789 1.33325V2.66659H3.81027V1.33325H2.85789ZM4.76265 1.33325V2.66659H5.71503V1.33325H4.76265ZM6.66741 1.33325V2.66659H7.61979V1.33325H6.66741ZM5.71503 2.66659V3.99992H6.66741V2.66659H5.71503ZM3.81027 2.66659V3.99992H4.76265V2.66659H3.81027ZM1.90551 2.66659V3.99992H2.85789V2.66659H1.90551ZM0.953125 3.99992V5.33325H1.90551V3.99992H0.953125ZM2.85789 3.99992V5.33325H3.81027V3.99992H2.85789ZM4.76265 3.99992V5.33325H5.71503V3.99992H4.76265ZM6.66741 3.99992V5.33325H7.61979V3.99992H6.66741ZM0.953125 6.66658V7.99992H1.90551V6.66658H0.953125ZM2.85789 6.66658V7.99992H3.81027V6.66658H2.85789ZM4.76265 6.66658V7.99992H5.71503V6.66658H4.76265ZM6.66741 6.66658V7.99992H7.61979V6.66658H6.66741ZM5.71503 5.33325V6.66658H6.66741V5.33325H5.71503ZM3.81027 5.33325V6.66658H4.76265V5.33325H3.81027ZM1.90551 5.33325V6.66658H2.85789V5.33325H1.90551Z" fill="white"/>
</g>
<defs>
<clipPath id="clip0_776_29322">
<rect width="20" height="20" rx="10" fill="white"/>
</clipPath>
</defs>
</svg>
