<svg width="281" height="363" viewBox="0 0 281 363" fill="none" xmlns="http://www.w3.org/2000/svg">
<g clip-path="url(#clip0_656_28116)">
<path opacity="0.2" d="M214.017 262.292C214.017 271.559 208.899 280.345 200.904 284.979L196.746 287.375L116.629 241.044L117.748 240.405C127.663 234.654 133.899 223.95 133.899 212.447V211.808C133.899 200.145 127.663 202.382 127.663 211.808V212.447C127.663 221.713 122.705 230.34 114.55 234.973L8.84605 295.683C4.84818 297.919 2.60938 302.073 2.60938 306.546C2.60938 311.179 5.0081 315.174 9.00597 317.41L68.6542 351.439C72.9719 353.836 77.7693 355.114 82.5668 355.114C87.3642 355.114 92.1616 353.836 96.4793 351.439L204.102 290.091C214.177 284.34 220.413 273.636 220.413 262.133C220.253 250.79 214.017 253.026 214.017 262.292ZM153.089 278.748L144.934 283.541L119.187 268.683L127.343 263.89L153.089 278.748ZM130.381 261.973L138.537 257.18L164.283 272.038L156.128 276.831L130.381 261.973ZM74.2512 295.044L82.4068 290.251L108.153 305.109L99.9975 309.901L74.2512 295.044ZM96.7992 311.659L88.6435 316.452L62.8972 301.594L71.0529 296.801L96.7992 311.659ZM85.4452 288.493L93.6009 283.7L119.347 298.558L111.192 303.351L85.4452 288.493ZM96.6393 281.783L104.795 276.991L130.541 291.848L122.386 296.641L96.6393 281.783ZM107.993 275.233L116.149 270.44L141.895 285.298L133.739 290.091L107.993 275.233ZM116.149 266.926L93.9207 254.145L102.236 249.352L124.464 262.133L116.149 266.926ZM113.11 268.683L104.955 273.476L82.5668 260.535L90.8823 255.742L113.11 268.683ZM101.757 275.233L93.6009 280.026L71.2128 267.085L79.5284 262.292L101.757 275.233ZM90.5625 281.783L82.4068 286.576L59.8589 273.476L68.1744 268.683L90.5625 281.783ZM79.3685 288.493L71.2128 293.286L48.5049 280.186L56.8205 275.393L79.3685 288.493ZM68.0145 295.044L59.8589 299.836L36.9911 286.576L45.3066 281.783L68.0145 295.044ZM56.8205 301.594L48.6648 306.387L25.6371 293.126L33.9527 288.334L56.8205 301.594ZM59.8589 303.351L85.6051 318.209L77.4495 323.002L51.7032 308.144L59.8589 303.351ZM88.6435 319.966L113.75 334.505L105.435 339.298L80.4879 324.919L88.6435 319.966ZM91.6819 318.209L99.8376 313.416L125.104 327.954L116.789 332.747L91.6819 318.209ZM103.036 311.659L111.192 306.866L136.618 321.564L128.302 326.357L103.036 311.659ZM114.23 305.109L122.386 300.316L147.972 315.014L139.656 319.807L114.23 305.109ZM125.424 298.399L133.58 293.606L159.326 308.464L151.01 313.256L125.424 298.399ZM136.778 291.848L144.934 287.055L170.84 302.073L162.524 306.866L136.778 291.848ZM147.972 285.298L156.128 280.505L182.194 295.523L173.878 300.316L147.972 285.298ZM159.166 278.588L167.322 273.795L193.548 288.973L185.232 293.765L159.166 278.588ZM135.499 255.423L127.343 260.216L105.275 247.435L113.59 242.642L135.499 255.423ZM93.2811 346.167C86.5646 350.002 78.409 350.002 71.6926 346.167L12.0443 312.138C9.96545 311.02 8.84605 308.943 8.84605 306.546C8.84605 304.15 9.96545 302.073 12.0443 300.955L22.5987 294.884L102.396 340.895L93.2811 346.167Z" fill="#C7BCD6"/>
<g opacity="0.2">
<path d="M118.385 350.002C118.385 347.126 120.943 347.126 119.344 346.167L114.067 343.292C112.468 342.493 110.229 342.653 107.83 343.931C102.873 346.806 98.875 353.676 98.875 359.428C98.875 360.386 102.553 361.025 104.152 361.984L118.385 350.002Z" fill="url(#paint0_linear_656_28116)"/>
<path d="M122.067 352.079C122.067 346.327 118.069 344.091 113.111 346.966C108.154 349.842 104.156 356.712 104.156 362.463L122.067 352.079Z" fill="url(#paint1_linear_656_28116)"/>
<path d="M117.269 354.795C117.269 352.079 115.35 351.12 113.111 352.398C110.872 353.676 108.953 357.031 108.953 359.587L117.269 354.795Z" fill="url(#paint2_linear_656_28116)"/>
<path d="M103.672 362.303C103.672 356.552 107.67 349.682 112.627 346.806C115.026 345.369 117.105 345.209 118.864 346.008C117.425 345.528 115.506 345.848 113.427 347.126C108.469 350.002 104.471 356.871 104.471 362.623L103.672 362.303Z" fill="url(#paint3_radial_656_28116)"/>
</g>
<g opacity="0.2">
<path d="M209.377 295.363C209.377 292.488 211.935 292.488 210.336 291.529L205.059 288.653C203.46 287.695 201.221 288.014 198.822 289.292C193.865 292.168 189.867 299.038 189.867 304.789C189.867 305.748 193.545 306.387 195.144 307.345L209.377 295.363Z" fill="url(#paint4_linear_656_28116)"/>
<path d="M213.059 297.44C213.059 291.689 209.061 289.452 204.104 292.328C199.146 295.203 195.148 302.073 195.148 307.825L213.059 297.44Z" fill="url(#paint5_linear_656_28116)"/>
<path d="M208.261 300.156C208.261 297.44 206.342 296.482 204.103 297.76C201.864 299.038 199.945 302.393 199.945 304.949L208.261 300.156Z" fill="url(#paint6_linear_656_28116)"/>
<path d="M194.504 307.505C194.504 301.754 198.502 294.884 203.459 292.009C205.858 290.571 207.937 290.411 209.696 291.21C208.257 290.73 206.338 291.05 204.259 292.328C199.301 295.204 195.303 302.073 195.303 307.825L194.504 307.505Z" fill="url(#paint7_radial_656_28116)"/>
</g>
<g opacity="0.2">
<path d="M29.7948 299.677C29.7948 296.801 32.3534 296.801 30.7542 295.842L25.4771 292.967C23.8779 292.168 21.6391 292.328 19.2404 293.606C14.283 296.482 10.2852 303.351 10.2852 309.103C10.2852 310.061 13.9632 310.7 15.5623 311.659L29.7948 299.677Z" fill="url(#paint8_linear_656_28116)"/>
<path d="M33.4769 301.754C33.4769 296.002 29.479 293.766 24.5216 296.641C19.5643 299.517 15.5664 306.387 15.5664 312.138L33.4769 301.754Z" fill="url(#paint9_linear_656_28116)"/>
<path d="M28.5109 304.47C28.5109 301.754 26.5919 300.795 24.3531 302.073C21.9544 303.351 20.1953 306.706 20.1953 309.262L28.5109 304.47Z" fill="url(#paint10_linear_656_28116)"/>
<path d="M14.9219 311.979C14.9219 306.227 18.9197 299.357 23.8771 296.482C26.2758 295.044 28.3547 294.884 30.1138 295.683C28.6745 295.204 26.7556 295.523 24.6767 296.801C19.7193 299.677 15.7214 306.547 15.7214 312.298L14.9219 311.979Z" fill="url(#paint11_radial_656_28116)"/>
</g>
<g opacity="0.2">
<path opacity="0.090909" d="M151.65 214.844L25.157 291.37C21.3191 293.606 19.4001 296.961 19.56 300.796C19.56 302.393 20.0398 303.831 20.8393 305.269C21.9587 307.506 24.3575 309.742 27.076 311.34L89.1229 346.967C92.4812 348.884 97.4385 350.322 101.596 350.322C105.434 350.481 109.112 349.683 111.991 348.245C112.311 348.245 120.466 343.452 120.626 343.292L239.283 271.559C243.121 269.323 245.04 265.808 244.88 261.974C244.88 260.855 244.56 259.897 244.24 258.778C243.281 256.062 240.562 253.187 237.364 251.429L174.837 215.323C174.038 214.844 173.078 214.365 172.119 214.045C169.08 212.767 165.722 212.128 162.204 212.128C158.046 212.288 154.528 213.246 151.65 214.844Z" fill="black"/>
<path opacity="0.1818" d="M149.405 216.601L25.3116 291.529C21.6336 293.766 19.7146 297.121 20.0344 300.795C20.1944 302.233 20.6741 303.671 21.4737 304.949C22.5931 306.866 25.3116 309.422 27.5504 310.7L88.318 345.688C91.3564 347.446 96.6336 349.203 100.472 349.203C104.15 349.522 107.828 348.883 110.706 347.605C111.346 347.605 118.862 343.292 119.342 342.972L236.399 272.358C240.237 270.121 241.996 266.606 241.516 262.932C241.356 261.973 241.037 260.855 240.717 259.896C239.757 257.5 236.559 254.464 233.84 252.867L171.953 217.559C171.314 217.08 170.035 216.601 169.235 216.281C166.197 215.003 162.838 214.364 159.48 214.204C155.802 214.204 152.124 215.003 149.405 216.601Z" fill="black"/>
<path opacity="0.2727" d="M147.012 218.518L25.3172 291.848C21.6391 293.925 19.8801 297.44 20.5197 300.955C20.6796 302.393 21.3193 303.671 22.1189 304.949C23.0784 306.706 26.1167 309.263 28.1956 310.541L87.524 344.73C90.2426 346.327 95.8396 348.564 99.1978 348.564C102.876 349.043 106.394 348.564 109.272 347.446C110.072 347.446 117.268 343.451 117.748 343.132L233.046 273.636C236.884 271.399 238.484 268.044 237.684 264.369C237.524 263.411 237.044 262.452 236.724 261.494C235.765 259.417 232.247 256.222 229.688 254.784L168.921 219.796C168.281 219.476 167.002 218.837 166.362 218.518C163.484 217.24 160.125 216.601 156.767 216.441C153.409 216.121 149.891 216.92 147.012 218.518Z" fill="black"/>
<path opacity="0.3636" d="M144.773 220.275L25.4762 292.168C21.7982 294.245 20.3589 297.6 20.9986 301.115C21.3184 302.393 21.9581 303.671 22.7577 304.949C23.7171 306.387 27.0754 309.103 28.8344 310.221L86.8835 343.771C89.1223 345.049 95.359 347.765 98.2374 347.765C101.756 348.245 105.274 348.085 108.152 346.966C109.272 346.966 115.828 343.452 116.628 342.972L230.327 274.435C234.165 272.198 235.444 268.843 234.485 265.328C234.165 264.37 233.685 263.571 233.365 262.612C232.566 260.855 228.408 257.34 226.329 256.062L166.521 221.554C166.041 221.234 164.602 220.435 163.962 220.275C161.084 218.997 157.886 218.199 154.527 218.199C151.009 217.879 147.491 218.678 144.773 220.275Z" fill="black"/>
<path opacity="0.4545" d="M142.531 222.033L25.6328 292.328C21.9548 294.405 20.6755 297.76 21.635 301.115C21.9548 302.393 22.7544 303.511 23.554 304.63C24.3535 305.908 28.0316 308.783 29.6307 309.582L86.4005 342.333C88.3194 343.452 94.8759 346.487 97.4346 346.487C100.793 347.126 104.311 347.126 107.189 346.168C108.629 346.168 114.705 343.132 115.665 342.493L227.765 275.074C231.443 272.837 232.722 269.482 231.603 266.127C231.283 265.328 230.803 264.529 230.324 263.571C229.524 261.973 225.047 258.458 223.128 257.34L164.119 223.311C163.639 222.991 162.2 222.193 161.56 222.033C158.842 220.755 155.484 219.956 152.285 219.956C148.607 219.796 145.089 220.595 142.531 222.033Z" fill="black"/>
<path opacity="0.5455" d="M140.133 223.79L25.6344 292.488C22.1163 294.565 20.8369 297.76 21.9563 300.955C22.4361 302.074 23.2357 303.192 24.0352 304.31C24.6749 305.269 28.8327 308.304 30.112 309.103L85.4425 341.055C87.0417 342.014 94.0779 345.369 96.1568 345.369C99.3551 346.168 102.713 346.168 105.752 345.529C107.511 345.529 112.948 342.973 114.227 342.174L224.728 275.873C228.406 273.796 229.526 270.281 228.087 266.926C227.767 266.127 227.287 265.328 226.647 264.53C226.168 263.092 221.05 259.577 219.451 258.618L161.402 225.068C161.082 224.909 159.323 223.95 159.003 223.79C156.285 222.512 153.086 221.713 149.888 221.554C146.21 221.713 142.852 222.353 140.133 223.79Z" fill="black"/>
<path opacity="0.6364" d="M137.894 225.707L25.7935 292.807C22.2753 294.884 21.1559 298.079 22.5952 301.115C23.0749 302.233 23.7146 303.352 24.834 304.31C25.3137 305.269 29.7913 308.144 30.9107 308.783L84.9619 339.937C86.2412 340.736 93.5973 344.41 95.1965 344.41C98.2348 345.369 101.593 345.529 104.631 345.049C106.55 345.049 111.668 342.813 113.107 342.014L222.009 276.831C225.687 274.754 226.646 271.239 224.887 268.044C224.408 267.245 223.928 266.447 223.288 265.808C222.968 264.689 217.211 261.015 215.932 260.216L158.843 227.145C158.523 226.985 156.764 226.027 156.444 225.867C153.725 224.589 150.687 223.79 147.489 223.631C143.811 223.471 140.452 224.27 137.894 225.707Z" fill="black"/>
<path opacity="0.7273" d="M135.654 227.465L26.1119 293.127C22.5938 295.203 21.7942 298.239 23.2334 301.274C23.7132 302.233 24.5128 303.351 25.6322 304.15C25.952 304.789 30.9093 307.984 31.7089 308.304L84.3209 338.659C85.2804 339.298 92.9563 343.292 94.2356 343.292C97.1141 344.41 100.472 344.73 103.511 344.41C105.749 344.57 110.387 342.653 111.986 341.694L219.289 277.47C222.967 275.393 223.767 272.038 221.688 268.843C221.208 268.044 220.568 267.405 219.929 266.766C219.609 265.967 213.532 261.973 212.573 261.494L156.283 229.062C156.123 228.902 154.204 227.944 153.884 227.784C151.325 226.506 148.287 225.707 145.088 225.547C141.57 225.388 138.052 226.027 135.654 227.465Z" fill="black"/>
<path opacity="0.8182" d="M133.416 229.222L26.2735 293.286C22.7553 295.203 22.1157 298.399 23.8747 301.274C24.5144 302.233 25.314 303.192 26.4334 303.99C26.5933 304.47 31.8705 307.665 32.3502 307.984L83.6829 337.54C84.3225 337.86 92.4782 342.333 93.2777 342.333C96.1562 343.611 99.3545 344.091 102.553 343.771C105.111 343.931 109.109 342.493 110.868 341.375L216.572 278.269C220.25 276.192 220.73 272.837 218.491 269.801C218.011 269.162 217.372 268.523 216.572 267.884C216.412 267.405 209.696 263.251 209.056 262.932L153.726 230.979C153.566 230.82 151.647 229.701 151.487 229.701C148.928 228.423 145.89 227.624 142.851 227.465C139.173 227.305 135.815 227.944 133.416 229.222Z" fill="black"/>
<path opacity="0.9091" d="M131.019 231.14L26.275 293.606C22.9168 295.523 22.2772 298.559 24.1961 301.435C24.8358 302.393 25.7953 303.192 26.9147 303.991C27.0746 304.151 32.6716 307.506 32.8315 307.665L82.8848 336.422C83.2047 336.582 91.6802 341.375 92.1599 341.375C94.8785 342.653 98.0768 343.452 101.275 343.292C104.154 343.452 107.672 342.493 109.591 341.215L213.535 279.228C217.213 277.151 217.533 273.796 214.974 270.92C214.335 270.281 213.695 269.642 212.896 269.163C212.736 268.843 205.699 264.689 205.38 264.53L150.849 233.057L148.61 231.779C146.051 230.5 143.173 229.702 140.134 229.382C136.776 229.063 133.418 229.702 131.019 231.14Z" fill="black"/>
<path d="M108.312 341.055L210.658 280.186C215.135 277.63 214.495 273.157 209.378 270.281L146.052 233.536C140.935 230.66 133.259 230.341 128.781 232.897L26.4357 293.766C21.9581 296.322 22.5978 300.796 27.715 303.671L91.2012 340.257C96.1586 343.292 103.834 343.612 108.312 341.055Z" fill="black"/>
</g>
<path d="M155.658 62.8335L154.148 65.468L239.366 114.191L240.875 111.557L155.658 62.8335Z" fill="#C7BCD6"/>
<path d="M5.00173 169.312L3.5625 166.755L147.646 82.7207L232.56 131.128L230.961 133.844L147.646 86.2355L5.00173 169.312Z" fill="#C7BCD6"/>
<path d="M141.57 57.9575H138.531V101.892H141.57V57.9575Z" fill="url(#paint12_linear_656_28116)"/>
<path d="M5.96416 147.584H2.92578V204.139H5.96416V147.584Z" fill="url(#paint13_linear_656_28116)"/>
<path d="M17.3157 140.235H14.2773V197.27H17.3157V140.235Z" fill="url(#paint14_linear_656_28116)"/>
<path d="M28.6712 132.885H25.6328V190.559H28.6712V132.885Z" fill="url(#paint15_linear_656_28116)"/>
<path d="M39.8665 125.377H36.8281V183.69H39.8665V125.377Z" fill="url(#paint16_linear_656_28116)"/>
<path d="M51.222 118.028H48.1836V176.82H51.222V118.028Z" fill="url(#paint17_linear_656_28116)"/>
<path d="M62.5735 110.679H59.5352V170.11H62.5735V110.679Z" fill="url(#paint18_linear_656_28116)"/>
<path d="M73.929 103.33H70.8906V163.24H73.929V103.33Z" fill="url(#paint19_linear_656_28116)"/>
<path d="M85.2806 95.821H82.2422V156.371H85.2806V95.821Z" fill="url(#paint20_linear_656_28116)"/>
<path d="M96.6321 88.4722H93.5938V149.661H96.6321V88.4722Z" fill="url(#paint21_linear_656_28116)"/>
<path d="M107.992 81.123H104.953V142.791H107.992V81.123Z" fill="url(#paint22_linear_656_28116)"/>
<path d="M119.343 73.7739H116.305V136.081H119.343V73.7739Z" fill="url(#paint23_linear_656_28116)"/>
<path d="M130.695 66.2651H127.656V129.051H130.695V66.2651Z" fill="url(#paint24_linear_656_28116)"/>
<path d="M104.152 235.133C104.152 237.849 105.112 239.926 106.711 240.884L111.668 243.76C113.267 244.719 112.308 242.642 114.707 241.204C119.664 238.328 123.662 231.458 123.662 225.707C123.662 222.831 126.221 222.831 124.621 221.873L119.344 218.997C117.745 218.198 115.506 218.358 113.108 219.636C108.15 222.512 104.152 229.382 104.152 235.133Z" fill="url(#paint25_linear_656_28116)"/>
<path d="M109.27 238.168C109.27 243.92 113.267 246.156 118.225 243.28C123.182 240.405 127.18 233.535 127.18 227.784C127.18 222.032 123.182 219.796 118.225 222.671C113.427 225.387 109.27 232.417 109.27 238.168Z" fill="url(#paint26_linear_656_28116)"/>
<path d="M114.062 235.292C114.062 238.008 115.981 238.967 118.22 237.689C120.619 236.411 122.378 233.056 122.378 230.5C122.378 227.784 120.459 226.825 118.22 228.103C115.981 229.381 114.062 232.736 114.062 235.292Z" fill="url(#paint27_linear_656_28116)"/>
<path d="M117.908 222.352C120.307 220.914 122.386 220.755 124.145 221.553C122.706 221.074 120.787 221.394 118.708 222.672C113.751 225.547 109.753 232.417 109.753 238.169C109.753 241.204 110.872 243.121 112.631 244.08C110.392 243.441 108.953 241.204 108.953 237.849C108.953 232.257 112.951 225.228 117.908 222.352Z" fill="url(#paint28_radial_656_28116)"/>
<path d="M120.944 211.968V233.376L118.545 234.814L99.5156 224.429L120.944 211.968Z" fill="url(#paint29_linear_656_28116)"/>
<path d="M12.6797 288.334C12.6797 291.05 13.6392 293.126 15.2383 294.085L20.1957 296.961C21.7948 297.919 20.8353 295.842 23.2341 294.405C28.1914 291.529 32.1893 284.659 32.1893 278.908C32.1893 276.032 34.7479 276.032 33.1488 275.073L27.8716 272.198C26.2724 271.399 24.0336 271.559 21.6349 272.837C16.6776 275.553 12.6797 282.582 12.6797 288.334Z" fill="url(#paint30_linear_656_28116)"/>
<path d="M17.7969 291.21C17.7969 296.961 21.7947 299.198 26.7521 296.322C31.7095 293.446 35.7073 286.577 35.7073 280.825C35.7073 275.074 31.7095 272.837 26.7521 275.713C21.7947 278.588 17.7969 285.458 17.7969 291.21Z" fill="url(#paint31_linear_656_28116)"/>
<path d="M22.5938 288.493C22.5938 291.209 24.5127 292.168 26.7515 290.89C29.1503 289.612 30.9093 286.257 30.9093 283.701C30.9093 280.985 28.9903 280.026 26.7515 281.304C24.5127 282.582 22.5938 285.777 22.5938 288.493Z" fill="url(#paint32_linear_656_28116)"/>
<path d="M26.4323 275.552C28.8311 274.115 30.91 273.955 32.669 274.754C31.2298 274.274 29.3108 274.594 27.2319 275.872C22.2746 278.748 18.2767 285.617 18.2767 291.369C18.2767 294.404 19.3961 296.321 21.1552 297.28C18.9164 296.641 17.4771 294.404 17.4771 291.049C17.3172 285.298 21.475 278.428 26.4323 275.552Z" fill="url(#paint33_radial_656_28116)"/>
<path d="M29.4755 265.009V286.577L27.0767 288.014L8.04688 277.47L29.4755 265.009Z" fill="url(#paint34_linear_656_28116)"/>
<path d="M137.828 231.103L48.0586 283.771L49.5972 286.389L139.367 233.721L137.828 231.103Z" fill="#C7BCD6"/>
<path d="M166.863 247.547L76.6484 300.395L78.1853 303.013L168.4 250.165L166.863 247.547Z" fill="#C7BCD6"/>
<path d="M196.104 267.246L109.75 217.4L111.189 214.844L197.703 264.689L196.104 267.246Z" fill="url(#paint35_linear_656_28116)"/>
<path d="M184.909 273.956L98.5547 224.11L100.154 221.394L186.508 271.24L184.909 273.956Z" fill="url(#paint36_linear_656_28116)"/>
<path d="M173.713 280.506L87.3594 230.66L88.9585 228.104L175.312 277.95L173.713 280.506Z" fill="url(#paint37_linear_656_28116)"/>
<path d="M162.518 287.215L76.1641 237.37L77.7632 234.654L164.117 284.499L162.518 287.215Z" fill="url(#paint38_linear_656_28116)"/>
<path d="M151.327 293.926L64.9727 243.92L66.5718 241.364L152.926 291.21L151.327 293.926Z" fill="url(#paint39_linear_656_28116)"/>
<path d="M140.131 300.476L53.7773 250.63L55.3765 247.915L141.73 297.76L140.131 300.476Z" fill="url(#paint40_linear_656_28116)"/>
<path d="M128.94 307.186L42.5859 257.18L44.1851 254.624L130.539 304.47L128.94 307.186Z" fill="url(#paint41_linear_656_28116)"/>
<path d="M117.905 313.736L31.3906 263.891L32.9898 261.175L119.344 311.02L117.905 313.736Z" fill="url(#paint42_linear_656_28116)"/>
<path d="M106.709 320.446L20.1953 270.441L21.7945 267.885L108.148 317.73L106.709 320.446Z" fill="url(#paint43_linear_656_28116)"/>
<path d="M142.371 134.004L139.492 133.046L167.957 49.8098L170.835 50.7684L142.371 134.004Z" fill="url(#paint44_linear_656_28116)"/>
<path d="M151.964 139.436L149.086 138.478L177.551 55.2417L180.429 56.36L151.964 139.436Z" fill="url(#paint45_linear_656_28116)"/>
<path d="M161.718 145.028L158.84 144.069L187.145 60.8335L190.023 61.7921L161.718 145.028Z" fill="url(#paint46_linear_656_28116)"/>
<path d="M171.316 150.62L168.438 149.501L196.742 66.2654L199.781 67.3837L171.316 150.62Z" fill="url(#paint47_linear_656_28116)"/>
<path d="M180.91 156.051L178.031 155.093L206.496 71.8569L209.375 72.8155L180.91 156.051Z" fill="url(#paint48_linear_656_28116)"/>
<path d="M190.664 161.643L187.785 160.685L216.09 77.4487L218.969 78.4073L190.664 161.643Z" fill="url(#paint49_linear_656_28116)"/>
<path d="M200.257 167.075L197.379 166.116L225.684 82.8804L228.722 83.8389L200.257 167.075Z" fill="url(#paint50_linear_656_28116)"/>
<path d="M209.855 172.666L206.977 171.708L235.441 88.4719L238.32 89.4305L209.855 172.666Z" fill="url(#paint51_linear_656_28116)"/>
<path d="M204.26 93.7441L201.702 100.774L186.51 91.827L188.908 85.117L172.597 75.8508L156.766 120.904L204.26 148.223L220.252 102.851L204.26 93.7441Z" fill="url(#paint52_linear_656_28116)"/>
<path d="M98.875 338.499C98.875 341.215 99.8345 343.292 101.434 344.25L106.391 347.126C107.99 348.085 107.031 346.008 109.429 344.57C114.387 341.694 118.385 334.824 118.385 329.073C118.385 326.197 120.943 326.197 119.344 325.239L114.067 322.363C112.468 321.404 110.229 321.724 107.83 323.002C102.873 325.718 98.875 332.748 98.875 338.499Z" fill="url(#paint53_linear_656_28116)"/>
<path d="M103.992 341.375C103.992 347.126 107.99 349.363 112.947 346.487C117.905 343.611 121.903 336.742 121.903 330.99C121.903 325.239 117.905 323.002 112.947 325.878C108.15 328.753 103.992 335.623 103.992 341.375Z" fill="url(#paint54_linear_656_28116)"/>
<path d="M108.789 338.659C108.789 341.375 110.708 342.333 112.947 341.055C115.346 339.777 117.105 336.422 117.105 333.866C117.105 331.15 115.186 330.191 112.947 331.469C110.708 332.747 108.789 335.943 108.789 338.659Z" fill="url(#paint55_linear_656_28116)"/>
<path d="M112.627 325.718C115.026 324.28 117.105 324.12 118.864 324.919C117.425 324.44 115.506 324.759 113.427 326.037C108.469 328.913 104.471 335.783 104.471 341.534C104.471 344.57 105.591 346.487 107.35 347.445C105.111 346.806 103.672 344.57 103.672 341.215C103.672 335.463 107.67 328.593 112.627 325.718Z" fill="url(#paint56_radial_656_28116)"/>
<path d="M115.667 315.174V336.742L113.268 338.179L94.2383 327.635L115.667 315.174Z" fill="url(#paint57_linear_656_28116)"/>
<path d="M190.348 285.298C190.348 288.014 191.307 290.091 192.906 291.05L197.864 293.926C199.463 294.884 198.503 292.807 200.902 291.369C205.859 288.494 209.857 281.624 209.857 275.873C209.857 272.997 212.416 272.997 210.817 272.038L205.54 269.163C203.94 268.364 201.702 268.524 199.303 269.802C194.346 272.677 190.348 279.547 190.348 285.298Z" fill="url(#paint58_linear_656_28116)"/>
<path d="M195.465 288.334C195.465 294.086 199.463 296.322 204.42 293.446C209.377 290.571 213.375 283.701 213.375 277.95C213.375 272.198 209.377 269.962 204.42 272.837C199.623 275.553 195.465 282.583 195.465 288.334Z" fill="url(#paint59_linear_656_28116)"/>
<path d="M200.258 285.458C200.258 288.174 202.177 289.133 204.416 287.855C206.814 286.577 208.573 283.222 208.573 280.665C208.573 277.949 206.654 276.991 204.416 278.269C202.177 279.547 200.258 282.902 200.258 285.458Z" fill="url(#paint60_linear_656_28116)"/>
<path d="M204.104 272.517C206.502 271.079 208.581 270.92 210.34 271.718C208.901 271.239 206.982 271.559 204.903 272.837C199.946 275.713 195.948 282.582 195.948 288.334C195.948 291.369 197.067 293.286 198.826 294.245C196.588 293.606 195.148 291.369 195.148 288.014C195.148 282.423 199.146 275.393 204.104 272.517Z" fill="url(#paint61_radial_656_28116)"/>
<path d="M207.136 262.133V283.541L204.737 284.979L185.867 274.594L207.136 262.133Z" fill="url(#paint62_linear_656_28116)"/>
<path d="M82.5668 332.108C77.7693 332.108 72.9719 330.83 68.6542 328.434L9.00597 294.405C5.0081 292.168 2.60938 288.014 2.60938 283.541C2.60938 278.908 5.0081 274.914 8.84605 272.677L114.55 211.968C122.545 207.335 127.663 198.708 127.663 189.441V188.802C127.663 179.376 122.545 170.589 114.23 165.956L91.2022 153.335L94.2405 147.903L117.268 160.684C127.503 166.276 133.899 177.14 133.899 188.802V189.441C133.899 200.944 127.663 211.648 117.748 217.4L12.0443 277.949C9.96545 279.068 8.84605 281.145 8.84605 283.541C8.84605 285.937 10.1254 287.855 12.0443 289.133L71.6926 323.162C78.409 326.996 86.5646 326.996 93.2811 323.162L200.904 261.813C209.059 257.18 214.017 248.553 214.017 239.127C214.017 229.861 209.059 221.234 201.064 216.601L177.396 202.702L180.435 197.429L204.102 211.329C214.017 217.08 220.093 227.784 220.093 239.127C220.093 250.63 213.857 261.334 203.782 267.085L96.1595 328.434C92.1616 330.83 87.3642 332.108 82.5668 332.108Z" fill="#C7BCD6"/>
<path d="M94.2415 148.542L116.63 161.004C126.704 166.596 132.941 177.14 132.941 188.643V189.282C132.941 200.465 126.864 211.009 117.109 216.601L11.4057 277.31C9.16685 278.588 7.88753 280.825 7.88753 283.381C7.88753 285.937 9.16685 288.174 11.4057 289.452L71.2138 323.481C74.8918 325.558 79.2095 326.517 83.3673 326.357C86.7255 326.197 89.9238 325.399 92.9622 323.801C93.1221 323.641 95.0411 322.683 95.201 322.523L200.585 262.453C201.065 262.133 202.184 261.494 202.664 261.174C209.7 256.541 214.178 248.713 214.497 240.246C214.497 238.488 214.497 236.731 214.178 234.973C213.058 227.784 209.06 221.234 202.824 217.08C202.344 216.601 196.747 213.246 196.107 212.767L179.316 202.861L180.116 198.867L180.595 198.069L203.783 211.648C213.378 217.24 219.455 227.784 219.455 238.968C219.455 249.672 213.858 259.737 204.903 265.488C204.423 265.807 203.463 266.287 202.984 266.606L95.8407 327.635C91.8428 329.872 87.5251 331.15 83.0475 331.15C82.7276 331.15 82.4078 331.15 82.088 331.15C77.9302 331.15 73.9323 330.191 70.0944 328.274C69.6146 328.115 68.8151 327.635 68.3353 327.316L9.16685 293.606C5.96855 291.849 3.88966 288.653 3.40991 285.139C3.25 284.34 3.25 283.541 3.25 282.742C3.40991 279.867 4.52932 277.31 6.4483 275.393C7.24787 274.435 9.16685 272.997 10.2863 272.358L114.871 212.287C122.866 207.654 127.984 199.187 128.143 190.08C128.143 190.08 128.143 189.601 128.143 189.441C128.143 188.483 128.143 187.365 127.984 186.406C127.984 186.246 127.984 185.927 127.984 185.767C127.184 177.779 122.706 170.59 115.83 166.116C115.35 165.637 110.073 162.761 109.593 162.442L93.1221 153.335L93.9217 149.341L94.2415 148.542Z" fill="#CDC5D9"/>
<path d="M94.4019 149.181L116.15 161.323C126.065 166.755 132.142 177.14 132.142 188.323V188.962C132.142 199.986 126.225 210.21 116.63 215.802L10.9264 276.511C8.52767 277.949 7.08844 280.346 7.08844 283.221C7.08844 285.937 8.52767 288.494 10.9264 289.931L70.5746 323.961C74.2526 326.038 78.4104 327.156 82.7281 326.996C86.0863 326.836 89.2846 326.038 92.323 324.6C92.8027 324.44 94.242 323.641 94.7217 323.322L200.106 263.251C200.425 263.091 201.865 262.293 202.184 261.973C209.381 257.5 214.018 249.831 214.658 241.524C214.818 239.766 214.818 238.009 214.658 236.251C213.858 228.902 210.18 222.192 204.423 217.719C203.464 216.761 198.986 213.885 197.867 213.246L181.076 203.341L180.116 199.666L180.596 198.867L203.144 212.127C212.579 217.719 218.496 227.944 218.496 238.808C218.496 249.512 212.899 259.417 203.784 265.009C203.464 265.168 202.184 265.967 201.865 266.127L95.2015 326.996C91.3635 329.233 86.8859 330.351 82.5682 330.511C82.2484 330.511 81.9286 330.511 81.6087 330.511C77.4509 330.511 73.4531 329.393 69.775 327.475C69.4552 327.316 68.3358 326.677 68.016 326.517L9.16733 292.967C5.96903 291.209 3.89014 288.014 3.57031 284.499C3.57031 283.701 3.57031 282.902 3.57031 282.103C3.89014 279.387 5.16946 276.831 7.24835 275.074C7.7281 274.435 10.4466 272.677 11.0863 272.358L114.711 212.767C122.707 208.133 127.824 199.826 128.304 190.719C128.304 190.56 128.304 190.24 128.304 190.08C128.304 189.122 128.304 188.003 128.304 187.045C128.304 186.885 128.304 186.566 128.304 186.406C127.664 178.418 123.666 171.069 117.11 166.436C116.31 165.637 112.152 163.24 111.033 162.601L94.5618 153.495L93.6023 149.98L94.4019 149.181Z" fill="#D3CEDB"/>
<path d="M94.3987 149.98L115.667 161.803C125.262 167.075 131.339 177.3 131.339 188.323V188.962C131.339 199.826 125.582 209.731 116.147 215.163L10.4435 275.713C7.88483 277.151 6.28568 279.867 6.28568 282.902C6.28568 285.938 7.88483 288.654 10.4435 290.091L70.0917 324.121C73.7697 326.198 77.9275 327.316 82.2452 327.156C85.6034 327.156 88.8017 326.357 91.8401 324.919C92.4797 324.6 93.5991 323.961 94.2388 323.641L199.783 263.411C199.942 263.251 201.702 262.293 201.861 262.133C209.058 257.82 214.015 250.311 215.134 242.003C215.294 240.246 215.454 238.488 215.294 236.731C214.974 229.382 211.616 222.512 206.179 217.56C204.74 216.122 201.542 213.885 199.783 212.927L182.992 203.021L180.273 199.826L180.753 199.027L202.821 211.808C212.096 217.24 217.853 227.145 217.853 237.849C217.853 248.553 212.256 258.459 202.981 263.891C202.821 264.05 201.222 264.849 201.062 265.009L94.8785 326.198C91.0405 328.434 86.7228 329.553 82.2452 329.553C81.9254 329.553 81.6055 329.553 81.2857 329.553C77.1279 329.393 73.1301 328.434 69.6119 326.357C69.452 326.357 68.1727 325.559 68.0128 325.399L9.32406 292.009C6.12577 290.251 4.20679 287.056 4.04688 283.381C4.04688 282.583 4.04687 281.784 4.20679 280.985C4.68653 278.269 6.12577 275.873 8.36457 274.435C8.6844 274.115 11.8827 272.038 12.3624 271.879L115.028 212.927C122.864 208.453 128.141 200.305 128.94 191.199C128.94 191.039 128.94 190.72 128.94 190.56C128.94 189.601 129.1 188.643 128.94 187.524C128.94 187.524 128.94 187.045 128.94 186.885C128.62 178.897 124.942 171.389 118.866 166.436C117.586 165.158 114.548 163.241 112.949 162.442L96.7974 153.815L94.0789 150.779L94.3987 149.98Z" fill="#D9D7DE"/>
<path d="M81.7623 328.753C77.2847 328.753 72.967 327.635 69.129 325.398L9.4808 291.369C6.2825 289.612 4.52344 286.417 4.52344 282.742C4.52344 279.068 6.44241 275.872 9.4808 274.115L115.184 213.406C124.14 208.293 129.577 198.707 129.577 188.483V187.844C129.577 177.459 123.98 167.873 114.705 162.761L94.0757 151.258L94.5555 150.459L115.184 161.962C124.619 167.234 130.536 177.14 130.536 187.844V188.483C130.536 199.027 124.779 208.932 115.664 214.204L9.96054 274.914C7.08207 276.511 5.48293 279.547 5.48293 282.742C5.48293 285.937 7.24199 288.973 9.96054 290.57L69.6087 324.6C73.2868 326.677 77.4446 327.795 81.7623 327.795C86.08 327.795 90.2378 326.677 93.9158 324.6L201.538 263.251C210.494 258.139 215.931 248.553 215.931 238.328C215.931 228.104 210.494 218.678 201.698 213.565L180.27 201.104L180.75 200.305L202.178 212.767C211.293 218.039 216.89 227.784 216.89 238.328C216.89 248.873 211.133 258.778 202.018 264.05L94.3955 325.398C90.5576 327.635 86.2399 328.753 81.7623 328.753Z" fill="#DFE0E0"/>
<path d="M94.2677 147.78L91.1562 153.18L177.364 202.757L180.476 197.357L94.2677 147.78Z" fill="#C7BCD6"/>
<path d="M131.489 126.635L129.969 129.263L216.364 179.148L217.885 176.52L131.489 126.635Z" fill="#C7BCD6"/>
<path d="M120.372 133.164L118.852 135.792L205.247 185.678L206.767 183.05L120.372 133.164Z" fill="#C7BCD6"/>
<path d="M109.126 139.604L107.605 142.232L194.001 192.118L195.521 189.49L109.126 139.604Z" fill="#C7BCD6"/>
<path d="M98.0087 146.131L96.4883 148.759L182.884 198.645L184.404 196.016L98.0087 146.131Z" fill="#C7BCD6"/>
<path d="M86.7626 152.574L85.2422 155.202L171.638 205.088L173.158 202.46L86.7626 152.574Z" fill="#C7BCD6"/>
<path d="M160.44 211.488L74.0859 161.643L75.6851 158.927L162.039 208.772L160.44 211.488Z" fill="#C7BCD6"/>
<path d="M149.408 218.039L62.8945 168.033L64.4937 165.477L150.848 215.323L149.408 218.039Z" fill="#C7BCD6"/>
<path d="M53.3563 171.928L51.8359 174.556L138.231 224.441L139.752 221.813L53.3563 171.928Z" fill="#C7BCD6"/>
<path d="M42.1063 178.374L40.5859 181.002L126.981 230.887L128.502 228.259L42.1063 178.374Z" fill="#C7BCD6"/>
<path d="M30.9892 184.898L29.4688 187.526L115.864 237.411L117.385 234.783L30.9892 184.898Z" fill="#C7BCD6"/>
<path d="M19.7392 191.343L18.2188 193.971L104.614 243.856L106.135 241.228L19.7392 191.343Z" fill="#C7BCD6"/>
<path d="M8.62587 197.867L7.10547 200.496L93.5009 250.381L95.0213 247.753L8.62587 197.867Z" fill="#C7BCD6"/>
<path d="M70.2533 250.63C69.7736 250.63 69.1339 250.47 68.6542 250.151L9.00597 216.121C5.0081 213.885 2.60938 209.731 2.60938 205.258C2.60938 200.625 5.0081 196.63 8.84605 194.394L128.142 125.856L163.484 23.7684C165.722 17.3779 170.2 11.7863 175.957 8.27149L186.351 1.88103C187.791 0.922459 189.71 1.40174 190.669 2.8396C191.629 4.27745 191.149 6.19459 189.71 7.15316L179.315 13.5436C174.678 16.4193 171.16 20.7329 169.4 25.8453L133.26 130.01L12.0443 199.666C9.96546 200.784 8.84605 202.861 8.84605 205.258C8.84605 207.654 10.1254 209.731 12.0443 210.849L71.6926 244.878C73.1318 245.677 73.6115 247.594 72.812 249.032C72.3322 250.151 71.2128 250.63 70.2533 250.63Z" fill="#C7BCD6"/>
<path d="M190.03 3.15895C190.19 3.31872 190.19 3.63824 190.19 3.798C190.51 4.75657 189.231 6.35419 188.271 6.99323L181.075 11.4666C180.755 11.6263 178.197 13.2239 177.877 13.5435C173.879 16.2594 170.681 20.0937 168.921 24.567C168.762 24.8865 168.442 25.6853 168.442 26.0049L132.621 129.371L11.5653 199.027C9.48643 200.145 8.20712 202.222 8.0472 204.459C8.0472 205.417 8.0472 206.216 8.36703 207.015C8.84678 208.293 9.48643 209.411 10.6058 210.21C10.7658 210.53 14.6037 212.926 14.9235 213.086L70.254 244.719C71.2135 245.358 72.6528 247.115 72.173 248.233C72.173 248.393 72.173 248.393 72.173 248.553C72.173 248.713 72.0131 248.713 72.0131 248.872C71.8532 249.032 71.6933 249.192 71.6933 249.192C71.6933 249.192 71.5334 249.192 71.5334 249.352C71.0536 249.671 70.254 249.671 69.7743 249.671C69.4545 249.671 68.6549 249.352 68.3351 249.192L9.1666 215.482C5.48856 213.405 3.24976 209.411 3.08984 205.098C3.08984 200.784 5.32865 196.95 9.00669 194.713L127.983 126.495L129.263 124.098L163.644 25.0463C164.124 23.7682 165.083 21.212 165.723 20.0937C167.962 15.7801 171.32 11.9458 175.478 9.2299C175.798 9.07013 178.516 7.31276 178.836 7.153L185.872 2.83943C186.832 2.20039 188.751 1.88086 189.55 2.67967C189.55 2.67967 189.71 2.67967 189.71 2.83943C189.87 2.83943 189.87 2.99919 190.03 3.15895Z" fill="#CDC5D9"/>
<path d="M189.231 3.31896C189.391 3.47872 189.391 3.79825 189.391 3.95801C189.551 4.59705 187.632 6.35443 186.993 6.83372L179.796 11.1473C179.317 11.4668 177.078 12.7449 176.758 13.2242C172.92 15.9401 169.882 19.9342 168.123 24.4075C167.963 24.727 167.643 25.5258 167.643 25.8454L131.822 128.732L10.9264 198.228C8.8475 199.346 7.56818 201.423 7.24835 203.66C7.08844 204.619 7.08844 205.417 7.24835 206.216C7.56818 207.494 8.20784 208.772 9.00741 209.731C9.32724 210.53 12.3656 212.447 13.1652 212.926L68.6556 244.559C69.2953 244.879 71.5341 246.955 71.2143 247.594C71.2143 247.754 71.2143 247.754 71.2143 247.914C71.2143 248.074 71.2143 248.074 71.0543 248.234C70.8944 248.393 70.7345 248.553 70.7345 248.553H70.5746C70.2548 248.713 69.1354 248.393 68.8155 248.393C68.4957 248.393 67.6961 247.914 67.3763 247.754L9.16733 214.684C5.6492 212.607 3.57031 209.092 3.57031 204.938C3.57031 200.784 5.6492 197.27 9.16733 195.193L127.664 127.134L129.263 125.057L163.485 26.3246C163.805 25.5258 165.084 22.1708 165.404 21.372C167.483 16.8987 170.681 13.0644 174.679 10.1887C175.159 9.70943 177.398 8.43133 177.877 8.11181L184.914 3.79825C185.553 3.47872 187.952 2.52015 188.432 2.99944H188.592C189.071 2.99944 189.231 2.99944 189.231 3.31896Z" fill="#D3CEDB"/>
<path d="M188.589 3.31908C188.748 3.47884 188.748 3.79837 188.589 3.95813C188.748 4.27765 186.03 6.19479 185.71 6.35455L178.674 10.6681C177.874 11.1474 176.275 12.2657 175.635 12.745C171.957 15.6207 168.919 19.6148 167.32 24.0881C167.32 24.2479 166.84 25.3662 166.84 25.5259L131.179 128.093L10.4435 197.429C8.36457 198.548 7.08526 200.465 6.60551 202.702C6.4456 203.5 6.28568 204.459 6.4456 205.418C6.60551 206.855 7.08526 207.974 7.72492 209.092C8.36457 210.21 10.4435 211.968 11.5629 212.607L67.2132 244.399C67.533 244.559 70.5714 246.636 70.4115 246.956C70.5714 247.115 70.5714 247.115 70.5714 247.275C70.5714 247.435 70.5714 247.435 70.4115 247.595C70.2516 247.754 70.0917 247.914 70.0917 247.914H69.9318C69.7718 248.074 68.3326 247.435 68.1727 247.435C68.0128 247.435 66.8934 246.796 66.8934 246.796L9.32406 213.885C5.96585 211.968 4.04688 208.613 4.04688 204.778C4.04688 200.944 5.96585 197.429 9.32406 195.512L127.501 127.614L129.58 125.856L163.642 27.6028C163.802 27.1236 165.241 22.9698 165.561 22.6502C167.32 18.0171 170.358 14.1829 174.356 11.1474C175.156 10.5084 176.755 9.39002 177.554 8.91074L184.591 4.59717C184.91 4.43741 187.789 2.8398 188.109 3.15932H188.269C188.269 3.15932 188.429 3.15932 188.589 3.31908Z" fill="#D9D7DE"/>
<path d="M69.4488 247.275H69.2889L9.4808 213.086C6.2825 211.328 4.52344 208.133 4.52344 204.459C4.52344 200.784 6.44241 197.589 9.4808 195.832L129.577 126.815L165.238 23.7683C167.317 17.8572 171.315 12.9045 176.592 9.70931L186.986 3.31885C186.986 3.31885 187.146 3.31885 187.306 3.31885C187.306 3.31885 187.626 3.31885 187.626 3.47861C187.786 3.63837 187.626 3.95789 187.466 4.11766L177.071 10.5081C171.954 13.7034 168.116 18.4962 166.037 24.0879L130.376 127.454L9.96054 196.63C7.08207 198.228 5.48293 201.264 5.48293 204.459C5.48293 207.654 7.24199 210.689 9.96054 212.287L69.6087 246.476C69.7687 246.476 69.7687 246.636 69.7687 246.796C69.7687 246.955 69.7687 246.955 69.7687 247.115C69.7687 247.275 69.4488 247.275 69.4488 247.275Z" fill="#DFE0E0"/>
<path d="M8.36295 159.406C4.68491 157.329 2.4461 153.495 2.4461 149.341C2.28619 145.188 4.36508 141.353 7.88321 139.117L84.0026 90.0698L160.122 41.0229L246.156 91.1881C247.595 91.9869 248.395 93.4248 248.395 95.0224C248.395 96.62 247.595 98.2176 246.316 99.0164L242.958 93.904C242.478 94.2236 242.318 94.7029 242.318 95.1821C242.318 95.6614 242.638 96.1407 243.118 96.4602L160.122 48.0525L85.6018 96.1407L11.2414 144.229C9.48235 145.347 8.52286 147.105 8.68278 149.182C8.68278 151.258 9.80218 153.016 11.5612 153.974L8.36295 159.406Z" fill="#C7BCD6"/>
<path d="M159.961 41.5024L243.437 90.07C244.556 90.709 245.996 92.3066 246.155 93.5847C246.155 94.5433 246.475 95.8214 245.836 96.4604L245.676 96.6202C245.516 96.78 245.196 97.0995 244.876 97.2593L241.038 92.6262C240.718 92.7859 240.239 93.1054 240.239 93.425C240.239 93.7445 240.079 94.064 240.558 94.2238L164.919 50.1296L158.682 48.3722L87.2002 94.2238L84.9614 95.6616L11.2407 143.271C10.9209 143.59 10.1213 144.069 9.80147 144.389C8.84198 145.347 8.36224 146.626 8.20232 147.904C8.04241 149.501 8.52215 150.939 9.48164 152.217C9.64156 152.377 9.80147 152.697 10.1213 152.856C10.1213 153.336 8.36224 157.01 8.68207 157.33L8.20232 158.128C6.28335 156.85 4.6842 154.933 4.04454 152.697C3.56479 151.099 3.24497 149.501 3.40488 147.904C3.56479 146.306 4.04454 144.708 4.84411 143.43C5.48377 141.833 8.20232 139.436 9.64156 138.478L81.923 91.8274L84.8015 89.9102L159.961 41.5024Z" fill="#CDC5D9"/>
<path d="M159.962 41.9814L240.719 88.9514C241.359 89.4306 243.597 91.188 243.757 91.9868C243.757 92.6259 244.877 93.904 244.397 94.3833L244.237 94.543C244.077 94.7028 243.757 94.8625 243.597 95.1821L239.44 91.188C239.28 91.3478 238.48 91.188 238.48 91.5075C238.48 91.8271 238 91.6673 238.32 91.8271L163.48 48.2121H157.403L86.4011 93.7442L84.1623 95.1821L11.2412 142.312C10.9214 142.472 9.96189 143.111 9.80197 143.43C8.84249 144.229 8.20283 145.347 7.883 146.625C7.56317 148.063 7.72308 149.661 8.36274 150.939C8.52266 151.258 8.68257 151.418 8.84249 151.738C9.0024 152.536 8.04291 155.572 8.52266 156.211L8.04291 157.01C6.12393 155.572 4.84462 153.655 4.36487 151.418C4.04504 149.821 4.04504 148.223 4.36487 146.625C4.6847 145.028 5.32436 143.75 6.44376 142.472C6.92351 141.353 10.6015 138.637 11.561 137.838L83.0429 91.8271L85.9214 89.9099L159.962 41.9814Z" fill="#D3CEDB"/>
<path d="M160.122 42.6206L238.161 87.9929C238.481 88.1527 241.519 90.2296 241.519 90.5491C241.519 90.8686 243.438 92.3065 243.118 92.4662L242.958 92.626C242.798 92.7858 242.478 92.9455 242.319 93.1053L237.521 89.7503C237.361 89.7503 236.402 89.4308 236.402 89.5905C236.402 89.7503 235.602 89.271 235.602 89.4308L161.562 46.2951L155.485 48.2123L85.6021 93.265L83.3633 94.7029L11.2417 141.353C11.0818 141.513 9.9624 142.312 9.80248 142.312C8.84299 143.111 8.04342 144.069 7.56368 145.347C6.92402 146.785 6.92402 148.223 7.24385 149.821C7.24385 150.14 7.40376 150.46 7.56368 150.619C7.72359 151.898 7.56367 154.134 8.36325 155.093L7.88351 155.892C6.12444 154.294 5.00504 152.217 4.84512 149.98C4.68521 148.383 4.84512 146.785 5.32487 145.347C5.80461 143.909 6.7641 142.631 7.88351 141.513C8.04342 141.034 12.8409 137.679 13.3206 137.359L83.843 91.8272L86.7215 90.0698L160.122 42.6206Z" fill="#D9D7DE"/>
<path d="M7.56179 154.613C5.96264 153.016 5.00315 150.779 5.00315 148.383C4.84324 145.187 6.44238 142.152 9.16094 140.395L84.6407 91.6672L160.12 42.9399L241.677 90.3891L241.517 90.5489C241.357 90.7087 241.037 90.8684 240.877 91.0282L160.12 44.218L84.9605 92.7856L9.80059 141.353C7.40187 142.951 5.96264 145.667 5.96264 148.542C5.96264 150.619 6.76221 152.377 8.04153 153.814L7.56179 154.613Z" fill="#DFE0E0"/>
<path d="M229.843 105.886H226.805V149.821H229.843V105.886Z" fill="url(#paint63_linear_656_28116)"/>
<path d="M157.181 119.025L155.672 121.66L204.942 149.836L206.452 147.201L157.181 119.025Z" fill="#C7BCD6"/>
<path d="M181.395 8.43146C181.395 9.70955 181.874 10.6681 182.674 11.1474L272.546 61.3126C273.346 61.7918 272.866 60.6735 273.985 60.0345C276.384 58.5966 278.303 55.2416 278.303 52.5257C278.303 51.0878 279.582 51.0878 278.783 50.7683L188.751 0.60314C187.951 0.123856 186.832 0.283617 185.712 0.922664C183.314 2.20076 181.395 5.71551 181.395 8.43146Z" fill="url(#paint64_linear_656_28116)"/>
<path d="M271.266 58.5963C271.266 61.3123 273.185 62.4306 275.583 61.1525C277.982 59.7147 279.901 56.3597 279.901 53.6437C279.901 50.9278 277.982 49.8095 275.583 51.0876C273.185 52.3656 271.266 55.8804 271.266 58.5963Z" fill="url(#paint65_linear_656_28116)"/>
<path d="M275.425 50.928C276.544 50.289 277.664 50.1292 278.463 50.6085C277.664 50.4487 276.864 50.6085 275.905 51.0878C273.506 52.5256 271.587 55.8806 271.587 58.5966C271.587 60.0344 272.067 60.993 273.026 61.4723C271.907 61.1528 271.267 60.0344 271.267 58.4368C271.107 55.7209 273.026 52.3659 275.425 50.928Z" fill="url(#paint66_radial_656_28116)"/>
<path d="M264.545 64.5079C263.426 64.5079 262.466 64.0286 261.827 62.9103C261.027 61.4724 261.507 59.5553 262.946 58.7565L274.14 52.366C275.579 51.5672 277.498 52.0465 278.298 53.4843C279.097 54.9222 278.618 56.8393 277.178 57.6382L265.984 64.0286C265.505 64.3481 265.025 64.5079 264.545 64.5079Z" fill="#C7BCD6"/>
<path d="M200.582 10.9876C199.303 13.2243 214.655 24.7271 234.964 36.3897C255.273 48.2121 272.864 55.8806 274.143 53.644C275.422 51.4073 260.071 39.9045 239.761 28.0821C219.452 16.4195 202.022 8.75095 200.582 10.9876Z" fill="url(#paint67_radial_656_28116)"/>
<path d="M94.7136 31.4373L104.309 28.5616L106.228 23.4492L115.503 144.229L93.9141 125.856L94.7136 31.4373Z" fill="url(#paint68_linear_656_28116)"/>
<path d="M184.432 187.365L109.432 147.264L106.074 23.4492L179.635 65.9458L184.432 187.365Z" fill="url(#paint69_linear_656_28116)"/>
<path d="M164.922 167.075L165.402 200.625L185.871 187.524L164.922 167.075Z" fill="url(#paint70_linear_656_28116)"/>
<path d="M168.121 73.7741L170.679 67.8629L179.635 65.9458L185.871 187.524L165.242 167.554L168.121 73.7741Z" fill="url(#paint71_linear_656_28116)"/>
<path d="M165.401 200.625L92 158.288L94.7186 31.4373L168.119 73.7741L165.401 200.625Z" fill="url(#paint72_linear_656_28116)"/>
<path d="M118.386 57.3187C118.386 59.076 117.267 59.7151 115.668 58.7565C114.229 57.9577 112.949 55.8808 112.949 54.1234C112.949 52.3661 114.069 51.727 115.668 52.5258C117.267 53.4844 118.386 55.5613 118.386 57.3187Z" fill="#C7BCD6"/>
<path d="M145.093 72.3364C145.093 74.0938 143.974 74.7328 142.375 73.934C140.936 73.1352 139.656 71.0583 139.656 69.3009C139.656 67.5435 140.936 66.9045 142.375 67.7033C143.974 68.6619 145.093 70.7388 145.093 72.3364Z" fill="#C7BCD6"/>
<path d="M116.947 57.7979C115.508 56.9991 114.229 54.9222 114.229 53.1648C114.229 52.8453 114.229 52.5257 114.389 52.366C113.589 52.366 113.109 53.1648 113.109 54.2831C113.109 56.0405 114.229 57.9576 115.828 58.9162C117.107 59.5552 118.067 59.2357 118.387 58.2771C117.907 58.1174 117.427 57.9576 116.947 57.7979Z" fill="#C7BCD6"/>
<path d="M143.654 72.8157C142.215 72.0169 140.936 69.94 140.936 68.1826C140.936 67.8631 140.936 67.5436 141.096 67.3838C140.296 67.3838 139.816 68.1826 139.816 69.3009C139.816 71.0583 141.096 72.9754 142.535 73.934C143.814 74.5731 144.774 74.2535 145.094 73.295C144.614 73.295 144.134 73.1352 143.654 72.8157Z" fill="#C7BCD6"/>
<path d="M132.458 102.851C130.219 102.851 128.14 102.212 126.221 100.934C119.185 96.3005 115.027 88.6319 115.027 80.1645V59.3955C115.027 58.7565 115.667 58.1174 116.307 58.1174C116.946 58.1174 117.586 58.7565 117.586 59.3955V80.3243C117.586 87.8331 121.424 94.7028 127.661 98.8566C130.379 100.614 133.897 100.774 136.776 99.1762C139.654 97.5786 141.413 94.7028 141.413 91.3479V74.2534C141.413 73.6143 142.053 72.9753 142.693 72.9753C143.332 72.9753 143.972 73.6143 143.972 74.2534V91.5076C143.972 95.8212 141.733 99.4957 137.895 101.573C136.136 102.531 134.377 102.851 132.458 102.851Z" fill="#C7BCD6"/>
<path d="M131.978 99.0165C129.739 99.0165 127.66 98.3774 125.741 97.0993C118.705 92.4662 114.547 84.7977 114.547 76.3303V55.5613C114.547 54.9222 115.187 54.2832 115.826 54.2832C116.466 54.2832 117.106 54.9222 117.106 55.5613V76.4901C117.106 83.9989 120.943 90.8686 127.18 95.0224C129.899 96.7798 133.417 96.9396 136.295 95.3419C139.174 93.7443 140.933 90.8686 140.933 87.5136V70.4191C140.933 69.7801 141.572 69.141 142.212 69.141C143.012 69.141 143.491 69.7801 143.491 70.4191V87.6734C143.491 91.9869 141.253 95.6615 137.415 97.7384C135.656 98.5372 133.897 99.0165 131.978 99.0165Z" fill="#C7BCD6"/>
<path d="M62.7293 81.7621L74.8828 77.6083L79.5203 72.0166L85.4372 164.359L61.9297 148.702L62.7293 81.7621Z" fill="url(#paint73_linear_656_28116)"/>
<path d="M154.364 204.139L85.4403 164.359L79.5234 72.0166L148.287 111.637L154.364 204.139Z" fill="url(#paint74_linear_656_28116)"/>
<path d="M128.617 187.364L128.937 218.837L154.204 204.139L128.617 187.364Z" fill="url(#paint75_linear_656_28116)"/>
<path d="M131.496 121.543L137.253 114.513L148.287 111.638L154.364 204.14L128.938 187.844L131.496 121.543Z" fill="url(#paint76_linear_656_28116)"/>
<path d="M128.939 218.837L60.0156 179.217L62.5743 81.762L131.498 121.543L128.939 218.837Z" fill="url(#paint77_linear_656_28116)"/>
<path d="M129.1 199.826L60.8162 160.524L60.6562 164.359L129.58 204.139L129.1 199.826Z" fill="#F1F2F2"/>
<path d="M88.1602 111.797C88.1602 113.395 87.0408 114.034 85.6016 113.235C84.1624 112.436 83.043 110.519 83.043 108.921C83.043 107.324 84.1624 106.685 85.6016 107.484C87.0408 108.282 88.1602 110.199 88.1602 111.797Z" fill="#C7BCD6"/>
<path d="M113.106 125.856C113.106 127.454 111.986 128.093 110.547 127.294C109.108 126.495 107.988 124.578 107.988 122.981C107.988 121.383 109.108 120.744 110.547 121.543C111.986 122.342 113.106 124.259 113.106 125.856Z" fill="#C7BCD6"/>
<path d="M86.8812 112.117C85.4419 111.318 84.3225 109.401 84.3225 107.803C84.3225 107.484 84.3225 107.324 84.4824 107.004C83.6829 107.004 83.2031 107.643 83.2031 108.762C83.2031 110.359 84.3225 112.277 85.7618 113.075C86.8812 113.714 87.8407 113.395 88.1605 112.436C87.6807 112.596 87.201 112.436 86.8812 112.117Z" fill="#C7BCD6"/>
<path d="M111.826 126.336C110.387 125.537 109.268 123.62 109.268 122.022C109.268 121.703 109.268 121.543 109.428 121.223C108.628 121.223 108.148 121.862 108.148 122.981C108.148 124.578 109.268 126.496 110.707 127.294C111.826 127.933 112.786 127.614 113.106 126.655C112.626 126.655 112.306 126.655 111.826 126.336Z" fill="#C7BCD6"/>
<path d="M101.276 154.454C99.197 154.454 97.278 153.815 95.3591 152.696C88.8026 148.383 84.8047 141.194 84.8047 133.206V113.715C84.8047 113.076 85.2844 112.437 86.084 112.437C86.7237 112.437 87.3633 112.916 87.3633 113.715V133.365C87.3633 140.395 90.8814 146.945 96.7983 150.779C99.3569 152.537 102.555 152.537 105.274 151.099C107.992 149.661 109.591 146.945 109.591 143.75V127.614C109.591 126.975 110.071 126.336 110.871 126.336C111.67 126.336 112.15 126.815 112.15 127.614V143.75C112.15 147.744 110.071 151.259 106.553 153.176C104.794 154.134 103.035 154.454 101.276 154.454Z" fill="#C7BCD6"/>
<path d="M100.792 150.939C98.7126 150.939 96.7937 150.3 94.8747 149.181C88.3182 144.868 84.3203 137.679 84.3203 129.69V110.04C84.3203 109.401 84.8001 108.762 85.5996 108.762C86.2393 108.762 86.8789 109.241 86.8789 110.04V129.69C86.8789 136.72 90.3971 143.27 96.3139 147.105C98.8726 148.862 102.071 148.862 104.789 147.424C107.508 145.986 109.107 143.27 109.107 140.075V123.939C109.107 123.3 109.587 122.661 110.386 122.661C111.026 122.661 111.666 123.14 111.666 123.939V140.075C111.666 144.069 109.587 147.584 106.069 149.501C104.31 150.46 102.551 150.939 100.792 150.939Z" fill="#C7BCD6"/>
<path d="M230.434 134.931L84.8711 220.149L86.4073 222.768L231.97 137.55L230.434 134.931Z" fill="#C7BCD6"/>
<path d="M86.8821 195.672H83.8438V252.227H86.8821V195.672Z" fill="url(#paint78_linear_656_28116)"/>
<path d="M98.8743 245.518H95.8359V189.921L98.8743 188.323V245.518Z" fill="url(#paint79_linear_656_28116)"/>
<path d="M110.71 180.974H107.672V238.648H110.71V180.974Z" fill="url(#paint80_linear_656_28116)"/>
<path d="M122.702 173.785H119.664V232.098H122.702V173.785Z" fill="url(#paint81_linear_656_28116)"/>
<path d="M134.538 166.436H131.5V225.228H134.538V166.436Z" fill="url(#paint82_linear_656_28116)"/>
<path d="M146.531 159.087H143.492V218.518H146.531V159.087Z" fill="url(#paint83_linear_656_28116)"/>
<path d="M158.363 151.897H155.324V211.808H158.363V151.897Z" fill="url(#paint84_linear_656_28116)"/>
<path d="M170.355 144.548H167.316V205.098H170.355V144.548Z" fill="url(#paint85_linear_656_28116)"/>
<path d="M182.191 137.199H179.152V198.388H182.191V137.199Z" fill="url(#paint86_linear_656_28116)"/>
<path d="M194.183 130.01H191.145V191.678H194.183V130.01Z" fill="url(#paint87_linear_656_28116)"/>
<path d="M206.019 122.661H202.98V184.968H206.019V122.661Z" fill="url(#paint88_linear_656_28116)"/>
<path d="M218.015 115.312H214.977V178.098H218.015V115.312Z" fill="url(#paint89_linear_656_28116)"/>
<path d="M11.0813 157.809H8.04297V213.246H11.0813V157.809Z" fill="url(#paint90_linear_656_28116)"/>
<path d="M20.5189 163.081H17.4805V218.518H20.5189V163.081Z" fill="url(#paint91_linear_656_28116)"/>
<path d="M29.7884 168.193H26.75V223.63H29.7884V168.193Z" fill="url(#paint92_linear_656_28116)"/>
<path d="M39.0657 173.465H36.0273V228.903H39.0657V173.465Z" fill="url(#paint93_linear_656_28116)"/>
<path d="M48.3431 178.737H45.3047V234.175H48.3431V178.737Z" fill="url(#paint94_linear_656_28116)"/>
<path d="M57.7728 183.85H54.7344V239.287H57.7728V183.85Z" fill="url(#paint95_linear_656_28116)"/>
<path d="M67.0501 189.122H64.0117V244.559H67.0501V189.122Z" fill="url(#paint96_linear_656_28116)"/>
<path d="M76.3274 194.394H73.2891V249.832H76.3274V194.394Z" fill="url(#paint97_linear_656_28116)"/>
<path d="M83.685 198.548C79.0475 198.548 74.41 197.43 70.2522 195.033L8.36518 159.406C4.68714 157.329 2.44834 153.495 2.44834 149.341C2.28842 145.188 8.5251 147.105 8.68501 149.182C8.68501 151.258 9.80441 153.016 11.5635 153.974L73.4505 189.601C80.1669 193.436 88.3226 193.276 94.8791 189.122L242.96 93.7443C242.48 94.0638 246.158 91.0283 246.158 91.0283C247.598 91.8271 248.397 93.265 248.397 94.8626C248.397 96.4602 247.598 98.0578 246.318 98.8566L98.2373 194.234C93.7597 197.11 88.6424 198.548 83.685 198.548Z" fill="#C7BCD6"/>
<path d="M83.6868 197.749C79.2092 197.749 74.7315 196.631 70.5738 194.234L8.68674 158.608C5.32853 156.69 3.24964 153.176 3.08972 149.182C2.92981 145.507 7.88717 147.105 7.88717 149.022C7.88717 151.259 9.16649 153.336 11.0855 154.294L72.9725 189.921C78.8893 193.276 86.0855 193.436 92.0023 190.24C93.1217 190.24 205.222 118.348 206.181 117.709C205.862 117.868 243.442 93.2651 243.442 93.2651C244.561 93.9042 245.201 95.0225 245.361 96.3006C245.361 97.5787 244.881 98.697 243.761 99.3361L97.7593 193.595C93.4416 196.311 88.4842 197.749 83.6868 197.749Z" fill="#D2CADD"/>
<path d="M83.525 196.95C79.0473 196.95 74.7296 195.832 70.7318 193.595L8.84475 157.969C5.64646 156.051 3.72748 152.856 3.56757 149.022C3.40765 145.827 7.08569 146.945 7.08569 148.862C7.08569 151.259 8.52493 153.495 10.6038 154.773L72.4908 190.4C77.6081 193.276 83.6849 193.755 88.9621 191.678C91.2009 191.678 167.48 143.27 169.239 142.152C169.079 142.312 240.561 95.8213 240.561 95.8213C241.361 96.3006 241.841 97.0994 242 98.058C242 98.8568 241.681 99.6556 241.041 100.135L97.1177 192.797C93.1198 195.672 88.3224 196.95 83.525 196.95Z" fill="#DCD7E4"/>
<path d="M83.5248 196.152C79.2071 196.152 74.8894 195.033 71.2113 192.797L9.16439 157.17C6.12601 155.412 4.36695 152.377 4.20703 148.862C4.20703 145.986 6.44584 146.785 6.44584 148.862C6.44584 151.578 7.88507 153.974 10.2838 155.253L72.1708 190.879C76.4885 193.436 81.6058 194.075 86.2433 193.116C89.6015 193.116 129.9 168.353 132.779 166.436C132.619 166.436 238.162 98.3774 238.162 98.3774C238.642 98.697 239.122 99.1762 239.282 99.6555C239.282 100.135 239.282 100.454 238.802 100.774L96.9576 192.158C92.9597 194.873 88.3222 196.152 83.5248 196.152Z" fill="#E7E5EB"/>
<path d="M83.5257 195.352C79.3679 195.352 75.2102 194.234 71.5321 192.157L9.48518 156.53C6.60672 154.933 5.00757 152.057 4.84766 148.702C4.84766 146.306 5.64723 146.625 5.80714 148.702C5.80714 151.578 7.40629 154.294 9.96493 155.732L71.8519 191.358C75.3701 193.435 79.3679 194.394 83.5257 194.394C88.0033 194.394 92.321 193.116 96.159 190.719L235.445 100.933C235.605 101.093 235.924 101.253 236.084 101.413L236.244 101.572L96.6387 191.518C92.6409 194.074 88.1633 195.352 83.5257 195.352Z" fill="#F1F2F2"/>
<path d="M82.5615 253.985C77.764 253.985 72.9666 252.707 68.6489 250.311L9.00068 216.122C7.56145 215.323 7.0817 213.406 7.88128 211.968C8.68085 210.53 10.5998 210.051 12.0391 210.849L71.6873 244.879C78.4037 248.713 86.5593 248.713 93.2758 244.879L214.651 175.702L249.832 74.5727C252.231 67.8627 256.869 62.2711 262.945 58.5966L274.139 52.2061C275.579 51.4073 277.498 51.8866 278.297 53.3244C279.097 54.7623 278.617 56.6794 277.178 57.4782L265.984 63.8687C261.186 66.7444 257.348 71.058 255.589 76.4899L237.679 128.093L219.768 179.696L96.4741 249.991C92.1564 252.707 87.3589 253.985 82.5615 253.985Z" fill="#C7BCD6"/>
<path d="M277.817 53.6439C277.977 53.8037 277.977 54.1232 277.977 54.2829C278.297 55.2415 277.017 56.8391 276.058 57.3184L268.062 61.9515C267.742 62.1112 265.184 63.5491 265.024 63.8686C260.706 66.5846 257.188 70.5786 255.429 75.3715C255.269 75.691 255.109 76.1703 254.949 76.4898L237.199 127.773L219.288 179.217L96.1538 249.352C92.156 251.589 87.8383 252.867 83.3607 252.867C83.0408 252.867 82.721 252.867 82.4012 252.867C78.2434 252.867 74.2455 251.908 70.4076 249.991C69.9278 249.831 69.1282 249.352 68.6485 249.032L9.32012 215.482C9.1602 215.323 9.00029 215.163 8.84037 215.003C8.20071 214.204 7.88088 213.086 8.52054 212.127L8.68046 211.968C9.32012 211.009 11.7188 211.169 12.6783 211.808L71.3671 245.358C75.0451 247.435 79.3628 248.393 83.5206 248.234C87.0387 248.074 90.5568 247.115 93.5952 245.358L214.491 176.341L215.77 173.944L233.681 122.341L249.832 75.8507C250.312 74.5727 251.271 72.0165 251.911 70.8981C254.31 66.2651 257.828 62.4308 262.305 59.5551C262.625 59.3953 265.344 57.7977 265.664 57.6379L273.499 53.1646C274.459 52.6853 276.538 52.3658 277.177 53.0048C277.177 53.0048 277.337 53.0048 277.337 53.1646C277.497 53.3244 277.657 53.4841 277.817 53.6439Z" fill="#CDC5D9"/>
<path d="M277.177 53.8037C277.337 53.9634 277.337 54.283 277.177 54.4427C277.337 55.0818 275.418 56.8391 274.779 57.1587L266.783 61.632C266.303 61.9515 264.224 63.2296 263.745 63.5491C259.427 66.4248 256.229 70.4189 254.47 75.2117C254.47 75.3715 254.15 76.1703 253.99 76.3301L236.239 127.134L218.329 178.577L95.3544 248.713C91.5164 250.95 87.0388 252.068 82.7211 252.228C82.4013 252.228 82.0815 252.228 81.7616 252.228C77.6039 252.228 73.606 251.109 69.928 249.192C69.6081 249.032 68.4887 248.393 68.1689 248.234L9.32026 214.684C9.16035 214.524 9.00043 214.364 9.00043 214.204C8.52069 213.565 8.52069 212.766 9.00043 212.287H9.16035C9.64009 211.648 12.3586 212.447 13.1582 212.926L70.8874 245.837C74.5655 247.914 78.8832 249.032 83.041 248.873C86.719 248.713 90.557 247.754 93.7552 245.837L214.171 177.14L215.93 175.063L233.841 123.619L249.992 77.2886C250.312 76.4898 251.591 73.1348 252.071 72.336C254.15 67.5432 257.668 63.5491 261.986 60.6734C262.465 60.3539 264.704 58.916 265.344 58.5965L273.18 54.1232C273.819 53.8037 276.378 52.8451 276.858 53.3244H277.018C277.018 53.4842 277.177 53.4842 277.177 53.8037Z" fill="#D3CEDB"/>
<path d="M276.694 53.804C276.854 53.9637 276.854 54.2833 276.694 54.443C276.854 54.7625 274.136 56.6797 273.816 56.8394L265.98 61.3128C265.18 61.792 263.741 62.7506 262.942 63.2299C258.784 66.1056 255.745 70.2594 253.986 75.0523C253.986 75.212 253.667 76.0108 253.667 76.1706L236.076 126.655L218.325 177.939L95.3509 247.914C91.5129 250.151 87.1952 251.269 82.7176 251.269C82.3978 251.269 82.0779 251.269 81.7581 251.269C77.6003 251.11 73.6025 250.151 70.0843 248.074C69.9244 248.074 68.6451 247.275 68.4852 247.116L9.95638 213.885C9.79647 213.725 9.63655 213.566 9.63655 213.246C9.47664 212.767 9.63655 212.447 9.79647 212.128H9.95638C10.1163 211.808 13.4745 213.406 13.9542 213.566L70.724 245.997C74.402 248.074 78.5598 249.192 82.8775 249.033C86.8754 249.033 90.8733 247.914 94.2315 245.997L214.327 177.459L216.406 175.702L234.157 124.578L250.308 78.567C250.468 78.0877 251.907 73.9339 252.227 73.6144C254.146 68.8216 257.345 64.6678 261.502 61.6323C262.302 60.9932 263.901 60.0347 264.701 59.5554L272.377 55.0821C272.696 54.9223 275.735 53.4844 275.895 53.6442H276.055C276.374 53.6442 276.534 53.6442 276.694 53.804Z" fill="#D9D7DE"/>
<path d="M82.5623 250.47C78.0847 250.47 73.767 249.352 69.9291 247.115L10.2808 213.086C10.1209 212.926 9.96101 212.607 10.1209 212.447C10.2808 212.287 10.4408 212.287 10.6007 212.287H10.7606L70.4088 246.316C74.0868 248.393 78.2446 249.512 82.5623 249.512C86.88 249.512 91.0378 248.393 94.7158 246.316L216.891 176.66L234.641 125.696L252.392 74.7325C254.471 68.6615 258.788 63.5492 264.385 60.1942L275.579 53.8037H275.739C275.739 53.8037 276.059 53.8037 276.219 53.9635C276.379 54.1232 276.219 54.4428 276.059 54.6025L264.865 60.993C259.428 64.0285 255.27 69.1408 253.191 75.052L235.441 126.176L217.69 177.299L95.1956 247.115C91.1977 249.352 86.88 250.47 82.5623 250.47Z" fill="#DFE0E0"/>
<path d="M83.6839 200.145C80.0059 200.145 76.3279 199.347 72.9697 198.069C71.0507 197.27 70.411 195.033 71.3705 193.435L72.8097 191.039C73.6093 189.601 75.3684 189.122 76.8076 189.761C79.0464 190.56 81.4451 191.039 83.6839 191.039C86.4025 191.039 89.121 190.4 91.6797 189.282C93.1189 188.643 94.878 189.122 95.6776 190.56L97.1168 192.796C98.2362 194.554 97.5965 196.79 95.6776 197.589C91.9995 199.187 87.8417 200.145 83.6839 200.145Z" fill="url(#paint98_radial_656_28116)"/>
<path d="M83.5243 195.513C80.1661 195.513 76.9678 194.873 73.9294 193.595L73.7695 193.436C73.7695 193.276 73.7695 193.276 73.7695 193.276L75.2088 190.879H75.5286C78.0872 191.838 80.8058 192.477 83.5243 192.477C86.7226 192.477 89.761 191.838 92.7994 190.4C92.7994 190.4 92.9593 190.4 92.9593 190.56L94.3985 192.797C94.3985 192.797 94.3985 192.797 94.3985 192.956C94.3985 192.956 94.3985 193.116 94.2386 193.116C90.8804 194.714 87.2024 195.513 83.5243 195.513Z" fill="url(#paint99_radial_656_28116)"/>
<path d="M95.6792 195.832C91.8412 197.589 87.8434 198.548 83.6856 198.548C80.0076 198.548 76.3295 197.749 72.9713 196.471C72.0118 195.992 71.2122 195.193 71.0523 194.234C70.5726 195.832 71.3722 197.429 72.9713 198.069C76.3295 199.506 80.0076 200.145 83.6856 200.145C87.8434 200.145 92.0012 199.187 95.6792 197.429C97.1184 196.79 97.918 195.033 97.4383 193.595C97.2784 194.554 96.6387 195.353 95.6792 195.832Z" fill="#BE31B6"/>
<path d="M9.1636 157.968C8.36403 159.406 6.28513 159.886 5.00582 158.608C2.44718 156.211 1.00795 153.016 0.848033 149.341C0.688118 145.827 2.12735 142.472 4.36616 139.915C5.48556 138.637 7.72437 138.957 8.52394 140.395L10.7627 143.75C11.4024 144.708 11.2425 145.827 10.6028 146.785C10.1231 147.424 9.96317 148.223 9.96317 149.182C9.96317 149.98 10.283 150.779 10.7627 151.418C11.4024 152.377 11.5623 153.495 11.0826 154.454L9.1636 157.968Z" fill="url(#paint100_radial_656_28116)"/>
<path d="M8.20427 155.732C6.2853 154.134 4.84606 152.057 4.52623 149.501C4.04649 146.945 4.52623 144.548 5.80555 142.312L8.04436 144.708C7.24479 146.146 7.24479 147.584 7.4047 148.862C7.72453 150.3 8.36419 151.578 9.32368 152.537L8.20427 155.732Z" fill="url(#paint101_radial_656_28116)"/>
<path d="M5.96493 157.329C3.40629 154.933 1.96706 151.578 1.96706 148.063C1.96706 145.347 2.60672 142.791 3.88604 140.714C1.80714 143.11 0.847656 146.146 0.847656 149.341C1.00757 152.856 2.4468 156.211 4.84553 158.607C6.12484 159.885 8.20374 159.406 9.00331 157.968L9.32314 157.329C8.52357 158.128 6.92442 158.288 5.96493 157.329Z" fill="#BE31B6"/>
<path d="M61.7767 187.684C60.8172 189.921 66.0944 194.234 73.6104 197.43C81.1264 200.465 87.8428 201.104 88.8023 198.868C89.7618 196.631 84.4846 192.317 76.9686 189.122C69.6125 186.087 62.7362 185.448 61.7767 187.684Z" fill="url(#paint102_radial_656_28116)"/>
</g>
<defs>
<linearGradient id="paint0_linear_656_28116" x1="102.993" y1="362.333" x2="114.164" y2="342.966" gradientUnits="userSpaceOnUse">
<stop stop-color="#1E1F21"/>
<stop offset="0.0762293" stop-color="#2C2E30"/>
<stop offset="0.2233" stop-color="#515359"/>
<stop offset="0.2677" stop-color="#5D6066"/>
<stop offset="0.6061" stop-color="#37383C"/>
</linearGradient>
<linearGradient id="paint1_linear_656_28116" x1="122.054" y1="354.065" x2="104.044" y2="354.065" gradientUnits="userSpaceOnUse">
<stop stop-color="#484B4F"/>
<stop offset="1" stop-color="#1E1F21"/>
</linearGradient>
<linearGradient id="paint2_linear_656_28116" x1="117.249" y1="355.763" x2="108.851" y2="355.763" gradientUnits="userSpaceOnUse">
<stop stop-color="#D4D1D8"/>
<stop offset="0.8549" stop-color="#A5A6B9"/>
<stop offset="1" stop-color="#9D9EB3"/>
</linearGradient>
<radialGradient id="paint3_radial_656_28116" cx="0" cy="0" r="1" gradientUnits="userSpaceOnUse" gradientTransform="translate(111.191 354) rotate(180) scale(8.0725 8.06477)">
<stop stop-color="white"/>
<stop offset="1"/>
</radialGradient>
<linearGradient id="paint4_linear_656_28116" x1="193.966" y1="307.649" x2="205.136" y2="288.283" gradientUnits="userSpaceOnUse">
<stop stop-color="#1E1F21"/>
<stop offset="0.0762293" stop-color="#2C2E30"/>
<stop offset="0.2233" stop-color="#515359"/>
<stop offset="0.2677" stop-color="#5D6066"/>
<stop offset="0.6061" stop-color="#37383C"/>
</linearGradient>
<linearGradient id="paint5_linear_656_28116" x1="213.028" y1="299.381" x2="195.015" y2="299.381" gradientUnits="userSpaceOnUse">
<stop stop-color="#484B4F"/>
<stop offset="1" stop-color="#1E1F21"/>
</linearGradient>
<linearGradient id="paint6_linear_656_28116" x1="208.22" y1="301.079" x2="199.82" y2="301.079" gradientUnits="userSpaceOnUse">
<stop stop-color="#D4D1D8"/>
<stop offset="0.8549" stop-color="#A5A6B9"/>
<stop offset="1" stop-color="#9D9EB3"/>
</linearGradient>
<radialGradient id="paint7_radial_656_28116" cx="0" cy="0" r="1" gradientUnits="userSpaceOnUse" gradientTransform="translate(202.164 299.317) rotate(180) scale(8.0733 8.06556)">
<stop stop-color="white"/>
<stop offset="1"/>
</radialGradient>
<linearGradient id="paint8_linear_656_28116" x1="14.3366" y1="312.014" x2="25.508" y2="292.646" gradientUnits="userSpaceOnUse">
<stop stop-color="#1E1F21"/>
<stop offset="0.0762293" stop-color="#2C2E30"/>
<stop offset="0.2233" stop-color="#515359"/>
<stop offset="0.2677" stop-color="#5D6066"/>
<stop offset="0.6061" stop-color="#37383C"/>
</linearGradient>
<linearGradient id="paint9_linear_656_28116" x1="33.4006" y1="303.745" x2="15.3852" y2="303.745" gradientUnits="userSpaceOnUse">
<stop stop-color="#484B4F"/>
<stop offset="1" stop-color="#1E1F21"/>
</linearGradient>
<linearGradient id="paint10_linear_656_28116" x1="28.5852" y1="305.443" x2="20.1865" y2="305.443" gradientUnits="userSpaceOnUse">
<stop stop-color="#D4D1D8"/>
<stop offset="0.8549" stop-color="#A5A6B9"/>
<stop offset="1" stop-color="#9D9EB3"/>
</linearGradient>
<radialGradient id="paint11_radial_656_28116" cx="0" cy="0" r="1" gradientUnits="userSpaceOnUse" gradientTransform="translate(22.5343 303.681) rotate(180) scale(8.0733 8.06557)">
<stop stop-color="white"/>
<stop offset="1"/>
</radialGradient>
<linearGradient id="paint12_linear_656_28116" x1="138.594" y1="79.935" x2="141.68" y2="79.935" gradientUnits="userSpaceOnUse">
<stop offset="0.0252525" stop-color="#C7BCD6"/>
<stop offset="0.297" stop-color="#E2E2E6"/>
<stop offset="0.3333" stop-color="#E6E7E8"/>
<stop offset="0.4267" stop-color="#DCDAE2"/>
<stop offset="0.5911" stop-color="#D0C9DB"/>
<stop offset="0.7722" stop-color="#C9BFD7"/>
<stop offset="1" stop-color="#C7BCD6"/>
</linearGradient>
<linearGradient id="paint13_linear_656_28116" x1="2.85958" y1="175.845" x2="5.94385" y2="175.845" gradientUnits="userSpaceOnUse">
<stop offset="0.0252525" stop-color="#C7BCD6"/>
<stop offset="0.297" stop-color="#E2E2E6"/>
<stop offset="0.3333" stop-color="#E6E7E8"/>
<stop offset="0.4267" stop-color="#DCDAE2"/>
<stop offset="0.5911" stop-color="#D0C9DB"/>
<stop offset="0.7722" stop-color="#C9BFD7"/>
<stop offset="1" stop-color="#C7BCD6"/>
</linearGradient>
<linearGradient id="paint14_linear_656_28116" x1="14.2027" y1="168.748" x2="17.2885" y2="168.748" gradientUnits="userSpaceOnUse">
<stop offset="0.0252525" stop-color="#C7BCD6"/>
<stop offset="0.297" stop-color="#E2E2E6"/>
<stop offset="0.3333" stop-color="#E6E7E8"/>
<stop offset="0.4267" stop-color="#DCDAE2"/>
<stop offset="0.5911" stop-color="#D0C9DB"/>
<stop offset="0.7722" stop-color="#C9BFD7"/>
<stop offset="1" stop-color="#C7BCD6"/>
</linearGradient>
<linearGradient id="paint15_linear_656_28116" x1="25.5559" y1="161.649" x2="28.6402" y2="161.649" gradientUnits="userSpaceOnUse">
<stop offset="0.0252525" stop-color="#C7BCD6"/>
<stop offset="0.297" stop-color="#E2E2E6"/>
<stop offset="0.3333" stop-color="#E6E7E8"/>
<stop offset="0.4267" stop-color="#DCDAE2"/>
<stop offset="0.5911" stop-color="#D0C9DB"/>
<stop offset="0.7722" stop-color="#C9BFD7"/>
<stop offset="1" stop-color="#C7BCD6"/>
</linearGradient>
<linearGradient id="paint16_linear_656_28116" x1="36.9042" y1="154.55" x2="39.9901" y2="154.55" gradientUnits="userSpaceOnUse">
<stop offset="0.0252525" stop-color="#C7BCD6"/>
<stop offset="0.297" stop-color="#E2E2E6"/>
<stop offset="0.3333" stop-color="#E6E7E8"/>
<stop offset="0.4267" stop-color="#DCDAE2"/>
<stop offset="0.5911" stop-color="#D0C9DB"/>
<stop offset="0.7722" stop-color="#C9BFD7"/>
<stop offset="1" stop-color="#C7BCD6"/>
</linearGradient>
<linearGradient id="paint17_linear_656_28116" x1="48.2528" y1="147.453" x2="51.3387" y2="147.453" gradientUnits="userSpaceOnUse">
<stop offset="0.0252525" stop-color="#C7BCD6"/>
<stop offset="0.297" stop-color="#E2E2E6"/>
<stop offset="0.3333" stop-color="#E6E7E8"/>
<stop offset="0.4267" stop-color="#DCDAE2"/>
<stop offset="0.5911" stop-color="#D0C9DB"/>
<stop offset="0.7722" stop-color="#C9BFD7"/>
<stop offset="1" stop-color="#C7BCD6"/>
</linearGradient>
<linearGradient id="paint18_linear_656_28116" x1="59.6007" y1="140.355" x2="62.6834" y2="140.355" gradientUnits="userSpaceOnUse">
<stop offset="0.0252525" stop-color="#C7BCD6"/>
<stop offset="0.297" stop-color="#E2E2E6"/>
<stop offset="0.3333" stop-color="#E6E7E8"/>
<stop offset="0.4267" stop-color="#DCDAE2"/>
<stop offset="0.5911" stop-color="#D0C9DB"/>
<stop offset="0.7722" stop-color="#C9BFD7"/>
<stop offset="1" stop-color="#C7BCD6"/>
</linearGradient>
<linearGradient id="paint19_linear_656_28116" x1="70.9509" y1="133.255" x2="74.0352" y2="133.255" gradientUnits="userSpaceOnUse">
<stop offset="0.0252525" stop-color="#C7BCD6"/>
<stop offset="0.297" stop-color="#E2E2E6"/>
<stop offset="0.3333" stop-color="#E6E7E8"/>
<stop offset="0.4267" stop-color="#DCDAE2"/>
<stop offset="0.5911" stop-color="#D0C9DB"/>
<stop offset="0.7722" stop-color="#C9BFD7"/>
<stop offset="1" stop-color="#C7BCD6"/>
</linearGradient>
<linearGradient id="paint20_linear_656_28116" x1="82.297" y1="126.158" x2="85.3799" y2="126.158" gradientUnits="userSpaceOnUse">
<stop offset="0.0252525" stop-color="#C7BCD6"/>
<stop offset="0.297" stop-color="#E2E2E6"/>
<stop offset="0.3333" stop-color="#E6E7E8"/>
<stop offset="0.4267" stop-color="#DCDAE2"/>
<stop offset="0.5911" stop-color="#D0C9DB"/>
<stop offset="0.7722" stop-color="#C9BFD7"/>
<stop offset="1" stop-color="#C7BCD6"/>
</linearGradient>
<linearGradient id="paint21_linear_656_28116" x1="93.6433" y1="119.06" x2="96.7262" y2="119.06" gradientUnits="userSpaceOnUse">
<stop offset="0.0252525" stop-color="#C7BCD6"/>
<stop offset="0.297" stop-color="#E2E2E6"/>
<stop offset="0.3333" stop-color="#E6E7E8"/>
<stop offset="0.4267" stop-color="#DCDAE2"/>
<stop offset="0.5911" stop-color="#D0C9DB"/>
<stop offset="0.7722" stop-color="#C9BFD7"/>
<stop offset="1" stop-color="#C7BCD6"/>
</linearGradient>
<linearGradient id="paint22_linear_656_28116" x1="104.997" y1="111.961" x2="108.083" y2="111.961" gradientUnits="userSpaceOnUse">
<stop offset="0.0252525" stop-color="#C7BCD6"/>
<stop offset="0.297" stop-color="#E2E2E6"/>
<stop offset="0.3333" stop-color="#E6E7E8"/>
<stop offset="0.4267" stop-color="#DCDAE2"/>
<stop offset="0.5911" stop-color="#D0C9DB"/>
<stop offset="0.7722" stop-color="#C9BFD7"/>
<stop offset="1" stop-color="#C7BCD6"/>
</linearGradient>
<linearGradient id="paint23_linear_656_28116" x1="116.344" y1="104.864" x2="119.428" y2="104.864" gradientUnits="userSpaceOnUse">
<stop offset="0.0252525" stop-color="#C7BCD6"/>
<stop offset="0.297" stop-color="#E2E2E6"/>
<stop offset="0.3333" stop-color="#E6E7E8"/>
<stop offset="0.4267" stop-color="#DCDAE2"/>
<stop offset="0.5911" stop-color="#D0C9DB"/>
<stop offset="0.7722" stop-color="#C9BFD7"/>
<stop offset="1" stop-color="#C7BCD6"/>
</linearGradient>
<linearGradient id="paint24_linear_656_28116" x1="127.69" y1="97.7655" x2="130.774" y2="97.7655" gradientUnits="userSpaceOnUse">
<stop offset="0.0252525" stop-color="#C7BCD6"/>
<stop offset="0.297" stop-color="#E2E2E6"/>
<stop offset="0.3333" stop-color="#E6E7E8"/>
<stop offset="0.4267" stop-color="#DCDAE2"/>
<stop offset="0.5911" stop-color="#D0C9DB"/>
<stop offset="0.7722" stop-color="#C9BFD7"/>
<stop offset="1" stop-color="#C7BCD6"/>
</linearGradient>
<linearGradient id="paint25_linear_656_28116" x1="107.481" y1="241.498" x2="120.381" y2="219.131" gradientUnits="userSpaceOnUse">
<stop stop-color="#1E1F21"/>
<stop offset="0.0762293" stop-color="#2C2E30"/>
<stop offset="0.2233" stop-color="#515359"/>
<stop offset="0.2677" stop-color="#5D6066"/>
<stop offset="0.6061" stop-color="#37383C"/>
</linearGradient>
<linearGradient id="paint26_linear_656_28116" x1="127.336" y1="232.906" x2="109.325" y2="232.906" gradientUnits="userSpaceOnUse">
<stop stop-color="#484B4F"/>
<stop offset="1" stop-color="#1E1F21"/>
</linearGradient>
<linearGradient id="paint27_linear_656_28116" x1="122.523" y1="232.906" x2="114.123" y2="232.906" gradientUnits="userSpaceOnUse">
<stop stop-color="#D4D1D8"/>
<stop offset="0.8549" stop-color="#A5A6B9"/>
<stop offset="1" stop-color="#9D9EB3"/>
</linearGradient>
<radialGradient id="paint28_radial_656_28116" cx="0" cy="0" r="1" gradientUnits="userSpaceOnUse" gradientTransform="translate(116.48 232.602) rotate(180) scale(9.72842 9.7191)">
<stop stop-color="white"/>
<stop offset="1"/>
</radialGradient>
<linearGradient id="paint29_linear_656_28116" x1="99.5874" y1="223.392" x2="120.907" y2="223.392" gradientUnits="userSpaceOnUse">
<stop offset="0.0252525" stop-color="#B82CB4"/>
<stop offset="1" stop-color="#D644BF"/>
</linearGradient>
<linearGradient id="paint30_linear_656_28116" x1="15.9843" y1="294.624" x2="28.8859" y2="272.256" gradientUnits="userSpaceOnUse">
<stop stop-color="#1E1F21"/>
<stop offset="0.0762293" stop-color="#2C2E30"/>
<stop offset="0.2233" stop-color="#515359"/>
<stop offset="0.2677" stop-color="#5D6066"/>
<stop offset="0.6061" stop-color="#37383C"/>
</linearGradient>
<linearGradient id="paint31_linear_656_28116" x1="35.8362" y1="286.032" x2="17.8287" y2="286.032" gradientUnits="userSpaceOnUse">
<stop stop-color="#484B4F"/>
<stop offset="1" stop-color="#1E1F21"/>
</linearGradient>
<linearGradient id="paint32_linear_656_28116" x1="31.032" y1="286.031" x2="22.6318" y2="286.031" gradientUnits="userSpaceOnUse">
<stop stop-color="#D4D1D8"/>
<stop offset="0.8549" stop-color="#A5A6B9"/>
<stop offset="1" stop-color="#9D9EB3"/>
</linearGradient>
<radialGradient id="paint33_radial_656_28116" cx="0" cy="0" r="1" gradientUnits="userSpaceOnUse" gradientTransform="translate(24.9765 285.728) rotate(180) scale(9.7289 9.71957)">
<stop stop-color="white"/>
<stop offset="1"/>
</radialGradient>
<linearGradient id="paint34_linear_656_28116" x1="8.09341" y1="276.519" x2="29.4132" y2="276.519" gradientUnits="userSpaceOnUse">
<stop offset="0.0252525" stop-color="#B82CB4"/>
<stop offset="1" stop-color="#D644BF"/>
</linearGradient>
<linearGradient id="paint35_linear_656_28116" x1="154.438" y1="239.749" x2="153.045" y2="242.164" gradientUnits="userSpaceOnUse">
<stop offset="0.0252525" stop-color="#C7BCD6"/>
<stop offset="0.297" stop-color="#E2E2E6"/>
<stop offset="0.3333" stop-color="#E6E7E8"/>
<stop offset="0.4267" stop-color="#DCDAE2"/>
<stop offset="0.5911" stop-color="#D0C9DB"/>
<stop offset="0.7722" stop-color="#C9BFD7"/>
<stop offset="1" stop-color="#C7BCD6"/>
</linearGradient>
<linearGradient id="paint36_linear_656_28116" x1="143.288" y1="246.32" x2="141.726" y2="249.027" gradientUnits="userSpaceOnUse">
<stop offset="0.0252525" stop-color="#C7BCD6"/>
<stop offset="0.297" stop-color="#E2E2E6"/>
<stop offset="0.3333" stop-color="#E6E7E8"/>
<stop offset="0.4267" stop-color="#DCDAE2"/>
<stop offset="0.5911" stop-color="#D0C9DB"/>
<stop offset="0.7722" stop-color="#C9BFD7"/>
<stop offset="1" stop-color="#C7BCD6"/>
</linearGradient>
<linearGradient id="paint37_linear_656_28116" x1="132.102" y1="252.95" x2="130.539" y2="255.66" gradientUnits="userSpaceOnUse">
<stop offset="0.0252525" stop-color="#C7BCD6"/>
<stop offset="0.297" stop-color="#E2E2E6"/>
<stop offset="0.3333" stop-color="#E6E7E8"/>
<stop offset="0.4267" stop-color="#DCDAE2"/>
<stop offset="0.5911" stop-color="#D0C9DB"/>
<stop offset="0.7722" stop-color="#C9BFD7"/>
<stop offset="1" stop-color="#C7BCD6"/>
</linearGradient>
<linearGradient id="paint38_linear_656_28116" x1="120.916" y1="259.585" x2="119.356" y2="262.291" gradientUnits="userSpaceOnUse">
<stop offset="0.0252525" stop-color="#C7BCD6"/>
<stop offset="0.297" stop-color="#E2E2E6"/>
<stop offset="0.3333" stop-color="#E6E7E8"/>
<stop offset="0.4267" stop-color="#DCDAE2"/>
<stop offset="0.5911" stop-color="#D0C9DB"/>
<stop offset="0.7722" stop-color="#C9BFD7"/>
<stop offset="1" stop-color="#C7BCD6"/>
</linearGradient>
<linearGradient id="paint39_linear_656_28116" x1="109.733" y1="266.218" x2="108.171" y2="268.926" gradientUnits="userSpaceOnUse">
<stop offset="0.0252525" stop-color="#C7BCD6"/>
<stop offset="0.297" stop-color="#E2E2E6"/>
<stop offset="0.3333" stop-color="#E6E7E8"/>
<stop offset="0.4267" stop-color="#DCDAE2"/>
<stop offset="0.5911" stop-color="#D0C9DB"/>
<stop offset="0.7722" stop-color="#C9BFD7"/>
<stop offset="1" stop-color="#C7BCD6"/>
</linearGradient>
<linearGradient id="paint40_linear_656_28116" x1="98.5464" y1="272.85" x2="96.9838" y2="275.56" gradientUnits="userSpaceOnUse">
<stop offset="0.0252525" stop-color="#C7BCD6"/>
<stop offset="0.297" stop-color="#E2E2E6"/>
<stop offset="0.3333" stop-color="#E6E7E8"/>
<stop offset="0.4267" stop-color="#DCDAE2"/>
<stop offset="0.5911" stop-color="#D0C9DB"/>
<stop offset="0.7722" stop-color="#C9BFD7"/>
<stop offset="1" stop-color="#C7BCD6"/>
</linearGradient>
<linearGradient id="paint41_linear_656_28116" x1="87.3661" y1="279.483" x2="85.8045" y2="282.191" gradientUnits="userSpaceOnUse">
<stop offset="0.0252525" stop-color="#C7BCD6"/>
<stop offset="0.297" stop-color="#E2E2E6"/>
<stop offset="0.3333" stop-color="#E6E7E8"/>
<stop offset="0.4267" stop-color="#DCDAE2"/>
<stop offset="0.5911" stop-color="#D0C9DB"/>
<stop offset="0.7722" stop-color="#C9BFD7"/>
<stop offset="1" stop-color="#C7BCD6"/>
</linearGradient>
<linearGradient id="paint42_linear_656_28116" x1="76.1788" y1="286.116" x2="74.6182" y2="288.822" gradientUnits="userSpaceOnUse">
<stop offset="0.0252525" stop-color="#C7BCD6"/>
<stop offset="0.297" stop-color="#E2E2E6"/>
<stop offset="0.3333" stop-color="#E6E7E8"/>
<stop offset="0.4267" stop-color="#DCDAE2"/>
<stop offset="0.5911" stop-color="#D0C9DB"/>
<stop offset="0.7722" stop-color="#C9BFD7"/>
<stop offset="1" stop-color="#C7BCD6"/>
</linearGradient>
<linearGradient id="paint43_linear_656_28116" x1="64.9922" y1="292.75" x2="63.4313" y2="295.456" gradientUnits="userSpaceOnUse">
<stop offset="0.0252525" stop-color="#C7BCD6"/>
<stop offset="0.297" stop-color="#E2E2E6"/>
<stop offset="0.3333" stop-color="#E6E7E8"/>
<stop offset="0.4267" stop-color="#DCDAE2"/>
<stop offset="0.5911" stop-color="#D0C9DB"/>
<stop offset="0.7722" stop-color="#C9BFD7"/>
<stop offset="1" stop-color="#C7BCD6"/>
</linearGradient>
<linearGradient id="paint44_linear_656_28116" x1="153.587" y1="91.3462" x2="156.67" y2="92.4071" gradientUnits="userSpaceOnUse">
<stop offset="0.0252525" stop-color="#C7BCD6"/>
<stop offset="0.297" stop-color="#E2E2E6"/>
<stop offset="0.3333" stop-color="#E6E7E8"/>
<stop offset="0.4267" stop-color="#DCDAE2"/>
<stop offset="0.5911" stop-color="#D0C9DB"/>
<stop offset="0.7722" stop-color="#C9BFD7"/>
<stop offset="1" stop-color="#C7BCD6"/>
</linearGradient>
<linearGradient id="paint45_linear_656_28116" x1="163.197" y1="96.8572" x2="166.366" y2="97.9494" gradientUnits="userSpaceOnUse">
<stop offset="0.0252525" stop-color="#C7BCD6"/>
<stop offset="0.297" stop-color="#E2E2E6"/>
<stop offset="0.3333" stop-color="#E6E7E8"/>
<stop offset="0.4267" stop-color="#DCDAE2"/>
<stop offset="0.5911" stop-color="#D0C9DB"/>
<stop offset="0.7722" stop-color="#C9BFD7"/>
<stop offset="1" stop-color="#C7BCD6"/>
</linearGradient>
<linearGradient id="paint46_linear_656_28116" x1="172.842" y1="102.38" x2="176.011" y2="103.472" gradientUnits="userSpaceOnUse">
<stop offset="0.0252525" stop-color="#C7BCD6"/>
<stop offset="0.297" stop-color="#E2E2E6"/>
<stop offset="0.3333" stop-color="#E6E7E8"/>
<stop offset="0.4267" stop-color="#DCDAE2"/>
<stop offset="0.5911" stop-color="#D0C9DB"/>
<stop offset="0.7722" stop-color="#C9BFD7"/>
<stop offset="1" stop-color="#C7BCD6"/>
</linearGradient>
<linearGradient id="paint47_linear_656_28116" x1="182.495" y1="107.906" x2="185.664" y2="108.998" gradientUnits="userSpaceOnUse">
<stop offset="0.0252525" stop-color="#C7BCD6"/>
<stop offset="0.297" stop-color="#E2E2E6"/>
<stop offset="0.3333" stop-color="#E6E7E8"/>
<stop offset="0.4267" stop-color="#DCDAE2"/>
<stop offset="0.5911" stop-color="#D0C9DB"/>
<stop offset="0.7722" stop-color="#C9BFD7"/>
<stop offset="1" stop-color="#C7BCD6"/>
</linearGradient>
<linearGradient id="paint48_linear_656_28116" x1="192.144" y1="113.432" x2="195.308" y2="114.523" gradientUnits="userSpaceOnUse">
<stop offset="0.0252525" stop-color="#C7BCD6"/>
<stop offset="0.297" stop-color="#E2E2E6"/>
<stop offset="0.3333" stop-color="#E6E7E8"/>
<stop offset="0.4267" stop-color="#DCDAE2"/>
<stop offset="0.5911" stop-color="#D0C9DB"/>
<stop offset="0.7722" stop-color="#C9BFD7"/>
<stop offset="1" stop-color="#C7BCD6"/>
</linearGradient>
<linearGradient id="paint49_linear_656_28116" x1="201.786" y1="118.956" x2="204.956" y2="120.048" gradientUnits="userSpaceOnUse">
<stop offset="0.0252525" stop-color="#C7BCD6"/>
<stop offset="0.297" stop-color="#E2E2E6"/>
<stop offset="0.3333" stop-color="#E6E7E8"/>
<stop offset="0.4267" stop-color="#DCDAE2"/>
<stop offset="0.5911" stop-color="#D0C9DB"/>
<stop offset="0.7722" stop-color="#C9BFD7"/>
<stop offset="1" stop-color="#C7BCD6"/>
</linearGradient>
<linearGradient id="paint50_linear_656_28116" x1="211.431" y1="124.481" x2="214.6" y2="125.573" gradientUnits="userSpaceOnUse">
<stop offset="0.0252525" stop-color="#C7BCD6"/>
<stop offset="0.297" stop-color="#E2E2E6"/>
<stop offset="0.3333" stop-color="#E6E7E8"/>
<stop offset="0.4267" stop-color="#DCDAE2"/>
<stop offset="0.5911" stop-color="#D0C9DB"/>
<stop offset="0.7722" stop-color="#C9BFD7"/>
<stop offset="1" stop-color="#C7BCD6"/>
</linearGradient>
<linearGradient id="paint51_linear_656_28116" x1="221.085" y1="130.006" x2="224.255" y2="131.099" gradientUnits="userSpaceOnUse">
<stop offset="0.0252525" stop-color="#C7BCD6"/>
<stop offset="0.297" stop-color="#E2E2E6"/>
<stop offset="0.3333" stop-color="#E6E7E8"/>
<stop offset="0.4267" stop-color="#DCDAE2"/>
<stop offset="0.5911" stop-color="#D0C9DB"/>
<stop offset="0.7722" stop-color="#C9BFD7"/>
<stop offset="1" stop-color="#C7BCD6"/>
</linearGradient>
<linearGradient id="paint52_linear_656_28116" x1="165.707" y1="60.0748" x2="208.426" y2="157.535" gradientUnits="userSpaceOnUse">
<stop offset="0.0252525" stop-color="#B82CB4"/>
<stop offset="0.4545" stop-color="#D644BF"/>
<stop offset="1" stop-color="#EC55C7"/>
</linearGradient>
<linearGradient id="paint53_linear_656_28116" x1="102.197" y1="344.786" x2="115.098" y2="322.42" gradientUnits="userSpaceOnUse">
<stop stop-color="#1E1F21"/>
<stop offset="0.0762293" stop-color="#2C2E30"/>
<stop offset="0.2233" stop-color="#515359"/>
<stop offset="0.2677" stop-color="#5D6066"/>
<stop offset="0.6061" stop-color="#37383C"/>
</linearGradient>
<linearGradient id="paint54_linear_656_28116" x1="122.049" y1="336.196" x2="104.04" y2="336.196" gradientUnits="userSpaceOnUse">
<stop stop-color="#484B4F"/>
<stop offset="1" stop-color="#1E1F21"/>
</linearGradient>
<linearGradient id="paint55_linear_656_28116" x1="117.245" y1="336.196" x2="108.846" y2="336.196" gradientUnits="userSpaceOnUse">
<stop stop-color="#D4D1D8"/>
<stop offset="0.8549" stop-color="#A5A6B9"/>
<stop offset="1" stop-color="#9D9EB3"/>
</linearGradient>
<radialGradient id="paint56_radial_656_28116" cx="0" cy="0" r="1" gradientUnits="userSpaceOnUse" gradientTransform="translate(111.191 335.891) rotate(180) scale(9.72842 9.7191)">
<stop stop-color="white"/>
<stop offset="1"/>
</radialGradient>
<linearGradient id="paint57_linear_656_28116" x1="94.3042" y1="326.681" x2="115.622" y2="326.681" gradientUnits="userSpaceOnUse">
<stop offset="0.0252525" stop-color="#B82CB4"/>
<stop offset="1" stop-color="#D644BF"/>
</linearGradient>
<linearGradient id="paint58_linear_656_28116" x1="193.693" y1="291.662" x2="206.595" y2="269.294" gradientUnits="userSpaceOnUse">
<stop stop-color="#1E1F21"/>
<stop offset="0.0762293" stop-color="#2C2E30"/>
<stop offset="0.2233" stop-color="#515359"/>
<stop offset="0.2677" stop-color="#5D6066"/>
<stop offset="0.6061" stop-color="#37383C"/>
</linearGradient>
<linearGradient id="paint59_linear_656_28116" x1="213.549" y1="283.07" x2="195.538" y2="283.07" gradientUnits="userSpaceOnUse">
<stop stop-color="#484B4F"/>
<stop offset="1" stop-color="#1E1F21"/>
</linearGradient>
<linearGradient id="paint60_linear_656_28116" x1="208.741" y1="283.07" x2="200.337" y2="283.07" gradientUnits="userSpaceOnUse">
<stop stop-color="#D4D1D8"/>
<stop offset="0.8549" stop-color="#A5A6B9"/>
<stop offset="1" stop-color="#9D9EB3"/>
</linearGradient>
<radialGradient id="paint61_radial_656_28116" cx="0" cy="0" r="1" gradientUnits="userSpaceOnUse" gradientTransform="translate(202.693 282.766) rotate(180) scale(9.72905 9.71974)">
<stop stop-color="white"/>
<stop offset="1"/>
</radialGradient>
<linearGradient id="paint62_linear_656_28116" x1="185.795" y1="273.556" x2="207.114" y2="273.556" gradientUnits="userSpaceOnUse">
<stop offset="0.0252525" stop-color="#B82CB4"/>
<stop offset="1" stop-color="#D644BF"/>
</linearGradient>
<linearGradient id="paint63_linear_656_28116" x1="226.856" y1="127.863" x2="229.94" y2="127.863" gradientUnits="userSpaceOnUse">
<stop offset="0.0252525" stop-color="#C7BCD6"/>
<stop offset="0.297" stop-color="#E2E2E6"/>
<stop offset="0.3333" stop-color="#E6E7E8"/>
<stop offset="0.4267" stop-color="#DCDAE2"/>
<stop offset="0.5911" stop-color="#D0C9DB"/>
<stop offset="0.7722" stop-color="#C9BFD7"/>
<stop offset="1" stop-color="#C7BCD6"/>
</linearGradient>
<linearGradient id="paint64_linear_656_28116" x1="226.325" y1="36.5006" x2="233.329" y2="24.3579" gradientUnits="userSpaceOnUse">
<stop offset="0.1111" stop-color="#AB1FA7"/>
<stop offset="0.3932" stop-color="#D13CBB"/>
<stop offset="0.6414" stop-color="#F558CE"/>
<stop offset="0.9343" stop-color="#D644BF"/>
</linearGradient>
<linearGradient id="paint65_linear_656_28116" x1="272.686" y1="56.3936" x2="310.707" y2="52.0221" gradientUnits="userSpaceOnUse">
<stop offset="0.0252525" stop-color="#B82CB4"/>
<stop offset="1" stop-color="#D644BF"/>
</linearGradient>
<radialGradient id="paint66_radial_656_28116" cx="0" cy="0" r="1" gradientUnits="userSpaceOnUse" gradientTransform="translate(274.766 55.9048) rotate(180) scale(4.72132 4.7168)">
<stop stop-color="white"/>
<stop offset="1"/>
</radialGradient>
<radialGradient id="paint67_radial_656_28116" cx="0" cy="0" r="1" gradientUnits="userSpaceOnUse" gradientTransform="translate(237.411 32.3476) rotate(-149.859) scale(42.4953 4.79426)">
<stop stop-color="#972A74"/>
<stop offset="0.0961809" stop-color="#75205A"/>
<stop offset="0.2163" stop-color="#51173E"/>
<stop offset="0.3433" stop-color="#340E28"/>
<stop offset="0.4774" stop-color="#1D0816"/>
<stop offset="0.6218" stop-color="#0D030A"/>
<stop offset="0.7838" stop-color="#030102"/>
<stop offset="1"/>
</radialGradient>
<linearGradient id="paint68_linear_656_28116" x1="80.3776" y1="68.3034" x2="167.605" y2="112.968" gradientUnits="userSpaceOnUse">
<stop offset="0.0353535" stop-color="#138BBD"/>
<stop offset="0.2257" stop-color="#169AC7"/>
<stop offset="0.5946" stop-color="#1FC3DF"/>
<stop offset="1" stop-color="#2AF6FF"/>
</linearGradient>
<linearGradient id="paint69_linear_656_28116" x1="135.709" y1="119.705" x2="220.995" y2="-7.83846" gradientUnits="userSpaceOnUse">
<stop offset="0.0353535" stop-color="#138BBD"/>
<stop offset="0.2257" stop-color="#169AC7"/>
<stop offset="0.5946" stop-color="#1FC3DF"/>
<stop offset="1" stop-color="#2AF6FF"/>
</linearGradient>
<linearGradient id="paint70_linear_656_28116" x1="147.98" y1="168.454" x2="176.409" y2="193.977" gradientUnits="userSpaceOnUse">
<stop offset="0.0353535" stop-color="#138BBD"/>
<stop offset="0.2257" stop-color="#169AC7"/>
<stop offset="0.5946" stop-color="#1FC3DF"/>
<stop offset="1" stop-color="#2AF6FF"/>
</linearGradient>
<linearGradient id="paint71_linear_656_28116" x1="152.835" y1="111.433" x2="237.687" y2="154.881" gradientUnits="userSpaceOnUse">
<stop offset="0.0353535" stop-color="#138BBD"/>
<stop offset="0.2257" stop-color="#169AC7"/>
<stop offset="0.5946" stop-color="#1FC3DF"/>
<stop offset="1" stop-color="#2AF6FF"/>
</linearGradient>
<linearGradient id="paint72_linear_656_28116" x1="267.893" y1="58.5574" x2="68.2627" y2="141.939" gradientUnits="userSpaceOnUse">
<stop offset="0.0353535" stop-color="#138BBD"/>
<stop offset="0.2257" stop-color="#169AC7"/>
<stop offset="0.5946" stop-color="#1FC3DF"/>
<stop offset="1" stop-color="#2AF6FF"/>
</linearGradient>
<linearGradient id="paint73_linear_656_28116" x1="55.026" y1="104.137" x2="127.222" y2="141.105" gradientUnits="userSpaceOnUse">
<stop offset="0.0353535" stop-color="#9F19AB"/>
<stop offset="0.2438" stop-color="#AE25B1"/>
<stop offset="0.6455" stop-color="#D744BF"/>
<stop offset="1" stop-color="#FF63CE"/>
</linearGradient>
<linearGradient id="paint74_linear_656_28116" x1="109.473" y1="149.097" x2="172.459" y2="54.9027" gradientUnits="userSpaceOnUse">
<stop offset="0.0353535" stop-color="#9F19AB"/>
<stop offset="0.2438" stop-color="#AE25B1"/>
<stop offset="0.6455" stop-color="#D744BF"/>
<stop offset="1" stop-color="#FF63CE"/>
</linearGradient>
<linearGradient id="paint75_linear_656_28116" x1="113.327" y1="186.151" x2="142.806" y2="212.616" gradientUnits="userSpaceOnUse">
<stop offset="0.0353535" stop-color="#9F19AB"/>
<stop offset="0.2438" stop-color="#AE25B1"/>
<stop offset="0.6455" stop-color="#D744BF"/>
<stop offset="1" stop-color="#FF63CE"/>
</linearGradient>
<linearGradient id="paint76_linear_656_28116" x1="123.844" y1="143.867" x2="196.043" y2="180.836" gradientUnits="userSpaceOnUse">
<stop offset="0.0353535" stop-color="#9F19AB"/>
<stop offset="0.2438" stop-color="#AE25B1"/>
<stop offset="0.6455" stop-color="#D744BF"/>
<stop offset="1" stop-color="#FF63CE"/>
</linearGradient>
<linearGradient id="paint77_linear_656_28116" x1="213.887" y1="101.118" x2="42.8885" y2="172.541" gradientUnits="userSpaceOnUse">
<stop offset="0.0353535" stop-color="#9F19AB"/>
<stop offset="0.2438" stop-color="#AE25B1"/>
<stop offset="0.6455" stop-color="#D744BF"/>
<stop offset="1" stop-color="#FF63CE"/>
</linearGradient>
<linearGradient id="paint78_linear_656_28116" x1="83.8549" y1="223.903" x2="86.9424" y2="223.903" gradientUnits="userSpaceOnUse">
<stop offset="0.0252525" stop-color="#C7BCD6"/>
<stop offset="0.297" stop-color="#E2E2E6"/>
<stop offset="0.3333" stop-color="#E6E7E8"/>
<stop offset="0.4267" stop-color="#DCDAE2"/>
<stop offset="0.5911" stop-color="#D0C9DB"/>
<stop offset="0.7722" stop-color="#C9BFD7"/>
<stop offset="1" stop-color="#C7BCD6"/>
</linearGradient>
<linearGradient id="paint79_linear_656_28116" x1="95.7707" y1="216.893" x2="98.8534" y2="216.893" gradientUnits="userSpaceOnUse">
<stop offset="0.0252525" stop-color="#C7BCD6"/>
<stop offset="0.297" stop-color="#E2E2E6"/>
<stop offset="0.3333" stop-color="#E6E7E8"/>
<stop offset="0.4267" stop-color="#DCDAE2"/>
<stop offset="0.5911" stop-color="#D0C9DB"/>
<stop offset="0.7722" stop-color="#C9BFD7"/>
<stop offset="1" stop-color="#C7BCD6"/>
</linearGradient>
<linearGradient id="paint80_linear_656_28116" x1="107.688" y1="209.88" x2="110.773" y2="209.88" gradientUnits="userSpaceOnUse">
<stop offset="0.0252525" stop-color="#C7BCD6"/>
<stop offset="0.297" stop-color="#E2E2E6"/>
<stop offset="0.3333" stop-color="#E6E7E8"/>
<stop offset="0.4267" stop-color="#DCDAE2"/>
<stop offset="0.5911" stop-color="#D0C9DB"/>
<stop offset="0.7722" stop-color="#C9BFD7"/>
<stop offset="1" stop-color="#C7BCD6"/>
</linearGradient>
<linearGradient id="paint81_linear_656_28116" x1="119.599" y1="202.867" x2="122.687" y2="202.867" gradientUnits="userSpaceOnUse">
<stop offset="0.0252525" stop-color="#C7BCD6"/>
<stop offset="0.297" stop-color="#E2E2E6"/>
<stop offset="0.3333" stop-color="#E6E7E8"/>
<stop offset="0.4267" stop-color="#DCDAE2"/>
<stop offset="0.5911" stop-color="#D0C9DB"/>
<stop offset="0.7722" stop-color="#C9BFD7"/>
<stop offset="1" stop-color="#C7BCD6"/>
</linearGradient>
<linearGradient id="paint82_linear_656_28116" x1="131.519" y1="195.856" x2="134.601" y2="195.856" gradientUnits="userSpaceOnUse">
<stop offset="0.0252525" stop-color="#C7BCD6"/>
<stop offset="0.297" stop-color="#E2E2E6"/>
<stop offset="0.3333" stop-color="#E6E7E8"/>
<stop offset="0.4267" stop-color="#DCDAE2"/>
<stop offset="0.5911" stop-color="#D0C9DB"/>
<stop offset="0.7722" stop-color="#C9BFD7"/>
<stop offset="1" stop-color="#C7BCD6"/>
</linearGradient>
<linearGradient id="paint83_linear_656_28116" x1="143.433" y1="188.843" x2="146.517" y2="188.843" gradientUnits="userSpaceOnUse">
<stop offset="0.0252525" stop-color="#C7BCD6"/>
<stop offset="0.297" stop-color="#E2E2E6"/>
<stop offset="0.3333" stop-color="#E6E7E8"/>
<stop offset="0.4267" stop-color="#DCDAE2"/>
<stop offset="0.5911" stop-color="#D0C9DB"/>
<stop offset="0.7722" stop-color="#C9BFD7"/>
<stop offset="1" stop-color="#C7BCD6"/>
</linearGradient>
<linearGradient id="paint84_linear_656_28116" x1="155.347" y1="181.83" x2="158.428" y2="181.83" gradientUnits="userSpaceOnUse">
<stop offset="0.0252525" stop-color="#C7BCD6"/>
<stop offset="0.297" stop-color="#E2E2E6"/>
<stop offset="0.3333" stop-color="#E6E7E8"/>
<stop offset="0.4267" stop-color="#DCDAE2"/>
<stop offset="0.5911" stop-color="#D0C9DB"/>
<stop offset="0.7722" stop-color="#C9BFD7"/>
<stop offset="1" stop-color="#C7BCD6"/>
</linearGradient>
<linearGradient id="paint85_linear_656_28116" x1="167.261" y1="174.818" x2="170.342" y2="174.818" gradientUnits="userSpaceOnUse">
<stop offset="0.0252525" stop-color="#C7BCD6"/>
<stop offset="0.297" stop-color="#E2E2E6"/>
<stop offset="0.3333" stop-color="#E6E7E8"/>
<stop offset="0.4267" stop-color="#DCDAE2"/>
<stop offset="0.5911" stop-color="#D0C9DB"/>
<stop offset="0.7722" stop-color="#C9BFD7"/>
<stop offset="1" stop-color="#C7BCD6"/>
</linearGradient>
<linearGradient id="paint86_linear_656_28116" x1="179.174" y1="167.806" x2="182.26" y2="167.806" gradientUnits="userSpaceOnUse">
<stop offset="0.0252525" stop-color="#C7BCD6"/>
<stop offset="0.297" stop-color="#E2E2E6"/>
<stop offset="0.3333" stop-color="#E6E7E8"/>
<stop offset="0.4267" stop-color="#DCDAE2"/>
<stop offset="0.5911" stop-color="#D0C9DB"/>
<stop offset="0.7722" stop-color="#C9BFD7"/>
<stop offset="1" stop-color="#C7BCD6"/>
</linearGradient>
<linearGradient id="paint87_linear_656_28116" x1="191.093" y1="160.793" x2="194.175" y2="160.793" gradientUnits="userSpaceOnUse">
<stop offset="0.0252525" stop-color="#C7BCD6"/>
<stop offset="0.297" stop-color="#E2E2E6"/>
<stop offset="0.3333" stop-color="#E6E7E8"/>
<stop offset="0.4267" stop-color="#DCDAE2"/>
<stop offset="0.5911" stop-color="#D0C9DB"/>
<stop offset="0.7722" stop-color="#C9BFD7"/>
<stop offset="1" stop-color="#C7BCD6"/>
</linearGradient>
<linearGradient id="paint88_linear_656_28116" x1="203.006" y1="153.78" x2="206.09" y2="153.78" gradientUnits="userSpaceOnUse">
<stop offset="0.0252525" stop-color="#C7BCD6"/>
<stop offset="0.297" stop-color="#E2E2E6"/>
<stop offset="0.3333" stop-color="#E6E7E8"/>
<stop offset="0.4267" stop-color="#DCDAE2"/>
<stop offset="0.5911" stop-color="#D0C9DB"/>
<stop offset="0.7722" stop-color="#C9BFD7"/>
<stop offset="1" stop-color="#C7BCD6"/>
</linearGradient>
<linearGradient id="paint89_linear_656_28116" x1="214.925" y1="146.769" x2="218.011" y2="146.769" gradientUnits="userSpaceOnUse">
<stop offset="0.0252525" stop-color="#C7BCD6"/>
<stop offset="0.297" stop-color="#E2E2E6"/>
<stop offset="0.3333" stop-color="#E6E7E8"/>
<stop offset="0.4267" stop-color="#DCDAE2"/>
<stop offset="0.5911" stop-color="#D0C9DB"/>
<stop offset="0.7722" stop-color="#C9BFD7"/>
<stop offset="1" stop-color="#C7BCD6"/>
</linearGradient>
<linearGradient id="paint90_linear_656_28116" x1="8.09574" y1="185.543" x2="11.18" y2="185.543" gradientUnits="userSpaceOnUse">
<stop offset="0.0252525" stop-color="#C7BCD6"/>
<stop offset="0.297" stop-color="#E2E2E6"/>
<stop offset="0.3333" stop-color="#E6E7E8"/>
<stop offset="0.4267" stop-color="#DCDAE2"/>
<stop offset="0.5911" stop-color="#D0C9DB"/>
<stop offset="0.7722" stop-color="#C9BFD7"/>
<stop offset="1" stop-color="#C7BCD6"/>
</linearGradient>
<linearGradient id="paint91_linear_656_28116" x1="17.4136" y1="190.767" x2="20.5009" y2="190.767" gradientUnits="userSpaceOnUse">
<stop offset="0.0252525" stop-color="#C7BCD6"/>
<stop offset="0.297" stop-color="#E2E2E6"/>
<stop offset="0.3333" stop-color="#E6E7E8"/>
<stop offset="0.4267" stop-color="#DCDAE2"/>
<stop offset="0.5911" stop-color="#D0C9DB"/>
<stop offset="0.7722" stop-color="#C9BFD7"/>
<stop offset="1" stop-color="#C7BCD6"/>
</linearGradient>
<linearGradient id="paint92_linear_656_28116" x1="26.7235" y1="195.992" x2="29.8077" y2="195.992" gradientUnits="userSpaceOnUse">
<stop offset="0.0252525" stop-color="#C7BCD6"/>
<stop offset="0.297" stop-color="#E2E2E6"/>
<stop offset="0.3333" stop-color="#E6E7E8"/>
<stop offset="0.4267" stop-color="#DCDAE2"/>
<stop offset="0.5911" stop-color="#D0C9DB"/>
<stop offset="0.7722" stop-color="#C9BFD7"/>
<stop offset="1" stop-color="#C7BCD6"/>
</linearGradient>
<linearGradient id="paint93_linear_656_28116" x1="36.0441" y1="201.216" x2="39.13" y2="201.216" gradientUnits="userSpaceOnUse">
<stop offset="0.0252525" stop-color="#C7BCD6"/>
<stop offset="0.297" stop-color="#E2E2E6"/>
<stop offset="0.3333" stop-color="#E6E7E8"/>
<stop offset="0.4267" stop-color="#DCDAE2"/>
<stop offset="0.5911" stop-color="#D0C9DB"/>
<stop offset="0.7722" stop-color="#C9BFD7"/>
<stop offset="1" stop-color="#C7BCD6"/>
</linearGradient>
<linearGradient id="paint94_linear_656_28116" x1="45.3602" y1="206.44" x2="48.4477" y2="206.44" gradientUnits="userSpaceOnUse">
<stop offset="0.0252525" stop-color="#C7BCD6"/>
<stop offset="0.297" stop-color="#E2E2E6"/>
<stop offset="0.3333" stop-color="#E6E7E8"/>
<stop offset="0.4267" stop-color="#DCDAE2"/>
<stop offset="0.5911" stop-color="#D0C9DB"/>
<stop offset="0.7722" stop-color="#C9BFD7"/>
<stop offset="1" stop-color="#C7BCD6"/>
</linearGradient>
<linearGradient id="paint95_linear_656_28116" x1="54.675" y1="211.665" x2="57.7577" y2="211.665" gradientUnits="userSpaceOnUse">
<stop offset="0.0252525" stop-color="#C7BCD6"/>
<stop offset="0.297" stop-color="#E2E2E6"/>
<stop offset="0.3333" stop-color="#E6E7E8"/>
<stop offset="0.4267" stop-color="#DCDAE2"/>
<stop offset="0.5911" stop-color="#D0C9DB"/>
<stop offset="0.7722" stop-color="#C9BFD7"/>
<stop offset="1" stop-color="#C7BCD6"/>
</linearGradient>
<linearGradient id="paint96_linear_656_28116" x1="63.9941" y1="216.89" x2="67.0784" y2="216.89" gradientUnits="userSpaceOnUse">
<stop offset="0.0252525" stop-color="#C7BCD6"/>
<stop offset="0.297" stop-color="#E2E2E6"/>
<stop offset="0.3333" stop-color="#E6E7E8"/>
<stop offset="0.4267" stop-color="#DCDAE2"/>
<stop offset="0.5911" stop-color="#D0C9DB"/>
<stop offset="0.7722" stop-color="#C9BFD7"/>
<stop offset="1" stop-color="#C7BCD6"/>
</linearGradient>
<linearGradient id="paint97_linear_656_28116" x1="73.3134" y1="222.114" x2="76.3992" y2="222.114" gradientUnits="userSpaceOnUse">
<stop offset="0.0252525" stop-color="#C7BCD6"/>
<stop offset="0.297" stop-color="#E2E2E6"/>
<stop offset="0.3333" stop-color="#E6E7E8"/>
<stop offset="0.4267" stop-color="#DCDAE2"/>
<stop offset="0.5911" stop-color="#D0C9DB"/>
<stop offset="0.7722" stop-color="#C9BFD7"/>
<stop offset="1" stop-color="#C7BCD6"/>
</linearGradient>
<radialGradient id="paint98_radial_656_28116" cx="0" cy="0" r="1" gradientUnits="userSpaceOnUse" gradientTransform="translate(85.3766 126.093) scale(75.988 75.9152)">
<stop offset="0.2929" stop-color="#9F19AB"/>
<stop offset="0.425" stop-color="#AE25B1"/>
<stop offset="0.6794" stop-color="#D744BF"/>
<stop offset="0.904" stop-color="#FF63CE"/>
<stop offset="1" stop-color="#B328B2"/>
</radialGradient>
<radialGradient id="paint99_radial_656_28116" cx="0" cy="0" r="1" gradientUnits="userSpaceOnUse" gradientTransform="translate(84.0949 182.267) scale(35.2479 35.2141)">
<stop stop-color="#972A74"/>
<stop offset="0.0961809" stop-color="#75205A"/>
<stop offset="0.2163" stop-color="#51173E"/>
<stop offset="0.3433" stop-color="#340E28"/>
<stop offset="0.4774" stop-color="#1D0816"/>
<stop offset="0.6218" stop-color="#0D030A"/>
<stop offset="0.7838" stop-color="#030102"/>
<stop offset="1"/>
</radialGradient>
<radialGradient id="paint100_radial_656_28116" cx="0" cy="0" r="1" gradientUnits="userSpaceOnUse" gradientTransform="translate(73.6619 150.136) scale(73.9499 73.879)">
<stop offset="0.2929" stop-color="#9F19AB"/>
<stop offset="0.425" stop-color="#AE25B1"/>
<stop offset="0.6794" stop-color="#D744BF"/>
<stop offset="0.904" stop-color="#FF63CE"/>
<stop offset="1" stop-color="#B328B2"/>
</radialGradient>
<radialGradient id="paint101_radial_656_28116" cx="0" cy="0" r="1" gradientUnits="userSpaceOnUse" gradientTransform="translate(16.7421 147.515) rotate(-8.8737) scale(31.1253 31.0969)">
<stop stop-color="#972A74"/>
<stop offset="0.0961809" stop-color="#75205A"/>
<stop offset="0.2163" stop-color="#51173E"/>
<stop offset="0.3433" stop-color="#340E28"/>
<stop offset="0.4774" stop-color="#1D0816"/>
<stop offset="0.6218" stop-color="#0D030A"/>
<stop offset="0.7838" stop-color="#030102"/>
<stop offset="1"/>
</radialGradient>
<radialGradient id="paint102_radial_656_28116" cx="0" cy="0" r="1" gradientUnits="userSpaceOnUse" gradientTransform="translate(75.3621 193.23) rotate(-157.678) scale(14.6334 4.47254)">
<stop stop-color="#FF9CE0"/>
<stop offset="0.0152231" stop-color="#F797D9"/>
<stop offset="0.132" stop-color="#BE74A7"/>
<stop offset="0.252" stop-color="#8B557A"/>
<stop offset="0.3727" stop-color="#603B55"/>
<stop offset="0.4942" stop-color="#3E2636"/>
<stop offset="0.6167" stop-color="#23151E"/>
<stop offset="0.7407" stop-color="#0F090D"/>
<stop offset="0.8672" stop-color="#040203"/>
<stop offset="1"/>
</radialGradient>
<clipPath id="clip0_656_28116">
<rect width="279.211" height="362.18" fill="white" transform="translate(0.847656 0.283691)"/>
</clipPath>
</defs>
</svg>
