<svg width="752" height="612" viewBox="0 0 752 612" fill="none" xmlns="http://www.w3.org/2000/svg">
<rect x="161.238" y="401.186" width="210.137" height="210.137" rx="105.069" fill="white"/>
<rect x="161.238" y="401.186" width="210.137" height="210.137" rx="105.069" fill="#FFB892" fill-opacity="0.2"/>
<rect x="161.238" y="401.186" width="210.137" height="210.137" rx="105.069" fill="url(#paint0_linear_968_39420)" fill-opacity="0.8"/>
<path d="M212.966 496.91H221.009C226.464 496.91 230.218 493.809 230.218 488.75C230.218 483.691 226.464 480.59 221.009 480.59H212.966V496.91ZM218.468 492.62V484.88H220.776C223.084 484.88 224.669 486.255 224.669 488.75C224.669 491.245 223.084 492.62 220.776 492.62H218.468ZM235.397 483.131C237.332 483.131 238.568 481.966 238.568 480.357C238.568 478.842 237.332 477.769 235.397 477.769C233.462 477.769 232.227 478.935 232.227 480.45C232.227 481.966 233.462 483.131 235.397 483.131ZM232.763 496.91H238.032V484.157H232.763V496.91ZM246.055 497.143C250.485 497.143 252.653 495.138 252.653 492.83C252.653 487.724 245.333 489.449 245.333 488.121C245.333 487.817 245.706 487.514 247.058 487.514C248.13 487.514 249.436 487.724 250.741 488.447L252.187 484.973C250.835 484.274 248.853 483.924 246.988 483.924C242.698 483.924 240.46 485.882 240.46 488.284C240.46 493.389 247.804 491.641 247.804 492.946C247.804 493.319 247.454 493.553 246.172 493.553C244.657 493.553 242.931 493.133 241.719 492.41L240.274 495.884C241.579 496.63 243.864 497.143 246.055 497.143ZM261.802 497.143C264.903 497.143 267.234 495.721 268.073 493.366L263.993 491.361C263.457 492.55 262.688 493.04 261.779 493.04C260.59 493.04 259.61 492.2 259.61 490.522C259.61 488.867 260.59 488.027 261.779 488.027C262.688 488.027 263.457 488.517 263.993 489.706L268.073 487.701C267.234 485.346 264.903 483.924 261.802 483.924C257.396 483.924 254.272 486.652 254.272 490.522C254.272 494.415 257.396 497.143 261.802 497.143ZM275.003 485.533V484.157H269.99V496.91H275.259V491.245C275.259 489.216 276.378 488.494 277.963 488.494C278.336 488.494 278.663 488.517 279.129 488.587V483.924C277.357 483.924 275.935 484.46 275.003 485.533ZM294.776 490.522C294.776 486.209 291.536 483.924 287.759 483.924C283.633 483.924 280.532 486.652 280.532 490.522C280.532 494.322 283.563 497.143 288.249 497.143C290.79 497.143 292.585 496.443 293.821 495.091L291.07 492.317C290.23 492.946 289.578 493.249 288.412 493.249C287.106 493.249 286.22 492.737 285.847 491.757H294.706C294.73 491.384 294.776 490.895 294.776 490.522ZM287.806 487.514C288.878 487.514 289.647 488.144 289.857 489.216H285.754C285.964 488.144 286.71 487.514 287.806 487.514ZM305.275 492.807C304.925 493.04 304.505 493.156 304.086 493.156C303.456 493.156 302.99 492.713 302.99 491.921V488.703H305.601V484.857H302.99V481.29H297.721V484.857H295.973V488.703H297.721V491.967C297.721 495.488 299.773 497.143 303.293 497.143C304.529 497.143 305.718 496.933 306.534 496.467L305.275 492.807ZM321.788 490.522C321.788 486.209 318.547 483.924 314.771 483.924C310.644 483.924 307.544 486.652 307.544 490.522C307.544 494.322 310.574 497.143 315.26 497.143C317.801 497.143 319.596 496.443 320.832 495.091L318.081 492.317C317.242 492.946 316.589 493.249 315.423 493.249C314.118 493.249 313.232 492.737 312.859 491.757H321.718C321.741 491.384 321.788 490.895 321.788 490.522ZM314.817 487.514C315.89 487.514 316.659 488.144 316.869 489.216H312.766C312.976 488.144 313.722 487.514 314.817 487.514ZM225.714 517.59H217.857V533.91H223.359V529.9H225.714C230.26 529.9 233.151 527.522 233.151 523.745C233.151 519.968 230.26 517.59 225.714 517.59ZM225.364 525.657H223.359V521.833H225.364C226.88 521.833 227.602 522.556 227.602 523.745C227.602 524.934 226.88 525.657 225.364 525.657ZM238.354 520.131C240.289 520.131 241.524 518.966 241.524 517.357C241.524 515.842 240.289 514.769 238.354 514.769C236.419 514.769 235.183 515.935 235.183 517.45C235.183 518.966 236.419 520.131 238.354 520.131ZM235.719 533.91H240.988V521.157H235.719V533.91ZM250.877 534.143C253.978 534.143 256.309 532.721 257.148 530.366L253.068 528.361C252.532 529.55 251.763 530.04 250.854 530.04C249.665 530.04 248.685 529.2 248.685 527.522C248.685 525.867 249.665 525.027 250.854 525.027C251.763 525.027 252.532 525.517 253.068 526.706L257.148 524.701C256.309 522.346 253.978 520.924 250.877 520.924C246.471 520.924 243.347 523.652 243.347 527.522C243.347 531.415 246.471 534.143 250.877 534.143ZM268.274 533.91H274.639L268.95 526.683L274.219 521.157H267.994L264.334 524.864V516.611H259.065V533.91H264.334V530.902L265.173 529.993L268.274 533.91ZM279.019 520.131C280.954 520.131 282.19 518.966 282.19 517.357C282.19 515.842 280.954 514.769 279.019 514.769C277.084 514.769 275.848 515.935 275.848 517.45C275.848 518.966 277.084 520.131 279.019 520.131ZM276.385 533.91H281.653V521.157H276.385V533.91ZM293.547 520.924C292.055 520.924 290.703 521.414 289.701 522.416V521.157H284.688V533.91H289.957V527.918C289.957 526.03 290.866 525.354 291.939 525.354C292.894 525.354 293.501 525.96 293.501 527.545V533.91H298.769V526.636C298.769 522.626 296.485 520.924 293.547 520.924ZM311.217 521.157V522.603C310.424 521.46 309.188 520.924 307.44 520.924C304.199 520.924 301.309 523.279 301.309 527.056C301.309 530.832 304.199 533.21 307.44 533.21C309.002 533.21 310.168 532.767 310.96 531.858V532.091C310.96 533.793 310.098 534.749 307.93 534.749C306.554 534.749 304.852 534.259 303.85 533.49L302.078 537.08C303.663 538.129 305.948 538.666 308.466 538.666C313.338 538.666 316.229 536.311 316.229 531.369V521.157H311.217ZM308.839 529.107C307.603 529.107 306.647 528.291 306.647 527.056C306.647 525.82 307.603 525.027 308.839 525.027C310.074 525.027 311.007 525.82 311.007 527.056C311.007 528.291 310.074 529.107 308.839 529.107Z" fill="white"/>
<rect x="331.727" y="292.153" width="293.399" height="293.399" rx="146.699" fill="white"/>
<rect x="331.727" y="292.153" width="293.399" height="293.399" rx="146.699" fill="url(#paint1_linear_968_39420)" fill-opacity="0.8"/>
<rect x="331.727" y="292.153" width="293.399" height="293.399" rx="146.699" fill="#FF9797" fill-opacity="0.2"/>
<path d="M453.109 424.343L460.571 415.67V412.289H446.184V416.556H453.412L445.951 425.229V428.61H460.944V424.343H453.109ZM469.816 428.844C474.153 428.844 477.231 426.092 477.231 422.222C477.231 418.351 474.153 415.623 469.816 415.623C465.503 415.623 462.402 418.351 462.402 422.222C462.402 426.092 465.503 428.844 469.816 428.844ZM469.816 424.74C468.65 424.74 467.741 423.877 467.741 422.222C467.741 420.566 468.65 419.727 469.816 419.727C470.982 419.727 471.891 420.566 471.891 422.222C471.891 423.877 470.982 424.74 469.816 424.74ZM488.44 415.623C486.948 415.623 485.595 416.113 484.593 417.115V415.856H479.58V428.61H484.849V422.618C484.849 420.729 485.758 420.053 486.831 420.053C487.787 420.053 488.393 420.659 488.393 422.245V428.61H493.663V421.336C493.663 417.325 491.378 415.623 488.44 415.623ZM510.449 422.222C510.449 417.908 507.208 415.623 503.43 415.623C499.303 415.623 496.202 418.351 496.202 422.222C496.202 426.022 499.233 428.844 503.92 428.844C506.461 428.844 508.257 428.144 509.493 426.792L506.741 424.017C505.902 424.647 505.249 424.95 504.083 424.95C502.777 424.95 501.891 424.437 501.518 423.457H510.379C510.402 423.084 510.449 422.595 510.449 422.222ZM503.477 419.214C504.55 419.214 505.319 419.843 505.529 420.916H501.425C501.635 419.843 502.381 419.214 503.477 419.214ZM437.173 449.289H429.315V465.61H434.818V461.6H437.173C441.719 461.6 444.611 459.222 444.611 455.444C444.611 451.667 441.719 449.289 437.173 449.289ZM436.823 457.356H434.818V453.532H436.823C438.338 453.532 439.061 454.255 439.061 455.444C439.061 456.634 438.338 457.356 436.823 457.356ZM449.814 451.83C451.749 451.83 452.985 450.664 452.985 449.056C452.985 447.54 451.749 446.468 449.814 446.468C447.879 446.468 446.643 447.633 446.643 449.149C446.643 450.664 447.879 451.83 449.814 451.83ZM447.179 465.61H452.449V452.856H447.179V465.61ZM462.339 465.844C465.44 465.844 467.772 464.421 468.611 462.066L464.531 460.061C463.994 461.25 463.225 461.74 462.316 461.74C461.126 461.74 460.147 460.9 460.147 459.222C460.147 457.566 461.126 456.727 462.316 456.727C463.225 456.727 463.994 457.216 464.531 458.406L468.611 456.4C467.772 454.045 465.44 452.623 462.339 452.623C457.932 452.623 454.808 455.351 454.808 459.222C454.808 463.115 457.932 465.844 462.339 465.844ZM479.739 465.61H486.104L480.415 458.382L485.684 452.856H479.459L475.798 456.564V448.31H470.528V465.61H475.798V462.603L476.637 461.693L479.739 465.61ZM490.485 451.83C492.42 451.83 493.656 450.664 493.656 449.056C493.656 447.54 492.42 446.468 490.485 446.468C488.55 446.468 487.314 447.633 487.314 449.149C487.314 450.664 488.55 451.83 490.485 451.83ZM487.85 465.61H493.12V452.856H487.85V465.61ZM505.015 452.623C503.523 452.623 502.17 453.113 501.168 454.115V452.856H496.155V465.61H501.424V459.618C501.424 457.729 502.334 457.053 503.406 457.053C504.362 457.053 504.968 457.659 504.968 459.245V465.61H510.238V458.336C510.238 454.325 507.953 452.623 505.015 452.623ZM522.687 452.856V454.302C521.894 453.159 520.658 452.623 518.91 452.623C515.669 452.623 512.777 454.978 512.777 458.755C512.777 462.533 515.669 464.911 518.91 464.911C520.472 464.911 521.638 464.468 522.43 463.559V463.792C522.43 465.494 521.568 466.45 519.399 466.45C518.024 466.45 516.322 465.96 515.319 465.191L513.547 468.781C515.132 469.831 517.417 470.367 519.936 470.367C524.809 470.367 527.7 468.012 527.7 463.069V452.856H522.687ZM520.309 460.807C519.073 460.807 518.117 459.991 518.117 458.755C518.117 457.52 519.073 456.727 520.309 456.727C521.544 456.727 522.477 457.52 522.477 458.755C522.477 459.991 521.544 460.807 520.309 460.807Z" fill="white"/>
<rect x="284.145" y="0.735596" width="387.621" height="387.621" rx="193.81" fill="white"/>
<rect x="284.145" y="0.735596" width="387.621" height="387.621" rx="193.81" fill="url(#paint2_linear_968_39420)" fill-opacity="0.8"/>
<rect x="284.145" y="0.735596" width="387.621" height="387.621" rx="193.81" fill="#FF9797" fill-opacity="0.2"/>
<path d="M453.857 175.154C455.349 174.408 456.118 173.149 456.118 171.634C456.118 169.162 454.02 167.367 449.521 167.367H440.801V183.687H449.987C454.486 183.687 456.888 182.031 456.888 179.187C456.888 177.252 455.769 175.853 453.857 175.154ZM448.775 171.214C450.01 171.214 450.57 171.634 450.57 172.426C450.57 173.219 450.01 173.638 448.775 173.638H446.21V171.214H448.775ZM449.521 179.84H446.21V177.275H449.521C450.733 177.275 451.339 177.718 451.339 178.558C451.339 179.397 450.733 179.84 449.521 179.84ZM465.081 170.701C463.099 170.701 460.838 171.214 459.346 172.146L461.024 175.62C461.863 174.991 463.146 174.618 464.288 174.618C465.78 174.618 466.526 175.131 466.689 176.11H464.568C460.605 176.11 458.739 177.485 458.739 179.956C458.739 182.148 460.348 183.92 463.472 183.92C465.267 183.92 466.48 183.29 467.086 182.008V183.687H471.981V176.832C471.981 172.589 469.464 170.701 465.081 170.701ZM465.057 180.749C464.265 180.749 463.798 180.306 463.798 179.723C463.798 179.024 464.288 178.651 465.407 178.651H466.713V179.537C466.433 180.376 465.78 180.749 465.057 180.749ZM483.094 179.583C482.745 179.817 482.325 179.933 481.905 179.933C481.276 179.933 480.81 179.49 480.81 178.697V175.48H483.421V171.634H480.81V168.067H475.541V171.634H473.792V175.48H475.541V178.744C475.541 182.264 477.592 183.92 481.113 183.92C482.348 183.92 483.537 183.71 484.353 183.244L483.094 179.583ZM492.893 183.92C495.994 183.92 498.325 182.498 499.164 180.143L495.085 178.138C494.548 179.327 493.779 179.817 492.87 179.817C491.681 179.817 490.702 178.977 490.702 177.299C490.702 175.643 491.681 174.804 492.87 174.804C493.779 174.804 494.548 175.294 495.085 176.483L499.164 174.478C498.325 172.123 495.994 170.701 492.893 170.701C488.487 170.701 485.363 173.429 485.363 177.299C485.363 181.192 488.487 183.92 492.893 183.92ZM509.941 170.701C508.565 170.701 507.33 171.121 506.35 171.96V166.388H501.082V183.687H506.35V177.695C506.35 175.807 507.26 175.131 508.332 175.131C509.288 175.131 509.894 175.737 509.894 177.322V183.687H515.163V176.413C515.163 172.403 512.878 170.701 509.941 170.701ZM436.282 204.367H428.426V220.687H433.928V216.677H436.282C440.828 216.677 443.719 214.299 443.719 210.522C443.719 206.745 440.828 204.367 436.282 204.367ZM435.933 212.434H433.928V208.61H435.933C437.448 208.61 438.171 209.333 438.171 210.522C438.171 211.711 437.448 212.434 435.933 212.434ZM448.922 206.908C450.857 206.908 452.093 205.743 452.093 204.134C452.093 202.619 450.857 201.546 448.922 201.546C446.987 201.546 445.751 202.712 445.751 204.227C445.751 205.743 446.987 206.908 448.922 206.908ZM446.288 220.687H451.556V207.934H446.288V220.687ZM461.445 220.92C464.546 220.92 466.877 219.498 467.716 217.143L463.637 215.138C463.1 216.327 462.331 216.817 461.422 216.817C460.233 216.817 459.254 215.977 459.254 214.299C459.254 212.643 460.233 211.804 461.422 211.804C462.331 211.804 463.1 212.294 463.637 213.483L467.716 211.478C466.877 209.123 464.546 207.701 461.445 207.701C457.039 207.701 453.915 210.429 453.915 214.299C453.915 218.192 457.039 220.92 461.445 220.92ZM478.842 220.687H485.207L479.518 213.459L484.787 207.934H478.563L474.902 211.641V203.388H469.634V220.687H474.902V217.679L475.742 216.77L478.842 220.687ZM489.587 206.908C491.522 206.908 492.758 205.743 492.758 204.134C492.758 202.619 491.522 201.546 489.587 201.546C487.652 201.546 486.417 202.712 486.417 204.227C486.417 205.743 487.652 206.908 489.587 206.908ZM486.953 220.687H492.222V207.934H486.953V220.687ZM504.116 207.701C502.623 207.701 501.271 208.191 500.269 209.193V207.934H495.256V220.687H500.525V214.695C500.525 212.807 501.434 212.131 502.507 212.131C503.463 212.131 504.069 212.737 504.069 214.322V220.687H509.338V213.413C509.338 209.403 507.053 207.701 504.116 207.701ZM521.785 207.934V209.38C520.992 208.237 519.757 207.701 518.008 207.701C514.768 207.701 511.877 210.056 511.877 213.832C511.877 217.609 514.768 219.987 518.008 219.987C519.57 219.987 520.736 219.544 521.529 218.635V218.868C521.529 220.57 520.666 221.526 518.498 221.526C517.122 221.526 515.42 221.036 514.418 220.267L512.646 223.857C514.231 224.906 516.516 225.442 519.034 225.442C523.907 225.442 526.797 223.088 526.797 218.145V207.934H521.785ZM519.407 215.884C518.171 215.884 517.216 215.068 517.216 213.832C517.216 212.597 518.171 211.804 519.407 211.804C520.643 211.804 521.575 212.597 521.575 213.832C521.575 215.068 520.643 215.884 519.407 215.884Z" fill="white"/>
<rect x="80.6172" y="142.149" width="302.325" height="302.325" rx="151.163" fill="white"/>
<rect x="80.6172" y="142.149" width="302.325" height="302.325" rx="151.163" fill="url(#paint3_linear_968_39420)" fill-opacity="0.8"/>
<path d="M217.472 266.488L214.464 275.884L211.62 266.488H206.561L203.553 275.767L200.709 266.488H195.044L200.266 282.808H206.165L208.939 274.088L211.573 282.808H217.472L222.694 266.488H217.472ZM229.23 269.822C227.248 269.822 224.987 270.335 223.495 271.268L225.173 274.741C226.013 274.112 227.295 273.739 228.437 273.739C229.929 273.739 230.675 274.252 230.839 275.231H228.717C224.754 275.231 222.889 276.606 222.889 279.077C222.889 281.269 224.497 283.041 227.621 283.041C229.417 283.041 230.629 282.411 231.235 281.129V282.808H236.131V275.954C236.131 271.71 233.613 269.822 229.23 269.822ZM229.207 279.87C228.414 279.87 227.948 279.427 227.948 278.844C227.948 278.145 228.437 277.772 229.556 277.772H230.862V278.658C230.582 279.497 229.929 279.87 229.207 279.87ZM248.088 270.055L245.337 276.886L242.773 270.055H237.364L242.493 282.808H247.948L253.077 270.055H248.088ZM267.809 276.42C267.809 272.107 264.569 269.822 260.792 269.822C256.665 269.822 253.565 272.55 253.565 276.42C253.565 280.22 256.595 283.041 261.281 283.041C263.823 283.041 265.618 282.341 266.853 280.989L264.102 278.215C263.263 278.844 262.61 279.147 261.445 279.147C260.139 279.147 259.253 278.635 258.88 277.655H267.739C267.763 277.282 267.809 276.793 267.809 276.42ZM260.838 273.412C261.911 273.412 262.68 274.042 262.89 275.114H258.787C258.997 274.042 259.743 273.412 260.838 273.412ZM190.312 303.488H182.455V319.808H187.957V315.798H190.312C194.858 315.798 197.749 313.42 197.749 309.643C197.749 305.866 194.858 303.488 190.312 303.488ZM189.962 311.555H187.957V307.731H189.962C191.477 307.731 192.2 308.454 192.2 309.643C192.2 310.832 191.477 311.555 189.962 311.555ZM202.951 306.029C204.886 306.029 206.122 304.864 206.122 303.255C206.122 301.74 204.886 300.667 202.951 300.667C201.016 300.667 199.781 301.833 199.781 303.348C199.781 304.864 201.016 306.029 202.951 306.029ZM200.317 319.808H205.586V307.055H200.317V319.808ZM215.475 320.041C218.575 320.041 220.907 318.619 221.746 316.264L217.666 314.259C217.13 315.448 216.36 315.938 215.451 315.938C214.262 315.938 213.283 315.098 213.283 313.42C213.283 311.765 214.262 310.925 215.451 310.925C216.36 310.925 217.13 311.415 217.666 312.604L221.746 310.599C220.907 308.244 218.575 306.822 215.475 306.822C211.068 306.822 207.944 309.55 207.944 313.42C207.944 317.313 211.068 320.041 215.475 320.041ZM232.872 319.808H239.236L233.548 312.58L238.817 307.055H232.592L228.932 310.762V302.509H223.663V319.808H228.932V316.8L229.771 315.891L232.872 319.808ZM243.617 306.029C245.552 306.029 246.787 304.864 246.787 303.255C246.787 301.74 245.552 300.667 243.617 300.667C241.682 300.667 240.446 301.833 240.446 303.348C240.446 304.864 241.682 306.029 243.617 306.029ZM240.982 319.808H246.251V307.055H240.982V319.808ZM258.145 306.822C256.653 306.822 255.301 307.312 254.298 308.314V307.055H249.286V319.808H254.555V313.816C254.555 311.928 255.464 311.252 256.536 311.252C257.492 311.252 258.098 311.858 258.098 313.443V319.808H263.367V312.534C263.367 308.524 261.082 306.822 258.145 306.822ZM275.814 307.055V308.501C275.022 307.358 273.786 306.822 272.038 306.822C268.797 306.822 265.906 309.177 265.906 312.954C265.906 316.73 268.797 319.108 272.038 319.108C273.6 319.108 274.765 318.665 275.558 317.756V317.989C275.558 319.691 274.695 320.647 272.527 320.647C271.152 320.647 269.45 320.157 268.447 319.388L266.676 322.978C268.261 324.027 270.546 324.564 273.063 324.564C277.936 324.564 280.827 322.209 280.827 317.266V307.055H275.814ZM273.436 315.005C272.201 315.005 271.245 314.189 271.245 312.954C271.245 311.718 272.201 310.925 273.436 310.925C274.672 310.925 275.605 311.718 275.605 312.954C275.605 314.189 274.672 315.005 273.436 315.005Z" fill="white"/>
<defs>
<linearGradient id="paint0_linear_968_39420" x1="365.5" y1="376.992" x2="167.459" y2="595.424" gradientUnits="userSpaceOnUse">
<stop stop-color="#3185FF"/>
<stop offset="1" stop-color="#B131FF" stop-opacity="0"/>
</linearGradient>
<linearGradient id="paint1_linear_968_39420" x1="419.811" y1="191.439" x2="478.75" y2="664.893" gradientUnits="userSpaceOnUse">
<stop stop-color="#3185FF"/>
<stop offset="1" stop-color="#B131FF" stop-opacity="0"/>
</linearGradient>
<linearGradient id="paint2_linear_968_39420" x1="693.779" y1="388.357" x2="198.007" y2="209.381" gradientUnits="userSpaceOnUse">
<stop stop-color="#3185FF"/>
<stop offset="1" stop-color="#B131FF" stop-opacity="0"/>
</linearGradient>
<linearGradient id="paint3_linear_968_39420" x1="355.419" y1="515.249" x2="80.6172" y2="198.944" gradientUnits="userSpaceOnUse">
<stop stop-color="#3185FF"/>
<stop offset="1" stop-color="#B131FF" stop-opacity="0"/>
</linearGradient>
</defs>
</svg>
