<svg width="319" height="874" viewBox="0 0 319 874" fill="none" xmlns="http://www.w3.org/2000/svg">
<g style="mix-blend-mode:overlay" opacity="0.9">
<path d="M-208.819 364.593L-208.722 364.571L-187.233 347.17L-174.345 336.711L-142.123 310.561L-141.612 311.465L-103.9 374.85L-72.069 454.455L-60.9047 482.531L2.39842 420.29L-25.8002 559.968L-83.8289 562.575L-35.4611 649.56L-98.5359 673.4L-113.152 678.946L-155.628 665.799L-218.349 646.415L-245.152 638.193" stroke="white" stroke-miterlimit="10" stroke-linecap="round" stroke-linejoin="round"/>
<path d="M48.3876 678.279L-19.3357 656.485L-36.9867 650.792L-48.3352 718.086L-101.311 687.086L-114.378 679.55L-127.194 623.169L-139.988 566.885L-113.139 621.64L-127.194 623.169L-175.247 628.367L-227.737 608.845L-219.982 647.151L-196.229 764.197L-196.105 765.186L-196.401 764.338L-246.889 638.962" stroke="white" stroke-miterlimit="10" stroke-linecap="round" stroke-linejoin="round"/>
<path d="M-8.32822 785.875L49.5569 678.898L18.3012 515.862L153.036 593.716L169.499 603.24L181.31 516.104L279.086 556.376L169.997 603.637L132.268 650.605L153.036 593.716L181.31 516.104L2.77218 422.057L17.3836 515.865L-25.4596 561.44L-60.6745 484.18L-103.55 504.623L-146.597 525.206L-152.379 528.035L-163.157 533.108L-163.506 532.474L-177.44 505.892L-201.368 460.594L-213.284 437.934L-214.07 436.279L-214.254 438.152L-213.284 437.934L-186.179 431.525L-167.979 427.223L-166.718 426.939L-167.652 427.761L-182.513 442.201L-201.368 460.594L-220.417 479.03L-177.44 505.892L-155.535 519.585L-155.274 519.832L-146.597 525.206L-84.5746 563.963L-98.3487 674.645L-99.9492 687.728L-109.448 763.555L-109.76 765.763L-9.03306 787.255L-8.3061 785.971L-8.32822 785.875Z" stroke="white" stroke-miterlimit="10" stroke-linecap="round" stroke-linejoin="round"/>
<path d="M-105.499 375.883L-104.641 375.179L1.58834 420.651L-72.84 454.822L-133.074 482.519L-104.436 503.391L-26.6135 560.387L-19.2988 656.279L-9.62912 785.413L-9.58507 785.607L-9.6071 785.51L-48.1905 718.114L-109.456 765.022L-110.424 762.996L-138.124 704.567L-156.38 666.247L-174.516 628.002L-113.931 679.405L-138.124 704.567L-195.449 764.36L-195.621 764.501L-197.023 765.94L-235.517 743.317" stroke="white" stroke-miterlimit="10" stroke-linecap="round" stroke-linejoin="round"/>
<path d="M50.4569 678.571C48.938 675.967 44.8987 678.313 46.4177 680.917C47.9143 683.426 51.9536 681.08 50.4569 678.571Z" fill="white"/>
<path d="M134.374 649.971C132.856 647.366 128.817 649.712 130.336 652.317C131.854 654.922 135.893 652.576 134.374 649.971Z" fill="white"/>
<path d="M20.5914 513.611C19.0725 511.006 15.0334 513.352 16.5522 515.957C18.0488 518.465 22.1102 516.216 20.5914 513.611Z" fill="white"/>
<path d="M6.24763 420.024C4.72876 417.419 0.689629 419.765 2.20849 422.37C3.705 424.878 7.76649 422.629 6.24763 420.024Z" fill="white"/>
<path d="M184.214 515.742C182.696 513.137 178.657 515.483 180.175 518.088C181.694 520.694 185.733 518.347 184.214 515.742Z" fill="white"/>
<path d="M282.175 555.977C280.657 553.372 276.618 555.718 278.136 558.323C279.655 560.928 283.694 558.582 282.175 555.977Z" fill="white"/>
<path d="M171.941 603.691C170.422 601.086 166.383 603.433 167.902 606.038C169.517 608.621 173.46 606.296 171.941 603.691Z" fill="white"/>
</g>
</svg>
