<svg width="87" height="134" viewBox="0 0 87 134" fill="none" xmlns="http://www.w3.org/2000/svg">
<path d="M59.0646 95.6722C58.5244 100.715 55.7075 103.426 51.3448 103.053C48.9001 102.83 45.6355 101.598 43.0168 99.8939C38.9881 97.3766 35.2114 94.0481 31.6864 89.9727C30.467 88.4958 28.5879 85.9618 27.1544 83.781C26.8008 83.1901 26.7416 82.9624 26.998 82.71C27.1107 82.5403 27.3623 82.2561 27.8783 81.6841C28.6652 80.8559 28.7493 80.7351 28.8331 80.619C29.0848 80.3481 29.4682 80.5314 29.8691 81.0913C29.9239 81.1875 29.9239 81.1875 29.9543 81.2362C30.0077 81.3344 30.0077 81.3344 30.1514 81.5434C30.2998 81.7601 30.4074 81.8845 30.4338 81.9738C34.2112 87.5601 38.6083 92.0307 43.0472 94.7846C49.2085 98.2427 53.6363 97.6043 54.452 93.1415C55.2919 88.257 51.6199 81.452 44.4392 74.6967C42.1769 72.6183 36.4839 66.7144 35.4328 65.3791C30.5114 59.2187 28.2015 53.5265 28.5373 48.3133C29.0411 41.1315 35.0652 39.0446 42.6789 43.3875C46.0583 45.3367 49.4649 48.1135 52.6967 51.5442C53.8623 52.7878 55.9426 55.2863 56.6344 56.3062C57.0497 56.9003 57.1382 57.3378 56.8821 57.6233C56.7969 57.8384 56.5463 58.0875 56.1137 58.6818C55.4829 59.4265 55.4594 59.4591 55.345 59.6369C55.1204 59.9143 54.7993 59.7616 54.3718 59.2238C50.9176 54.5242 47.0214 50.9221 42.7644 48.3701C37.4769 45.4169 33.5013 46.7555 33.2453 51.5839C33.1926 56.0237 36.0896 60.9511 42.3636 67.0221C55.1243 79.1197 59.9919 87.4619 59.0646 95.6722ZM43.3296 9.4573C51.6203 14.2394 58.3933 27.2108 58.7288 38.768L27.9502 21.015C28.2463 9.82209 35.0392 4.67544 43.3296 9.4573ZM86.3001 56.824C86.3001 55.6381 85.5035 54.2116 84.487 53.6253L84.4206 53.587L64.524 42.1107C64.0206 26.8274 54.7138 9.47549 43.3296 2.90911C31.9385 -3.66123 22.6558 2.96829 22.1593 17.6749L2.17929 6.15044C1.17725 5.59869 0.382124 6.08585 0.382124 7.26675C0.382124 7.33499 0.382124 7.36495 0.382124 7.43319L0.359374 7.42007L3.19721 81.3746C3.19721 81.5701 3.23043 81.7865 3.23043 82.0216C3.23043 82.0674 3.23585 82.0846 3.23585 82.1708L3.23585 82.2815L3.25679 82.3318C3.68396 87.6201 6.84498 93.4629 11.1651 96.1516L11.1651 96.1899L74.5404 132.745C74.5736 132.764 74.5931 132.775 74.6259 132.794C74.675 132.822 74.675 132.822 74.7112 132.843L74.8426 132.919L74.8426 132.881C79.2241 135.285 82.8116 133.261 83.1535 128.361L83.1727 128.278C83.1727 128.23 83.1727 128.178 83.1727 128.132C83.1727 127.985 83.2059 127.91 83.2059 127.757L86.3001 56.9222C86.3001 56.8956 86.3001 56.8544 86.3001 56.824Z" fill="#EE4D2D"/>
</svg>
