<svg width="112" height="193" viewBox="0 0 112 193" fill="none" xmlns="http://www.w3.org/2000/svg">
<g clip-path="url(#clip0_656_28346)">
<path d="M107.523 65.494C105.704 62.6051 103.339 60.176 100.919 58.5863L11.2387 6.85896C8.80429 5.55165 6.39789 5.19658 4.52314 5.92287C2.64839 6.63301 1.29129 8.38415 0.773635 10.8454C0.633728 11.4426 0.577766 12.1043 0.507812 12.758L0.50781 116.309C0.591754 118.198 0.997484 120.272 1.73899 122.346C2.64838 124.904 4.04745 127.454 5.72633 129.649C7.06944 131.408 8.59442 132.885 10.1614 134.063L101.674 186.847C103.619 187.679 105.508 187.897 107.061 187.388C109.383 186.678 110.95 184.435 111.314 181.287L111.314 75.7023C110.936 72.4018 109.579 68.6977 107.523 65.494Z" fill="#010101"/>
<path d="M95.5748 112.621C91.2097 110.071 86.8306 106.642 82.7593 102.437C80.0172 99.6453 77.4429 96.5142 75.0505 93.1975C75.0505 102.946 75.0505 112.678 75.0505 122.41C75.0365 124.694 75.0784 127.01 75.0225 129.269C74.7567 136.605 72.0425 142.367 67.5515 145.183C63.69 147.669 58.5275 147.967 53.0151 146.014C49.2656 144.691 45.3762 142.367 41.6547 139.236C38.199 136.339 34.8972 132.707 32.0151 128.672C30.756 126.881 29.5108 125.033 28.4615 123.104C28.3636 122.983 28.2936 122.862 28.2236 122.725C27.2303 121.474 26.3489 120.094 25.4675 118.714C22.2916 113.654 19.7733 108.135 18.1923 102.688C16.3176 96.2802 15.7719 90.0584 16.5834 84.8614C17.2689 80.4472 18.9618 76.8078 21.4522 74.3061C23.9985 71.7561 27.3702 70.3923 31.2316 70.3923C36.1284 70.36 41.7806 72.5388 47.209 76.5737C47.181 77.8488 47.223 79.1641 47.195 80.4392L47.195 80.3907C48.6361 81.2219 50.0911 82.1096 51.5181 83.191C51.5041 88.977 51.5321 94.7711 51.5041 100.549C48.9439 98.1362 46.1317 96.5626 43.5994 96.1188C40.2836 95.5297 37.5135 96.9661 36.1843 99.9438C34.7013 103.204 35.0091 108.288 37.0238 113.275C37.2476 113.856 37.5275 114.421 37.7653 115.01C37.7793 115.034 37.8213 115.091 37.8352 115.131C38.227 115.502 38.5907 115.954 38.9965 116.35C41.5148 118.9 44.3409 120.659 46.9292 121.28C50.0911 122.055 52.8333 121.071 54.3862 118.625C55.4915 116.955 55.9672 114.566 55.8832 111.903C55.8832 89.55 55.8832 67.1805 55.8832 44.8272C60.8219 47.6597 65.7746 50.5325 70.7133 53.3812C70.6994 54.7772 70.6994 56.1814 70.9512 57.6985C70.9652 57.8841 70.9652 58.0616 71.0211 58.2715C71.0072 58.0697 70.9932 57.868 70.9792 57.6662C72.3363 58.4651 73.6794 59.2237 75.0365 60.0226C75.0505 60.8054 75.0225 61.5639 75.0505 62.3709C75.4422 67.358 77.1351 72.9504 79.8213 78.1312C79.9612 78.3894 80.0871 78.6557 80.199 78.9301C80.283 79.0431 80.3809 79.1641 80.4649 79.2932C80.5068 79.4304 80.5628 79.5596 80.6327 79.6967C80.6188 79.6403 80.6048 79.5353 80.6048 79.4869C83.8086 83.5299 87.5302 86.9192 91.2657 89.0416C91.2936 90.2843 91.2657 91.4948 91.2797 92.7295C91.2797 97.184 91.2936 97.1598 91.3076 92.7133C92.7207 93.8673 94.1617 94.8276 95.6028 95.7233C95.5608 101.283 95.6168 106.981 95.5748 112.621Z" fill="white"/>
<path d="M47.2246 76.5817C41.7962 72.5469 36.13 70.3599 31.2473 70.4003C27.3858 70.4003 24.0141 71.7641 21.4678 74.3141C18.9774 76.8158 17.2706 80.4472 16.599 84.8694C15.7876 90.0664 16.3332 96.3043 18.208 102.696C19.7889 108.127 22.3072 113.662 25.4831 118.722C26.3505 120.078 27.2459 121.466 28.2393 122.733C27.0641 120.538 25.9308 118.351 24.9794 116.075C22.4052 110.039 20.9082 103.85 20.6283 98.2653C20.6423 96.5787 20.5584 94.8356 20.7403 93.262C21.188 88.404 22.7829 84.3691 25.2872 81.5689C27.5537 79.0188 30.5897 77.5098 34.0734 77.1628C38.0467 76.7754 42.6217 77.9133 47.2246 80.4552C47.2386 79.1721 47.1966 77.8568 47.2246 76.5817Z" fill="#69C9D0"/>
<path d="M91.2507 88.9692C87.5152 86.8468 83.8077 83.4656 80.5898 79.4146C80.6038 79.471 80.6178 79.5759 80.6178 79.6244C83.4439 84.7245 87.2214 89.3081 91.2507 92.6329C91.2647 91.4305 91.2927 90.22 91.2507 88.9692Z" fill="#69C9D0"/>
<path d="M70.7258 53.3408C65.787 50.4922 60.8343 47.6193 55.8956 44.7868C55.9096 67.1482 55.8956 89.5096 55.8956 111.863C55.9796 114.542 55.4899 116.907 54.3986 118.585C52.8457 121.03 50.1035 122.015 46.9416 121.24C44.3533 120.619 41.5272 118.876 39.0089 116.309C38.6171 115.922 38.2534 115.47 37.8477 115.091C38.6451 116.89 39.7504 118.609 40.9116 120.167C44.1155 124.452 48.3127 127.454 51.9223 128.019C55.1122 128.567 57.7704 127.26 59.1415 124.484C59.9669 122.862 60.3027 120.732 60.2467 118.407C60.2467 96.0865 60.2467 73.7654 60.2467 51.4444C63.8144 53.5022 67.382 55.56 70.9496 57.6178C70.7118 56.141 70.6978 54.7288 70.7258 53.3408Z" fill="#69C9D0"/>
<path d="M37.777 115.018C37.5391 114.445 37.2593 113.864 37.0354 113.283C35.0208 108.312 34.713 103.212 36.196 99.9521C37.5111 96.9501 40.2813 95.5298 43.6111 96.127C46.1434 96.5547 48.9555 98.1283 51.5158 100.557C51.5438 94.7793 51.5158 88.9852 51.5298 83.1992C50.1027 82.1178 48.6477 81.2302 47.2067 80.399C47.2347 84.918 47.2067 89.4048 47.2207 93.9159L47.1787 93.8916C44.8562 91.7612 42.3379 90.228 40.0015 89.6711C36.5318 88.7996 33.5658 90.0424 32.0967 92.9717C30.4738 96.0705 30.6417 101.09 32.5025 106.053C33.6777 109.248 35.5524 112.428 37.777 115.018Z" fill="#EE1D52"/>
<path d="M80.2003 78.8818C80.1024 78.6155 79.9625 78.3411 79.8226 78.0829C77.1364 72.886 75.4435 67.3097 75.0518 62.3226C75.0098 61.5237 75.0518 60.7732 75.0378 59.9743C73.6807 59.1754 72.3376 58.4168 70.9805 57.6179C70.9945 57.8197 71.0084 58.0214 71.0224 58.2232C72.1277 65.139 75.4995 72.781 80.2003 78.8818Z" fill="#EE1D52"/>
<path d="M95.5872 95.6509C94.1462 94.7551 92.7052 93.7948 91.2921 92.6409C91.2781 97.0873 91.3201 101.582 91.2641 106.004C86.4373 103.188 81.5965 99.2823 77.1615 94.4808C74.881 92.0356 72.7265 89.3565 70.7118 86.5643C70.6978 96.9663 70.7118 107.368 70.7118 117.778C70.6978 120.191 70.7817 122.66 70.5159 124.896C69.7464 132.086 66.4167 137.396 61.394 139.518C58.7218 140.688 55.5599 140.947 52.1881 140.325C48.2428 139.599 44.0036 137.606 39.8763 134.596C35.7911 131.642 31.8737 127.64 28.418 123.064C29.4813 125.001 30.7124 126.857 31.9716 128.632C34.8537 132.667 38.1555 136.298 41.6112 139.195C45.3327 142.327 49.2221 144.651 52.9716 145.974C58.4979 147.935 63.6465 147.628 67.5079 145.143C71.9989 142.327 74.7131 136.565 74.9789 129.229C75.0349 126.97 74.9929 124.654 75.0069 122.37C75.0069 112.638 75.0069 102.889 75.0069 93.1573C77.3993 96.474 79.9876 99.6132 82.7158 102.397C86.7871 106.602 91.1662 110.031 95.5313 112.581C95.6152 106.981 95.5592 101.284 95.5872 95.6509Z" fill="#EE1D52"/>
</g>
<defs>
<clipPath id="clip0_656_28346">
<rect width="127.901" height="127.809" fill="white" transform="matrix(0.866233 0.499641 -2.20516e-08 1 0.507812 0.669434)"/>
</clipPath>
</defs>
</svg>
