<svg width="303" height="303" viewBox="0 0 303 303" fill="none" xmlns="http://www.w3.org/2000/svg">
<rect x="0.617188" y="0.648682" width="302.325" height="302.325" rx="151.163" fill="white"/>
<rect x="0.617188" y="0.648682" width="302.325" height="302.325" rx="151.163" fill="url(#paint0_linear_656_28374)" fill-opacity="0.8"/>
<path d="M137.472 124.988L134.464 134.384L131.62 124.988H126.561L123.553 134.267L120.709 124.988H115.044L120.266 141.308H126.165L128.939 132.588L131.573 141.308H137.472L142.694 124.988H137.472ZM149.23 128.322C147.248 128.322 144.987 128.835 143.495 129.768L145.173 133.241C146.013 132.612 147.295 132.239 148.437 132.239C149.929 132.239 150.675 132.752 150.839 133.731H148.717C144.754 133.731 142.889 135.106 142.889 137.577C142.889 139.769 144.497 141.541 147.621 141.541C149.417 141.541 150.629 140.911 151.235 139.629V141.308H156.131V134.454C156.131 130.21 153.613 128.322 149.23 128.322ZM149.207 138.37C148.414 138.37 147.948 137.927 147.948 137.344C147.948 136.645 148.437 136.272 149.556 136.272H150.862V137.158C150.582 137.997 149.929 138.37 149.207 138.37ZM168.088 128.555L165.337 135.386L162.773 128.555H157.364L162.493 141.308H167.948L173.077 128.555H168.088ZM187.809 134.92C187.809 130.607 184.569 128.322 180.792 128.322C176.665 128.322 173.565 131.05 173.565 134.92C173.565 138.72 176.595 141.541 181.281 141.541C183.823 141.541 185.618 140.841 186.853 139.489L184.102 136.715C183.263 137.344 182.61 137.647 181.445 137.647C180.139 137.647 179.253 137.135 178.88 136.155H187.739C187.763 135.782 187.809 135.293 187.809 134.92ZM180.838 131.912C181.911 131.912 182.68 132.542 182.89 133.614H178.787C178.997 132.542 179.743 131.912 180.838 131.912ZM110.312 161.988H102.455V178.308H107.957V174.298H110.312C114.858 174.298 117.749 171.92 117.749 168.143C117.749 164.366 114.858 161.988 110.312 161.988ZM109.962 170.055H107.957V166.231H109.962C111.477 166.231 112.2 166.954 112.2 168.143C112.2 169.332 111.477 170.055 109.962 170.055ZM122.951 164.529C124.886 164.529 126.122 163.364 126.122 161.755C126.122 160.24 124.886 159.167 122.951 159.167C121.016 159.167 119.781 160.333 119.781 161.848C119.781 163.364 121.016 164.529 122.951 164.529ZM120.317 178.308H125.586V165.555H120.317V178.308ZM135.475 178.541C138.575 178.541 140.907 177.119 141.746 174.764L137.666 172.759C137.13 173.948 136.36 174.438 135.451 174.438C134.262 174.438 133.283 173.598 133.283 171.92C133.283 170.265 134.262 169.425 135.451 169.425C136.36 169.425 137.13 169.915 137.666 171.104L141.746 169.099C140.907 166.744 138.575 165.322 135.475 165.322C131.068 165.322 127.944 168.05 127.944 171.92C127.944 175.813 131.068 178.541 135.475 178.541ZM152.872 178.308H159.236L153.548 171.08L158.817 165.555H152.592L148.932 169.262V161.009H143.663V178.308H148.932V175.3L149.771 174.391L152.872 178.308ZM163.617 164.529C165.552 164.529 166.787 163.364 166.787 161.755C166.787 160.24 165.552 159.167 163.617 159.167C161.682 159.167 160.446 160.333 160.446 161.848C160.446 163.364 161.682 164.529 163.617 164.529ZM160.982 178.308H166.251V165.555H160.982V178.308ZM178.145 165.322C176.653 165.322 175.301 165.812 174.298 166.814V165.555H169.286V178.308H174.555V172.316C174.555 170.428 175.464 169.752 176.536 169.752C177.492 169.752 178.098 170.358 178.098 171.943V178.308H183.367V171.034C183.367 167.024 181.082 165.322 178.145 165.322ZM195.814 165.555V167.001C195.022 165.858 193.786 165.322 192.038 165.322C188.797 165.322 185.906 167.677 185.906 171.454C185.906 175.23 188.797 177.608 192.038 177.608C193.6 177.608 194.765 177.165 195.558 176.256V176.489C195.558 178.191 194.695 179.147 192.527 179.147C191.152 179.147 189.45 178.657 188.447 177.888L186.676 181.478C188.261 182.527 190.546 183.064 193.063 183.064C197.936 183.064 200.827 180.709 200.827 175.766V165.555H195.814ZM193.436 173.505C192.201 173.505 191.245 172.689 191.245 171.454C191.245 170.218 192.201 169.425 193.436 169.425C194.672 169.425 195.605 170.218 195.605 171.454C195.605 172.689 194.672 173.505 193.436 173.505Z" fill="white"/>
<defs>
<linearGradient id="paint0_linear_656_28374" x1="275.419" y1="373.749" x2="0.617192" y2="57.4439" gradientUnits="userSpaceOnUse">
<stop stop-color="#3185FF"/>
<stop offset="1" stop-color="#B131FF" stop-opacity="0"/>
</linearGradient>
</defs>
</svg>
