<svg width="64" height="64" viewBox="0 0 64 64" fill="none" xmlns="http://www.w3.org/2000/svg">
<g clip-path="url(#clip0_768_32323)">
<path d="M32.4664 4.99072C17.8376 4.99072 5.98047 16.7227 5.98047 31.1936C5.98047 39.6683 11.1421 46.738 11.1421 46.738L7.91102 56.2772L17.8706 53.0629C17.8706 53.0629 24.3596 57.398 32.4679 57.398C47.0967 57.398 58.9554 45.666 58.9554 31.1951C58.9539 16.7226 47.0952 4.99072 32.4664 4.99072Z" fill="#36AA4A"/>
<path d="M32.4677 0C15.0538 0 0.936841 13.9661 0.936841 31.1953C0.936841 39.7455 5.51329 47.3882 5.51329 47.3882L0 64L17.2777 58.5382C17.2777 58.5382 23.6919 62.3906 32.4692 62.3906C49.8845 62.3906 64.0015 48.4245 64.0015 31.1953C64 13.9661 49.883 0 32.4677 0ZM32.4677 57.3982C24.3609 57.3982 17.8703 53.0631 17.8703 53.0631L7.91077 56.2774L11.1418 46.7382C11.1418 46.7382 5.98022 39.6685 5.98022 31.1938C5.98022 16.7214 17.8389 4.99095 32.4662 4.99095C47.095 4.99095 58.9536 16.7229 58.9536 31.1938C58.9551 45.6663 47.0965 57.3982 32.4677 57.3982Z" fill="white"/>
<path d="M20.459 17.6141C20.459 17.6141 21.3105 17.0796 21.755 17.0796C22.1995 17.0796 24.2393 17.0796 24.2393 17.0796C24.2393 17.0796 24.9052 17.1951 25.212 17.8806C25.5173 18.5675 27.6125 23.4356 27.7681 23.8117C27.9238 24.1877 28.3308 25.116 27.6783 25.9481C27.0258 26.7802 25.6625 28.3348 25.6625 28.3348C25.6625 28.3348 25.1222 28.816 25.5906 29.5814C26.0591 30.3469 27.7053 32.8727 29.8573 34.7811C32.0094 36.6896 34.6463 38.0931 35.9602 38.521C37.2742 38.9489 37.5631 38.3789 38.0659 37.7378C38.5702 37.0967 40.1356 35.1379 40.1356 35.1379C40.1356 35.1379 40.6759 34.3547 41.7384 34.8359C42.801 35.3171 47.9671 37.7926 47.9671 37.7926C47.9671 37.7926 48.5971 37.8992 48.633 38.5936C48.669 39.2879 49.1015 41.3666 47.2293 43.3654C45.3571 45.3656 41.3748 46.291 39.4891 45.7683C37.6035 45.2472 31.3703 43.6334 27.3042 39.8831C23.2381 36.1329 19.9457 32.1842 18.5988 29.272C17.2519 26.3597 17.3267 24.6334 17.4015 23.8191C17.4763 23.0048 17.9074 19.2308 20.459 17.6141Z" fill="white"/>
</g>
<defs>
<clipPath id="clip0_768_32323">
<rect width="64" height="64" fill="white"/>
</clipPath>
</defs>
</svg>
