<svg width="64" height="64" viewBox="0 0 64 64" fill="none" xmlns="http://www.w3.org/2000/svg">
<g clip-path="url(#clip0_768_32328)">
<rect width="64" height="64" rx="9" fill="white"/>
<path d="M11.4884 55.8368C11.238 55.7194 11.0572 55.5875 11.3493 55.3236C11.5301 55.1771 11.7249 55.0451 11.9195 54.9132C13.7417 53.6671 15.4528 52.3037 16.5793 50.2955C17.5251 48.6244 17.3723 47.642 16.1899 46.4108C9.59654 39.4624 6.70336 31.1508 8.14995 21.3291C8.97054 15.788 11.377 10.9944 14.8824 6.83128C16.9967 4.31007 19.5143 2.27238 22.2687 0.571968C22.4356 0.469436 22.6722 0.440025 22.6998 0.17614C22.6443 0.0296268 22.5467 0.0736077 22.4633 0.0736077C17.7755 0.0736077 13.0878 -0.0289244 8.41418 0.103018C3.93512 0.249531 0.0682424 3.8994 0.0820682 9.13286C0.109976 24.4223 0.0820682 39.7117 0.0820682 55.0157C0.0820682 59.7654 3.51779 63.7379 8.01067 63.9139C11.8082 64.0752 15.6057 63.9433 19.417 63.9284C19.6953 63.943 19.9733 63.9579 20.2516 63.9579H40.3378C45.3453 63.9579 50.353 63.9873 55.3605 63.9579C60.0065 63.9579 63.7761 59.9998 63.7761 55.1185V55.0305V46.4551C63.7761 46.2497 63.8458 46.0298 63.7206 45.8102C63.4701 45.8248 63.3729 46.0447 63.2336 46.1915C60.535 49.05 57.3497 51.3515 53.8581 52.9786C45.3035 56.9511 36.5958 57.2296 27.7629 54.0341C26.9979 53.7408 26.1632 53.7117 25.3703 53.9167C24.2017 54.2246 23.0473 54.591 21.8928 54.9574C18.4988 56.0712 15.0355 56.5696 11.4884 55.8368ZM21.573 31.1362C21.8096 30.8138 21.9348 30.623 22.0738 30.4326C23.896 27.999 25.7182 25.5658 27.5404 23.1177C28.0691 22.414 28.5976 21.6957 28.9314 20.8455C29.3209 19.878 28.9035 18.9692 27.9577 18.6173C27.5404 18.4854 27.0954 18.4269 26.6502 18.456C24.1741 18.4414 21.6844 18.4414 19.2083 18.456C18.8606 18.456 18.5129 18.5 18.1791 18.5879C17.4002 18.7933 16.927 19.6286 17.1219 20.4643C17.2609 21.0215 17.6782 21.461 18.207 21.5929C18.5408 21.6809 18.8885 21.7249 19.2362 21.7103C20.7386 21.7249 22.2546 21.7103 23.757 21.7249C23.9239 21.7249 24.1326 21.6075 24.2578 21.8714C24.1326 22.0473 24.0074 22.2232 23.8822 22.3846C21.7261 25.2577 19.5839 28.1455 17.4278 31.0189C16.8991 31.7371 16.6211 32.5288 17.0105 33.4084C17.3999 34.288 18.1929 34.4491 18.9996 34.5079C19.6395 34.5519 20.2934 34.5225 20.947 34.5225C23.2004 34.5225 25.4399 34.5371 27.6935 34.5079C28.8897 34.4934 29.5295 33.7311 29.4043 32.5582C29.307 31.6346 28.709 31.1508 27.596 31.1362C25.6348 31.1214 23.6735 31.1362 21.573 31.1362ZM37.7088 23.4256C35.9701 21.8277 34.0503 21.7251 32.1726 22.8978C29.8913 24.3052 29.0566 26.6065 29.335 29.2745C29.5992 31.7666 30.6287 33.8042 33.1045 34.6396C34.6487 35.1674 36.0812 34.9769 37.347 33.8919C37.6809 33.6135 37.7782 33.672 38.0148 33.9799C38.4738 34.5956 39.2668 34.8301 39.9622 34.5516C40.6575 34.3317 41.1166 33.6575 41.1166 32.8952C41.1304 29.9633 41.1445 27.0315 41.1166 24.0998C41.1028 22.9272 40.0594 22.1795 38.9744 22.414C38.3763 22.5459 38.0427 22.9709 37.7088 23.4256ZM47.3485 28.8641C47.2929 32.5288 50.1723 35.2993 53.7887 34.9183C57.1133 34.5665 59.2694 31.9425 59.158 28.2338C59.0467 24.5691 56.4594 22.0624 52.9123 22.1795C49.588 22.2821 47.2371 25.0966 47.3485 28.8641ZM46.1244 25.9468C46.1244 23.6452 46.1382 21.3585 46.1244 19.0569C46.1244 17.8842 45.4149 17.1511 44.3577 17.166C43.3285 17.1805 42.6469 17.9137 42.6328 19.0423C42.619 19.7312 42.6328 20.4057 42.6328 21.0946V32.7484C42.6328 33.6572 43.1615 34.4488 43.8569 34.6393C44.8168 34.9178 45.8043 34.3169 46.0547 33.3053C46.0965 33.1294 46.1244 32.9535 46.1103 32.763C46.1382 30.4911 46.1244 28.2189 46.1244 25.9468Z" fill="#0180C7"/>
<path d="M19.4052 63.943C15.6077 63.943 11.7964 64.0749 7.99891 63.9284C3.50603 63.7379 0.0703125 59.7653 0.0703125 55.0302C0.0703125 39.7408 0.0982202 24.4514 0.0703125 9.14737C0.0703125 3.91391 3.95102 0.263769 8.41625 0.131827C13.0899 -0.000115834 17.7776 0.102416 22.4653 0.102416C22.5488 0.102416 22.6602 0.0584354 22.7019 0.204948C22.674 0.468834 22.4236 0.498244 22.2707 0.600776C19.5163 2.30146 16.9988 4.33888 14.8844 6.86036C11.3929 11.0234 8.97261 15.8025 8.15202 21.3581C6.70543 31.1651 9.61269 39.4915 16.192 46.4399C17.3605 47.686 17.5134 48.6535 16.5814 50.3245C15.4546 52.3328 13.7438 53.6962 11.9216 54.9423C11.7268 55.0596 11.5322 55.2061 11.3373 55.3381C11.0452 55.602 11.226 55.7339 11.4764 55.8513C11.5319 55.9832 11.6016 56.1006 11.685 56.2177C13.2847 57.7131 14.801 59.3107 16.3728 60.8354C17.1099 61.5537 17.8473 62.3014 18.5567 63.049C18.8489 63.3272 19.3356 63.4152 19.4052 63.943Z" fill="#0180C7"/>
<path d="M19.4054 63.9433C19.3358 63.4301 18.8491 63.3424 18.5569 63.0345C17.8475 62.2723 17.1103 61.5392 16.373 60.8209C14.8012 59.2964 13.2849 57.6985 11.6852 56.2032C11.6018 56.0858 11.5321 55.9687 11.4766 55.8368C15.0237 56.5696 18.4873 56.0712 21.8951 54.972C23.0495 54.6056 24.2043 54.2392 25.3725 53.9313C26.1655 53.7114 26.9999 53.7554 27.7652 54.0487C36.5843 57.2444 45.2917 56.9511 53.8604 52.9931C57.3519 51.3658 60.5373 49.0791 63.2358 46.2206C63.3749 46.0741 63.4724 45.8542 63.7228 45.8394C63.848 46.0447 63.7784 46.2646 63.7784 46.4842V55.0597C63.8063 59.9559 60.0784 63.943 55.4324 63.987H55.3628C50.3553 64.0164 45.3475 63.987 40.34 63.987H20.2401C19.9618 63.9579 19.6835 63.9433 19.4054 63.9433Z" fill="#0180C7"/>
<path d="M21.5747 31.1361C23.6752 31.1361 25.6502 31.1215 27.6117 31.1361C28.7106 31.1507 29.3087 31.6344 29.4201 32.558C29.5453 33.7161 28.9054 34.4929 27.7093 34.5078C25.4559 34.5372 23.2164 34.5223 20.9628 34.5223C20.3091 34.5223 19.669 34.5518 19.0154 34.5078C18.2086 34.4638 17.4157 34.2879 17.0262 33.4083C16.6368 32.5286 16.9149 31.7372 17.4436 31.0187C19.5858 28.1457 21.7419 25.2578 23.8979 22.3844C24.0231 22.2085 24.1483 22.0326 24.2735 21.8712C24.1345 21.6219 23.9397 21.7393 23.7727 21.7247C22.2703 21.7101 20.7544 21.7247 19.2519 21.7101C18.9043 21.7101 18.5566 21.6662 18.2227 21.5928C17.4298 21.4023 16.943 20.5666 17.1238 19.7458C17.249 19.1887 17.6663 18.7343 18.1948 18.6023C18.5286 18.5144 18.8763 18.4704 19.224 18.4704C21.7001 18.4558 24.1898 18.4558 26.6659 18.4704C27.1112 18.4558 27.5423 18.5144 27.9735 18.6318C28.9193 18.969 29.3228 19.8924 28.9472 20.8599C28.6133 21.6956 28.0849 22.4138 27.5561 23.1321C25.734 25.5802 23.9118 28.0137 22.0896 30.4324C21.9365 30.6229 21.7972 30.8134 21.5747 31.1361Z" fill="#0180C7"/>
<path d="M37.7086 23.4254C38.0424 22.971 38.3901 22.5458 38.9606 22.4287C40.0595 22.1942 41.0887 22.9419 41.1028 24.1145C41.1445 27.0464 41.1307 29.9783 41.1028 32.9099C41.1028 33.6721 40.6299 34.3464 39.9483 34.5663C39.2529 34.8448 38.46 34.6249 38.0009 33.9946C37.7644 33.6867 37.6671 33.6282 37.3332 33.9066C36.0674 34.9913 34.6346 35.1821 33.0907 34.6543C30.6146 33.8041 29.5992 31.7664 29.3211 29.2892C29.029 26.6066 29.8775 24.3199 32.1588 22.9125C34.0501 21.7247 35.9698 21.8275 37.7086 23.4254ZM32.7843 28.776C32.8122 29.4208 33.0067 30.0366 33.3685 30.5498C34.1197 31.6053 35.5525 31.8252 36.5679 31.0336C36.7349 30.9016 36.888 30.7403 37.027 30.5498C37.8058 29.4357 37.8058 27.6033 37.027 26.4892C36.6376 25.9175 36.0254 25.5805 35.3717 25.5656C33.8414 25.4628 32.7704 26.7089 32.7843 28.776ZM47.3482 28.8639C47.2369 25.0964 49.5878 22.2819 52.9262 22.1794C56.4733 22.062 59.0605 24.5689 59.1719 28.2336C59.2832 31.9423 57.1272 34.5663 53.8026 34.9182C50.1718 35.2992 47.2924 32.5286 47.3482 28.8639ZM50.8395 28.5121C50.8116 29.2449 51.0203 29.9634 51.4376 30.5643C52.2026 31.6199 53.6354 31.8249 54.637 31.0041C54.7901 30.8868 54.9153 30.7403 55.0405 30.5937C55.8473 29.4797 55.8473 27.6033 55.0543 26.4892C54.6649 25.9323 54.0527 25.5805 53.3991 25.5656C51.8967 25.4777 50.8395 26.6797 50.8395 28.5121ZM46.1241 25.9466C46.1241 28.2188 46.138 30.4909 46.1241 32.7631C46.138 33.8038 45.3591 34.6689 44.3716 34.698C44.2046 34.698 44.0239 34.6834 43.8569 34.6395C43.1616 34.449 42.6328 33.6719 42.6328 32.7485V21.0944C42.6328 20.4056 42.619 19.731 42.6328 19.0422C42.6467 17.9135 43.3282 17.1804 44.3578 17.1804C45.4149 17.1658 46.1244 17.8987 46.1244 19.0713C46.138 21.3583 46.1241 23.6599 46.1241 25.9466Z" fill="#0180C7"/>
<path d="M32.7853 28.7761C32.7715 26.7093 33.8425 25.4633 35.3587 25.5512C36.0123 25.5807 36.6245 25.9177 37.0139 26.4894C37.7928 27.5889 37.7928 29.4359 37.0139 30.55C36.2627 31.6055 34.83 31.8254 33.8145 31.0337C33.6476 30.9018 33.4945 30.7404 33.3555 30.55C33.0078 30.0368 32.8132 29.421 32.7853 28.7761ZM50.8405 28.5123C50.8405 26.6945 51.8977 25.4779 53.4001 25.5658C54.0538 25.5804 54.6659 25.9322 55.0554 26.4894C55.8483 27.6035 55.8483 29.4944 55.0415 30.5939C54.2627 31.6346 52.8158 31.8106 51.8283 30.9898C51.6752 30.8724 51.55 30.7259 51.4389 30.5645C51.0213 29.9634 50.8267 29.2451 50.8405 28.5123Z" fill="white"/>
<path d="M9.1822 0.146484H54.821C59.8147 0.146484 63.8626 4.41236 63.8626 9.67496V54.0921C63.8626 59.3547 59.8147 63.6206 54.821 63.6206H9.1822C4.18852 63.6206 0.140625 59.3547 0.140625 54.0921V9.67496C0.140625 4.41236 4.18852 0.146484 9.1822 0.146484Z" stroke="#0180C7" stroke-miterlimit="54.3289"/>
</g>
<defs>
<clipPath id="clip0_768_32328">
<rect width="64" height="64" rx="9" fill="white"/>
</clipPath>
</defs>
</svg>
