<svg width="295" height="295" viewBox="0 0 295 295" fill="none" xmlns="http://www.w3.org/2000/svg">
<rect x="0.726562" y="0.652832" width="293.399" height="293.399" rx="146.699" fill="white"/>
<rect x="0.726562" y="0.652832" width="293.399" height="293.399" rx="146.699" fill="url(#paint0_linear_656_28368)" fill-opacity="0.8"/>
<rect x="0.726562" y="0.652832" width="293.399" height="293.399" rx="146.699" fill="#FF9797" fill-opacity="0.2"/>
<path d="M122.109 132.843L129.571 124.17V120.789H115.184V125.056H122.412L114.951 133.729V137.11H129.944V132.843H122.109ZM138.816 137.344C143.153 137.344 146.231 134.592 146.231 130.722C146.231 126.851 143.153 124.123 138.816 124.123C134.503 124.123 131.402 126.851 131.402 130.722C131.402 134.592 134.503 137.344 138.816 137.344ZM138.816 133.24C137.65 133.24 136.741 132.377 136.741 130.722C136.741 129.066 137.65 128.227 138.816 128.227C139.982 128.227 140.891 129.066 140.891 130.722C140.891 132.377 139.982 133.24 138.816 133.24ZM157.44 124.123C155.948 124.123 154.595 124.613 153.593 125.615V124.356H148.58V137.11H153.849V131.118C153.849 129.229 154.758 128.553 155.831 128.553C156.787 128.553 157.393 129.159 157.393 130.745V137.11H162.663V129.836C162.663 125.825 160.378 124.123 157.44 124.123ZM179.449 130.722C179.449 126.408 176.208 124.123 172.43 124.123C168.303 124.123 165.202 126.851 165.202 130.722C165.202 134.522 168.233 137.344 172.92 137.344C175.461 137.344 177.257 136.644 178.493 135.292L175.741 132.517C174.902 133.147 174.249 133.45 173.083 133.45C171.777 133.45 170.891 132.937 170.518 131.957H179.379C179.402 131.584 179.449 131.095 179.449 130.722ZM172.477 127.714C173.55 127.714 174.319 128.343 174.529 129.416H170.425C170.635 128.343 171.381 127.714 172.477 127.714ZM106.173 157.789H98.315V174.11H103.818V170.1H106.173C110.719 170.1 113.611 167.722 113.611 163.944C113.611 160.167 110.719 157.789 106.173 157.789ZM105.823 165.856H103.818V162.032H105.823C107.338 162.032 108.061 162.755 108.061 163.944C108.061 165.134 107.338 165.856 105.823 165.856ZM118.814 160.33C120.749 160.33 121.985 159.164 121.985 157.556C121.985 156.04 120.749 154.968 118.814 154.968C116.879 154.968 115.643 156.133 115.643 157.649C115.643 159.164 116.879 160.33 118.814 160.33ZM116.179 174.11H121.449V161.356H116.179V174.11ZM131.339 174.344C134.44 174.344 136.772 172.921 137.611 170.566L133.531 168.561C132.994 169.75 132.225 170.24 131.316 170.24C130.126 170.24 129.147 169.4 129.147 167.722C129.147 166.066 130.126 165.227 131.316 165.227C132.225 165.227 132.994 165.716 133.531 166.906L137.611 164.9C136.772 162.545 134.44 161.123 131.339 161.123C126.932 161.123 123.808 163.851 123.808 167.722C123.808 171.615 126.932 174.344 131.339 174.344ZM148.739 174.11H155.104L149.415 166.882L154.684 161.356H148.459L144.798 165.064V156.81H139.528V174.11H144.798V171.103L145.637 170.193L148.739 174.11ZM159.485 160.33C161.42 160.33 162.656 159.164 162.656 157.556C162.656 156.04 161.42 154.968 159.485 154.968C157.55 154.968 156.314 156.133 156.314 157.649C156.314 159.164 157.55 160.33 159.485 160.33ZM156.85 174.11H162.12V161.356H156.85V174.11ZM174.015 161.123C172.523 161.123 171.17 161.613 170.168 162.615V161.356H165.155V174.11H170.424V168.118C170.424 166.229 171.334 165.553 172.406 165.553C173.362 165.553 173.968 166.159 173.968 167.745V174.11H179.238V166.836C179.238 162.825 176.953 161.123 174.015 161.123ZM191.687 161.356V162.802C190.894 161.659 189.658 161.123 187.91 161.123C184.669 161.123 181.777 163.478 181.777 167.255C181.777 171.033 184.669 173.411 187.91 173.411C189.472 173.411 190.638 172.968 191.43 172.059V172.292C191.43 173.994 190.568 174.95 188.399 174.95C187.024 174.95 185.322 174.46 184.319 173.691L182.547 177.281C184.132 178.331 186.417 178.867 188.936 178.867C193.809 178.867 196.7 176.512 196.7 171.569V161.356H191.687ZM189.309 169.307C188.073 169.307 187.117 168.491 187.117 167.255C187.117 166.02 188.073 165.227 189.309 165.227C190.544 165.227 191.477 166.02 191.477 167.255C191.477 168.491 190.544 169.307 189.309 169.307Z" fill="white"/>
<defs>
<linearGradient id="paint0_linear_656_28368" x1="88.811" y1="-100.061" x2="147.75" y2="373.393" gradientUnits="userSpaceOnUse">
<stop stop-color="#3185FF"/>
<stop offset="1" stop-color="#B131FF" stop-opacity="0"/>
</linearGradient>
</defs>
</svg>
